<?xml version="1.0" standalone="no"?>
<!DOCTYPE svg PUBLIC "-//W3C//DTD SVG 1.1//EN" "http://www.w3.org/Graphics/SVG/1.1/DTD/svg11.dtd" >
<svg xmlns="http://www.w3.org/2000/svg">
<metadata></metadata>
<defs>
<font id="gorditaregular" horiz-adv-x="1164" >
<font-face units-per-em="2048" ascent="1638" descent="-410" />
<missing-glyph horiz-adv-x="572" />
<glyph unicode="ff" horiz-adv-x="1404" d="M1265 1532q-33 0 -63 -10.5t-58 -34.5t-45 -72t-17 -114v-208h287v-139h-287v-954h-158v954h-504v-954h-159v954h-210v139h210v203q0 184 92 280.5t243 96.5q63 0 120 -20v-136q-42 15 -114 15q-33 0 -62.5 -10.5t-58 -34.5t-45 -72t-16.5 -114v-208h504v203 q0 184 92 280.5t243 96.5q63 0 119 -20v-136q-41 15 -113 15z" />
<glyph unicode="fi" horiz-adv-x="1265" d="M51 954v139h210v203q0 184 92 280.5t243 96.5q63 0 120 -20v-136q-42 15 -114 15q-33 0 -62.5 -10.5t-58 -34.5t-45 -72t-16.5 -114v-208h664v-1093h-160v954h-504v-954h-159v954h-210zM884 1485q0 50 35 85t85 35t85 -35t35 -85t-35 -85t-85 -35t-85 35t-35 85z" />
<glyph unicode="fl" horiz-adv-x="1265" d="M51 954v139h210v203q0 184 92 280.5t243 96.5q63 0 120 -20v-136q-42 15 -114 15q-33 0 -62.5 -10.5t-58 -34.5t-45 -72t-16.5 -114v-208h504v576h160v-1669h-160v954h-504v-954h-159v954h-210z" />
<glyph unicode="ffi" horiz-adv-x="1929" d="M420 954v-954h-159v954h-210v139h210v203q0 184 92 280.5t243 96.5q63 0 119 -20v-136q-41 15 -113 15q-33 0 -62.5 -10.5t-58 -34.5t-45 -72t-16.5 -114v-208h504v203q0 184 92 280.5t243 96.5q63 0 120 -20v-136q-42 15 -114 15q-33 0 -62.5 -10.5t-58 -34.5t-45 -72 t-16.5 -114v-208h665v-1093h-160v954h-505v-954h-159v954h-504zM1548 1485q0 50 35 85t85 35t85 -35t35 -85t-35 -85t-85 -35t-85 35t-35 85z" />
<glyph unicode="ffl" horiz-adv-x="1930" d="M602 1532q-33 0 -63 -10.5t-58 -34.5t-45 -72t-17 -114v-208h505v203q0 184 92 280.5t243 96.5q63 0 120 -20v-136q-42 15 -114 15q-33 0 -62.5 -10.5t-58 -34.5t-45 -72t-16.5 -114v-208h506v576h160v-1669h-160v954h-506v-954h-159v954h-505v-954h-158v954h-210v139 h210v203q0 184 91.5 280.5t243.5 96.5q63 0 119 -20v-136q-41 15 -113 15z" />
<glyph horiz-adv-x="0" />
<glyph horiz-adv-x="0" />
<glyph unicode="&#xd;" horiz-adv-x="572" />
<glyph unicode=" "  horiz-adv-x="572" />
<glyph unicode="&#x09;" horiz-adv-x="572" />
<glyph unicode="&#xa0;" horiz-adv-x="572" />
<glyph unicode="!" horiz-adv-x="586" d="M208 1322v282h169v-282l-10 -857h-149zM173 102q0 50 35 85t85 35q49 0 84.5 -35t35.5 -85t-35 -85t-85 -35t-85 35t-35 85z" />
<glyph unicode="&#x22;" horiz-adv-x="826" d="M129 1436q0 157 94 157t94 -157q0 -22 -6 -64l-51 -422h-74l-51 422q-6 36 -6 64zM508 1436q0 157 94 157t94 -157q0 -22 -6 -64l-51 -422h-74l-51 422q-6 36 -6 64z" />
<glyph unicode="#" horiz-adv-x="1698" d="M1189 578h291v-134h-320l-98 -444h-149l97 444h-487l-97 -444h-150l97 444h-291v134h321l105 482h-291l1 135h320l90 409h151l-91 -409h488l90 409h149l-90 -409h291v-135h-321zM552 578h489l106 482h-490z" />
<glyph unicode="$" horiz-adv-x="1287" d="M1184 454q0 -194 -128 -318t-331 -144v-201h-140v201q-134 14 -245.5 82t-175.5 164.5t-75 202.5l155 43q23 -124 119 -217.5t223 -115.5v597l-70 14q-168 33 -274 135q-111 108 -111 276q0 93 36.5 173.5t99 135.5t144.5 89.5t174 42.5v211h140v-214q102 -11 184 -49.5 t133.5 -93t82 -113t42.5 -120.5l-152 -47q-10 40 -30.5 79.5t-54 78.5t-87 68t-119.5 41v-565l10 -2q207 -41 311 -139q74 -69 106.5 -150t32.5 -145zM586 917v543q-120 -15 -203 -90.5t-83 -188.5q0 -93 58 -161t174 -92zM724 721v-571q125 17 207 90t82 197 q0 46 -13.5 85.5t-34 66.5t-49.5 49.5t-54.5 35.5t-55 23.5t-44.5 14.5t-29 7q-4 1 -5 1z" />
<glyph unicode="%" horiz-adv-x="1770" d="M803 1258q0 -149 -106 -255t-256 -106t-256 106t-106 255q0 150 106 256t256 106t256 -106t106 -256zM280 0l1046 1604h162l-1045 -1604h-163zM668 1258q0 94 -66.5 160.5t-160.5 66.5t-160.5 -66.5t-66.5 -160.5t66.5 -160t160.5 -66t160.5 66t66.5 160zM1691 349 q0 -149 -106 -255t-256 -106t-256 106t-106 255q0 150 106 256t256 106t256 -106t106 -256zM1556 349q0 94 -66.5 160.5t-160.5 66.5t-160 -66.5t-66 -160.5t66 -160t160 -66t160.5 66t66.5 160z" />
<glyph unicode="&#x26;" horiz-adv-x="1466" d="M1229 706h166q-35 -99 -105 -210t-161 -210l248 -286h-203l-156 180q-230 -194 -454 -194q-127 0 -230.5 47.5t-164.5 138t-61 207.5q0 61 21.5 119t53.5 102.5t81 89t93 75.5t101 66l-117 135q-48 55 -80 126.5t-32 140.5q0 111 59.5 200.5t155 137.5t204.5 48 q103 0 196 -48t151.5 -135t58.5 -192q0 -82 -30 -147t-76 -107.5t-122 -89.5l-149 -92l357 -411q134 154 195 309zM645 1475q-102 0 -178.5 -70t-76.5 -172q0 -36 10.5 -69.5t33 -67t40.5 -56t51 -58.5t46 -51l18 -21l162 98q145 87 145 226q0 101 -74.5 171t-176.5 70z M583 134q164 0 342 154l-377 438q-48 -29 -77.5 -48.5t-70.5 -53.5t-64.5 -65t-41 -73.5t-17.5 -88.5q0 -118 84 -190.5t222 -72.5z" />
<glyph unicode="'" horiz-adv-x="446" d="M129 1436q0 157 94 157t94 -157q0 -22 -6 -64l-51 -422h-74l-51 422q-6 36 -6 64z" />
<glyph unicode="(" horiz-adv-x="814" d="M110 733v52q0 317 153 577t429 421l68 -104q-247 -159 -367 -380t-120 -515v-50q0 -295 119 -514t366 -378l-66 -108q-276 162 -429 422t-153 577z" />
<glyph unicode=")" horiz-adv-x="814" d="M704 785v-52q0 -318 -152.5 -578t-429.5 -421l-66 108q247 159 366 378t119 514v50q0 294 -120 515t-367 380l68 104q277 -161 429.5 -420.5t152.5 -577.5z" />
<glyph unicode="*" horiz-adv-x="1039" d="M816 876l-97 -72l-201 272l-198 -271l-96 71l194 271l-317 105l38 113l319 -104v343h122v-343l319 104l39 -113l-316 -105z" />
<glyph unicode="+" horiz-adv-x="1210" d="M681 272h-152v425h-427v150h427v421h152v-421h427v-150h-427v-425z" />
<glyph unicode="," horiz-adv-x="587" d="M161 -299v83q66 13 114.5 76.5t49.5 136.5q-22 -13 -52 -13q-58 0 -94.5 39t-36.5 97q0 57 42.5 96t100.5 39q74 0 115.5 -56t41.5 -133q0 -139 -74.5 -243t-206.5 -122z" />
<glyph unicode="-" horiz-adv-x="893" d="M153 725h587v-169h-587v169z" />
<glyph unicode="." horiz-adv-x="572" d="M139 129q0 61 43 104t104 43t104 -43t43 -104t-43 -104t-104 -43t-104 43t-43 104z" />
<glyph unicode="/" horiz-adv-x="1007" d="M71 -10l699 1678h169l-700 -1678h-168z" />
<glyph unicode="0" horiz-adv-x="1572" d="M783 -17q-128 0 -238 46.5t-187 125.5t-132 183.5t-81 220.5t-26 237t26.5 238.5t82.5 223.5t134 186.5t188.5 128t239.5 47.5q128 0 237.5 -46.5t186.5 -126t132 -184t81 -221t26 -237.5t-26.5 -238.5t-82 -223t-133.5 -185.5t-188.5 -127.5t-239.5 -47.5zM785 1465 q-100 0 -183.5 -41t-139.5 -108t-95.5 -154.5t-57 -177.5t-17.5 -179t17.5 -180t57 -179t95.5 -156t140.5 -110t184.5 -42t183.5 41t139.5 108t95.5 153.5t57 176.5t17.5 179t-18 180t-57.5 179.5t-95.5 157t-140 110.5t-184 42z" />
<glyph unicode="1" horiz-adv-x="878" d="M488 0v1426l-386 -230l-76 128l466 280h163v-1604h-167z" />
<glyph unicode="2" horiz-adv-x="1311" d="M110 0v50q0 334 371 563l243 150q67 41 110.5 74.5t86 80t63.5 102.5t21 124q0 127 -100 224t-251 97q-122 0 -207.5 -60.5t-122.5 -144.5q-29 -67 -33 -158l-168 24q0 69 22 138.5t67.5 133.5t108 114t150 79.5t186.5 29.5q109 0 207 -39t166.5 -104t108.5 -151t40 -178 q0 -161 -83 -274t-254 -220l-253 -158q-264 -165 -275 -342h879v-155h-1083z" />
<glyph unicode="3" horiz-adv-x="1333" d="M660 -16q-120 0 -222.5 39.5t-172 105.5t-113 149t-54.5 173l163 30q6 -64 37 -124.5t80.5 -109t123 -78.5t158.5 -30q46 0 96 11t102 37.5t92.5 65t66.5 98.5t26 133q0 139 -105 223.5t-275 84.5q-87 0 -151 -24l-79 133l526 549h-823v154h1038v-147l-497 -512 q193 9 345 -97q89 -62 140 -155.5t51 -202.5q0 -149 -75.5 -266t-201 -178.5t-276.5 -61.5z" />
<glyph unicode="4" horiz-adv-x="1395" d="M1059 0h-163v385h-835v184l786 1035h212v-1074h269v-145h-269v-385zM211 530h685v899z" />
<glyph unicode="5" horiz-adv-x="1301" d="M456 1446l-124 -533q66 61 162.5 88t172.5 27q231 0 378.5 -141t147.5 -377q0 -126 -48.5 -228t-129 -165.5t-179 -97.5t-204.5 -34q-133 0 -251.5 52.5t-199.5 154t-97 231.5l163 36q21 -140 129 -229.5t261 -89.5q50 0 102 12.5t103.5 41t92 69.5t65.5 104t25 139 q0 95 -33 168.5t-89 117t-123.5 65.5t-142.5 22q-90 0 -183 -44t-154 -119l-157 61l190 827h800v-158h-677z" />
<glyph unicode="6" horiz-adv-x="1381" d="M910 1460q-137 0 -250 -50.5t-188.5 -140t-122 -205.5t-59.5 -252q39 61 95 107.5t117 72.5t119 38.5t112 12.5q124 0 227 -41.5t170.5 -112.5t104.5 -163.5t37 -194.5q0 -132 -49.5 -239t-131.5 -172.5t-181.5 -100.5t-206.5 -35q-138 0 -274.5 73.5t-205.5 196.5 q-58 104 -79.5 198t-21.5 244q0 191 51.5 358t148.5 293.5t248 199.5t338 73q202 0 330 -75l-63 -152q-57 35 -130.5 51t-134.5 16zM709 895q-153 0 -271 -97q-59 -49 -93 -122.5t-34 -154.5q0 -116 58.5 -204.5t148 -132.5t191.5 -44q77 0 147 25t126.5 71.5t90 120.5 t33.5 166q0 154 -109 263t-288 109z" />
<glyph unicode="7" horiz-adv-x="1207" d="M968 1448h-910v156h1091v-156l-739 -1448h-187z" />
<glyph unicode="8" horiz-adv-x="1372" d="M686 -17q-84 0 -164 17.5t-152.5 55t-127 90t-87 128t-32.5 164.5q0 129 88 233.5t248 155.5q-140 40 -219 147.5t-79 219.5q0 81 32 151t85 119.5t121.5 85.5t141.5 53t145 17q74 0 147.5 -16.5t142 -51.5t121 -84.5t84 -120t31.5 -153.5q0 -118 -80.5 -222t-218.5 -145 q161 -46 248.5 -152t87.5 -237q0 -86 -31.5 -160t-86 -127.5t-126.5 -91.5t-153.5 -57t-165.5 -19zM686 1469q-59 0 -120.5 -18t-115.5 -51.5t-88.5 -89t-34.5 -122.5q0 -58 24 -108t62.5 -83.5t86.5 -57.5t95.5 -35t90.5 -11q54 0 114.5 18.5t116.5 52.5t92.5 92.5 t36.5 128.5q0 67 -34 123t-88 90t-116 52.5t-122 18.5zM686 136q66 0 133 18.5t126.5 53.5t96.5 95t37 135q0 76 -36.5 137t-95.5 98t-126.5 56.5t-134.5 19.5q-66 0 -133 -19t-126 -55t-96.5 -97t-37.5 -135q0 -78 36.5 -139t95.5 -96.5t126 -53.5t135 -18z" />
<glyph unicode="9" horiz-adv-x="1384" d="M506 145q133 0 241 49.5t181 137.5t117 206t55 258q-75 -118 -206.5 -180t-248.5 -62q-123 0 -225.5 44t-168.5 117.5t-102.5 165.5t-36.5 191q0 106 31.5 196.5t86 154.5t127.5 109.5t155 67t169 21.5q137 0 270 -73t202 -197q58 -103 83 -208.5t25 -242.5 q0 -198 -48 -364t-140 -289.5t-235.5 -192.5t-324.5 -69q-81 0 -190.5 24.5t-181.5 71.5l62 153q73 -45 158 -67t145 -22zM670 702q73 0 145 26t128 73q58 48 92.5 124.5t34.5 159.5q0 115 -58 203.5t-147.5 132.5t-191.5 44q-77 0 -147 -25t-125.5 -72t-88.5 -122t-33 -167 q0 -74 26.5 -141.5t75 -120.5t123.5 -84t166 -31z" />
<glyph unicode=":" horiz-adv-x="602" d="M154 963q0 61 43 104t104 43t104 -43t43 -104t-43 -104t-104 -43t-104 43t-43 104zM154 129q0 61 43 104t104 43t104 -43t43 -104t-43 -104t-104 -43t-104 43t-43 104z" />
<glyph unicode=";" horiz-adv-x="619" d="M160 963q0 61 43 104t104 43t104 -43t43 -104t-43 -104t-104 -43t-104 43t-43 104zM179 -299v83q66 13 114.5 76.5t49.5 136.5q-21 -13 -52 -13q-58 0 -94.5 39t-36.5 97q0 57 42.5 96t100.5 39q74 0 115.5 -56t41.5 -133q0 -139 -74.5 -243t-206.5 -122z" />
<glyph unicode="&#x3c;" horiz-adv-x="1312" d="M82 847l1061 505v-159l-885 -416l885 -419v-161l-1061 503v147z" />
<glyph unicode="=" horiz-adv-x="1267" d="M159 1083h949v-159h-949v159zM159 619h949v-157h-949v157z" />
<glyph unicode="&#x3e;" horiz-adv-x="1312" d="M169 356l885 419l-885 416v161l1061 -505v-147l-1061 -503v159z" />
<glyph unicode="?" horiz-adv-x="1113" d="M605 465h-157q-2 24 -2 36q0 40 6 75.5t20 67.5t26 55.5t36 52.5t37 43t42 43t38 39q14 15 46.5 47.5t48.5 49.5t41 48.5t37 55.5t21.5 57t9.5 67q0 109 -76.5 185.5t-223.5 76.5q-151 0 -234 -98t-74 -249l-164 7q-2 32 -2 48q0 128 65.5 232t174 160.5t234.5 56.5 q105 0 194.5 -34.5t149.5 -92t93.5 -133.5t33.5 -158q0 -58 -15.5 -109t-52.5 -103t-71.5 -90.5t-99.5 -103.5l-14 -14q-47 -47 -68.5 -71t-49 -64.5t-38.5 -83.5t-12 -99zM400 102q0 -50 35 -85t85 -35t85 35t35 85t-35 85t-85 35t-85 -35t-35 -85z" />
<glyph unicode="@" horiz-adv-x="1771" d="M1547 613q27 83 27 165q0 130 -51.5 240.5t-138 184.5t-201.5 115.5t-242 41.5q-144 0 -275.5 -58t-227 -155t-152 -229.5t-56.5 -275.5q0 -199 90.5 -358t250.5 -247.5t358 -88.5q233 0 429 140l59 -94q-89 -72 -227.5 -115.5t-260.5 -43.5q-172 0 -322.5 60.5 t-258.5 166.5t-170.5 256t-62.5 323q0 168 65.5 321.5t176 265t263.5 178t321 66.5q150 0 286 -50t238 -138.5t162.5 -219.5t60.5 -285q0 -137 -60 -273t-172 -202q-91 -53 -169 -53q-69 0 -122 40.5t-73 107.5q-113 -147 -287 -147q-87 0 -162 49.5t-118 128.5t-43 165 q0 115 50 218.5t144.5 169.5t211.5 66q79 0 147 -40t103 -109l24 143h149l-85 -513q-5 -15 -3 -39.5t7.5 -47.5t28 -40t57.5 -17q80 0 141.5 70.5t89.5 156.5zM908 921q-120 0 -199.5 -94.5t-79.5 -218.5q0 -95 58 -161t150 -66q79 0 143 50t97 123.5t33 150.5 q0 91 -56 153.5t-146 62.5z" />
<glyph unicode="A" horiz-adv-x="1588" d="M1228 410h-873l-176 -410h-172l691 1604h191l692 -1604h-178zM790 1430l-372 -867h745z" />
<glyph unicode="B" horiz-adv-x="1501" d="M223 0v1604h576q148 0 263.5 -45.5t184 -138t68.5 -219.5q0 -28 -3.5 -57t-18 -74.5t-39 -85t-72 -81t-111.5 -69.5q84 -22 149 -69.5t99.5 -105.5t51 -113.5t16.5 -105.5q0 -112 -45.5 -198t-125 -138t-180 -78t-216.5 -26h-597zM390 1450v-559h382q188 0 280 81.5 t92 208.5q0 57 -20 103t-53.5 76.5t-80 51t-97.5 29.5t-108 9h-395zM390 741v-587h434q55 0 107.5 9t104.5 30.5t91 54.5t63 85.5t24 118.5t-26.5 117.5t-68 83t-98.5 52t-112.5 28.5t-115.5 8h-403z" />
<glyph unicode="C" horiz-adv-x="1719" d="M910 -17q-165 0 -312 60t-254.5 165.5t-170 258.5t-62.5 330q0 178 64.5 333.5t174.5 262t257.5 167.5t310.5 61q126 0 237 -34t189.5 -88t140 -124.5t97 -141t52.5 -140.5l-161 -57q-10 39 -29.5 85t-64.5 109t-103.5 112t-153.5 84t-208 35q-127 0 -242 -48t-200 -133 t-135.5 -208t-50.5 -265q0 -188 81 -340t225.5 -238t323.5 -86q110 0 202 33t149.5 78.5t104 110.5t68 111t38.5 97l162 -58q-19 -65 -53 -131.5t-95.5 -140.5t-140 -130t-193.5 -93t-248 -37z" />
<glyph unicode="D" horiz-adv-x="1657" d="M223 1604h477q184 0 342.5 -61.5t269 -168t173 -254t62.5 -315.5q0 -176 -66.5 -327t-180.5 -255.5t-269.5 -163.5t-330.5 -59h-477v1604zM391 158h303q199 0 354 82.5t239.5 228.5t84.5 332q0 137 -48 256t-135 205t-215.5 135t-281.5 49h-301v-1288z" />
<glyph unicode="E" horiz-adv-x="1359" d="M223 1604h1003v-156h-835v-555h764v-155h-764v-582h843v-156h-1011v1604z" />
<glyph unicode="F" horiz-adv-x="1300" d="M391 870h755v-156h-755v-714h-168v1604h993v-158h-825v-576z" />
<glyph unicode="G" horiz-adv-x="1756" d="M1626 1143l-161 -57q-14 44 -38.5 89.5t-71 99t-105.5 94t-147.5 68t-190.5 27.5q-179 0 -324.5 -91.5t-224.5 -241.5t-79 -325q0 -136 44 -257t124 -212t200.5 -143.5t263.5 -52.5q107 0 205.5 32.5t176.5 92.5t127 151.5t56 202.5h-670v156h849v-61q0 -152 -52 -285 t-146.5 -232t-236.5 -156.5t-313 -57.5q-179 0 -330 62.5t-254 171.5t-160.5 258.5t-57.5 320.5q0 228 105 416.5t290.5 297.5t412.5 109q142 0 263.5 -38.5t207.5 -106.5t145 -151t92 -181z" />
<glyph unicode="H" horiz-adv-x="1696" d="M1305 734h-914v-734h-168v1604h168v-710h914v710h168v-1604h-168v734z" />
<glyph unicode="I" horiz-adv-x="614" d="M223 1604h168v-1604h-168v1604z" />
<glyph unicode="J" horiz-adv-x="1275" d="M1070 1604v-1104q0 -224 -137 -370t-350 -146q-229 0 -365 139t-136 373v158h167v-152q0 -91 28 -162t75.5 -113t104.5 -63.5t120 -21.5q140 0 232.5 101.5t92.5 250.5v1110h168z" />
<glyph unicode="K" horiz-adv-x="1387" d="M223 0v1604h168v-709h11l719 709h234l-786 -768l824 -836h-238l-752 772h-12v-772h-168z" />
<glyph unicode="L" horiz-adv-x="1194" d="M223 1604h168v-1446h761v-158h-929v1604z" />
<glyph unicode="M" horiz-adv-x="2120" d="M1897 1604v-1604h-167v1375h-1l-597 -1375h-150l-592 1364h-1v-1364h-166v1604h238l600 -1375l594 1375h242z" />
<glyph unicode="N" horiz-adv-x="1753" d="M1530 1604v-1604h-184l-957 1365v-1365h-166v1604h194l947 -1348v1348h166z" />
<glyph unicode="O" horiz-adv-x="1833" d="M1723 806q0 -228 -104.5 -416t-290.5 -297.5t-414 -109.5q-169 0 -319 63.5t-256 172t-167.5 259t-61.5 319.5q0 227 104.5 415.5t290.5 298t414 109.5q169 0 319 -63.5t256 -172t167.5 -259t61.5 -319.5zM1548 797q0 134 -47 256t-129.5 212.5t-201.5 144t-256 53.5 q-180 0 -325 -89.5t-224.5 -239t-79.5 -328.5q0 -134 47 -256t129.5 -212t201.5 -143.5t256 -53.5q180 0 325 89t224.5 238.5t79.5 328.5z" />
<glyph unicode="P" horiz-adv-x="1395" d="M391 627v-627h-168v1604h536q114 0 208.5 -26t159 -71.5t109.5 -107t65.5 -131t20.5 -145.5q0 -104 -38 -193.5t-110.5 -157t-186 -106.5t-255.5 -39h-341zM391 1446v-663h347q106 0 188 29t129.5 77.5t71.5 106.5t24 121q0 50 -11.5 95t-41 88.5t-74 75t-116 51 t-162.5 19.5h-355z" />
<glyph unicode="Q" horiz-adv-x="1837" d="M1620 -39l-209 189q-215 -167 -497 -167q-170 0 -319.5 63.5t-255.5 172t-167.5 259t-61.5 319.5q0 228 104.5 416t290 297.5t413.5 109.5q170 0 319.5 -63.5t255.5 -172t167.5 -259t61.5 -319.5q0 -155 -50.5 -294.5t-144.5 -249.5l203 -174zM285 806 q0 -180 79.5 -331.5t225.5 -242.5t328 -91q209 0 370 118l-306 268l111 125l311 -282q144 182 144 427q0 134 -47 256t-129.5 212.5t-201.5 144t-256 53.5q-180 0 -325 -89.5t-224.5 -239t-79.5 -328.5z" />
<glyph unicode="R" horiz-adv-x="1475" d="M1192 0l-474 649h-327v-649h-168v1604h556q142 0 252 -37.5t176.5 -103t100.5 -148.5t34 -179q0 -99 -35 -181.5t-96 -138.5t-139.5 -91.5t-169.5 -47.5l494 -677h-204zM391 802h373q105 0 185.5 28t127.5 75.5t70.5 104.5t23.5 120q0 50 -12.5 94t-42 85.5t-74.5 71 t-115.5 47.5t-159.5 18h-376v-644z" />
<glyph unicode="S" horiz-adv-x="1313" d="M666 -16q-114 0 -217 39t-175.5 103t-118.5 145.5t-55 166.5l158 44q27 -142 144 -241t264 -99q70 0 133 18t114.5 53t82 92.5t30.5 129.5q0 54 -19 99.5t-47.5 75.5t-68.5 53.5t-76 35.5t-75 20l-213 42q-65 13 -140 47t-132 89q-112 109 -112 277q0 133 72 236.5 t187 157t250 53.5q100 0 184 -23.5t142 -62t101.5 -89.5t67.5 -103t34 -106l-153 -48q-9 37 -26 73t-48.5 73.5t-72 66t-101 46.5t-132.5 18q-87 0 -163 -34.5t-124.5 -100.5t-48.5 -149q0 -93 58.5 -161.5t174.5 -91.5l204 -40q204 -40 311 -140q74 -69 106 -149.5 t32 -145.5q0 -141 -70.5 -249t-191 -164.5t-270.5 -56.5z" />
<glyph unicode="T" horiz-adv-x="1328" d="M749 0h-169v1446h-536v158h1240v-158h-535v-1446z" />
<glyph unicode="U" horiz-adv-x="1609" d="M1407 1604v-977q0 -304 -158.5 -473.5t-444.5 -169.5q-287 0 -444.5 171.5t-157.5 460.5v988h168v-980q0 -127 33.5 -222t94.5 -150.5t139 -82.5t174 -27q206 0 317 124t111 349v989h168z" />
<glyph unicode="V" horiz-adv-x="1573" d="M880 0h-187l-645 1604h185l554 -1414l557 1414h181z" />
<glyph unicode="W" horiz-adv-x="2349" d="M559 0l-502 1604h177l420 -1361h4l423 1361h191l426 -1368h3l422 1368h170l-504 -1604h-187l-428 1377l-430 -1377h-185z" />
<glyph unicode="X" horiz-adv-x="1464" d="M731 701l-518 -701h-197l615 821l-588 783h197l495 -661l490 661h196l-587 -781l614 -823h-196z" />
<glyph unicode="Y" horiz-adv-x="1518" d="M1273 1604h193l-622 -927v-677h-170v676l-621 928h202l507 -767z" />
<glyph unicode="Z" horiz-adv-x="1318" d="M1231 0h-1157v155l956 1295h-923v154h1120v-155l-958 -1294h962v-155z" />
<glyph unicode="[" horiz-adv-x="848" d="M211 1765h561v-138h-405v-1736h405v-139h-561v2013z" />
<glyph unicode="\" horiz-adv-x="1007" d="M237 1668l699 -1678h-167l-701 1678h169z" />
<glyph unicode="]" horiz-adv-x="848" d="M76 -109h405v1736h-405v138h561v-2013h-561v139z" />
<glyph unicode="^" horiz-adv-x="1206" d="M603 1443l-306 -520h-186l423 681h137l424 -681h-187z" />
<glyph unicode="_" horiz-adv-x="1093" d="M0 -313v134h1093v-134h-1093z" />
<glyph unicode="`" horiz-adv-x="489" d="M302 1280l-263 352h194l222 -352h-153z" />
<glyph unicode="a" d="M840 631v74q0 131 -71 198t-207 67q-66 0 -120 -19.5t-87.5 -53t-53.5 -71t-27 -79.5l-153 33q3 31 19 70.5t51.5 86.5t84 85.5t124.5 64.5t166 26q299 0 398 -226q33 -75 33 -181v-308q0 -275 18 -398h-160q-14 73 -14 192h-1q-137 -211 -369 -211q-164 0 -265.5 91 t-101.5 231v12q0 68 26.5 123.5t69.5 90.5t100.5 58.5t116.5 33.5t120 10h303zM840 499h-305q-49 0 -93 -8.5t-85.5 -28t-66.5 -57t-25 -89.5q0 -90 66.5 -142t167.5 -52q147 0 244 95t97 244v38z" />
<glyph unicode="b" horiz-adv-x="1378" d="M1276 548q0 -149 -62.5 -276.5t-182 -207.5t-270.5 -80q-269 0 -424 246v-230h-156v1668h159v-809q166 254 421 254q114 0 212 -48t163.5 -127.5t102.5 -181t37 -208.5zM730 124q175 0 279 120.5t104 299.5q0 115 -44.5 211t-133 155.5t-205.5 59.5q-110 0 -201 -59 t-141 -155t-50 -206q0 -173 111 -299.5t281 -126.5z" />
<glyph unicode="c" horiz-adv-x="1259" d="M264 552q0 -115 46.5 -211.5t138 -157t211.5 -60.5q69 0 127.5 20t96 48t68.5 67t46 68t27 60l148 -50q-19 -64 -61.5 -125t-105.5 -113.5t-154 -84.5t-194 -32q-157 0 -284 71.5t-200 200.5t-73 290q0 162 76.5 293.5t205 204t282.5 72.5q185 0 326 -102.5t176 -246.5 l-147 -48q-8 28 -25 59.5t-48 67t-70 63.5t-96 46.5t-122 18.5q-171 0 -283 -122t-112 -297z" />
<glyph unicode="d" horiz-adv-x="1378" d="M102 548q0 107 37 208.5t102.5 181t163 127.5t209.5 48q76 0 142 -20t117.5 -57t90 -78t74.5 -94v804h159v-1668h-157l1 234q-152 -250 -427 -250q-114 0 -211.5 46t-162.5 124t-101.5 180t-36.5 214zM647 124q112 0 203 60t140.5 157t49.5 209q0 108 -50 204t-141.5 156 t-201.5 60q-175 0 -278.5 -121.5t-103.5 -304.5q0 -114 44.5 -208.5t133 -153t204.5 -58.5z" />
<glyph unicode="e" horiz-adv-x="1244" d="M1147 497h-885q9 -160 120.5 -267t271.5 -107q123 0 211.5 60t126.5 174l142 -45q-47 -155 -179 -243t-299 -88q-156 0 -284 76t-199.5 206t-71.5 285q0 148 68 277.5t191.5 208.5t272.5 79q164 0 282.5 -74.5t176 -200t57.5 -287.5q0 -18 -2 -54zM264 633h723 q-16 153 -109 246t-245 93q-139 0 -244 -99.5t-125 -239.5z" />
<glyph unicode="f" horiz-adv-x="742" d="M602 1532q-33 0 -62.5 -10.5t-58 -34.5t-45 -72t-16.5 -114v-208h286v-139h-286v-954h-159v954h-210v139h210v203q0 184 92 280.5t243 96.5q63 0 120 -20v-136q-42 15 -114 15z" />
<glyph unicode="g" horiz-adv-x="1379" d="M1039 16v228q-149 -249 -424 -249q-152 0 -270.5 77.5t-180 203.5t-61.5 276q0 144 62.5 271.5t181.5 208.5t268 81q77 0 143.5 -20t118 -56.5t90 -78t74.5 -94.5v229h157v-1067q0 -280 -154.5 -426.5t-414.5 -146.5q-204 0 -347.5 107.5t-174.5 267.5l147 49 q8 -36 24 -72.5t47 -75.5t71 -68.5t100 -48.5t131 -19q87 0 159 23.5t130 72.5t90.5 132.5t32.5 194.5zM648 136q169 0 281 123.5t112 295.5q0 108 -50.5 203t-141.5 154t-201 59q-176 0 -279 -119.5t-103 -302.5q0 -114 44.5 -207t133 -149.5t204.5 -56.5z" />
<glyph unicode="h" horiz-adv-x="1295" d="M969 0v636q0 151 -77.5 241.5t-225.5 90.5q-142 0 -234 -99t-92 -246v-623h-159v1668h159v-771q131 217 374 217q197 0 305.5 -120.5t108.5 -317.5v-676h-159z" />
<glyph unicode="i" horiz-adv-x="522" d="M141 1485q0 50 35 85t85 35t85 -35t35 -85t-35 -85t-85 -35t-85 35t-35 85zM181 1093h160v-1093h-160v1093z" />
<glyph unicode="j" horiz-adv-x="538" d="M157 1485q0 50 35 85t85 35t85 -35t35 -85t-35 -85t-85 -35q-49 0 -84.5 35.5t-35.5 84.5zM357 1093v-1327q0 -152 -79 -232t-232 -80q-38 0 -102 16v132q36 -7 79 -7q84 0 129 45.5t45 129.5v1323h160z" />
<glyph unicode="k" horiz-adv-x="1116" d="M340 547v-547h-159v1669h159v-1020l520 444h227l-576 -491l603 -602h-224l-543 547h-7z" />
<glyph unicode="l" horiz-adv-x="522" d="M181 1669h160v-1669h-160v1669z" />
<glyph unicode="m" horiz-adv-x="1996" d="M926 0v642q0 144 -71 235t-211 91q-138 0 -221 -102t-83 -243v-623h-159v1093h156v-189q71 105 154 157.5t200 52.5q119 0 209.5 -56.5t140.5 -163.5q139 219 384 219q193 0 298.5 -120.5t105.5 -316.5v-676h-159v636q0 147 -70.5 239t-212.5 92q-140 0 -222 -97.5 t-82 -240.5v-629h-157z" />
<glyph unicode="n" horiz-adv-x="1295" d="M969 0v636q0 151 -77.5 241.5t-225.5 90.5q-142 0 -234 -99t-92 -246v-623h-159v1093h156v-200q130 221 377 221q197 0 305.5 -120.5t108.5 -317.5v-676h-159z" />
<glyph unicode="o" horiz-adv-x="1332" d="M663 -19q-155 0 -284.5 75t-203.5 204t-74 283q0 242 162.5 406t403.5 164q156 0 285.5 -74.5t204 -203.5t74.5 -284q0 -159 -75 -290t-205 -205.5t-288 -74.5zM667 123q173 0 287 123t114 297q0 176 -115 302.5t-290 126.5q-174 0 -286.5 -123t-112.5 -298 q0 -115 50.5 -212.5t143.5 -156.5t209 -59z" />
<glyph unicode="p" horiz-adv-x="1378" d="M1276 548q0 -149 -62.5 -276.5t-182 -207.5t-270.5 -80q-268 0 -421 241v-764h-159v1632h156v-237q168 257 424 257q114 0 212 -48t163.5 -127.5t102.5 -181t37 -208.5zM730 124q175 0 279 120.5t104 299.5q0 115 -44.5 211t-133 155.5t-205.5 59.5q-110 0 -201 -59 t-141 -155t-50 -206q0 -173 111 -299.5t281 -126.5z" />
<glyph unicode="q" horiz-adv-x="1378" d="M102 548q0 107 37 208.5t102.5 181t163 127.5t209.5 48q78 0 144.5 -20.5t118 -58.5t89.5 -79t74 -95v233h157v-1632h-159v769q-149 -246 -424 -246q-114 0 -211.5 46t-162.5 124t-101.5 180t-36.5 214zM647 124q112 0 203 60t140.5 157t49.5 209q0 108 -50 204 t-141.5 156t-201.5 60q-175 0 -278.5 -121.5t-103.5 -304.5q0 -114 44.5 -208.5t133 -153t204.5 -58.5z" />
<glyph unicode="r" horiz-adv-x="778" d="M337 1093v-216q40 81 101 135t123.5 76.5t128.5 22.5q37 0 54 -4v-169q-29 4 -62 4q-75 0 -134.5 -24t-98 -63.5t-63.5 -93t-35.5 -110t-10.5 -117.5v-534h-159v1093h156z" />
<glyph unicode="s" horiz-adv-x="1006" d="M902 311q0 -146 -113 -237.5t-275 -91.5q-85 0 -155.5 22.5t-115.5 57t-77.5 79.5t-47.5 85.5t-20 80.5l146 38q7 -40 25.5 -77.5t49.5 -71t81 -54t113 -20.5q93 0 160 48.5t67 131.5q0 65 -53.5 106t-125.5 57l-167 37q-272 60 -272 285q0 85 38 151.5t96.5 102.5 t119 54t116.5 18q80 0 146.5 -20.5t108.5 -52t73 -72.5t45.5 -77t20.5 -71l-145 -41q-8 32 -22.5 61.5t-42 61.5t-75 51.5t-108.5 19.5q-89 0 -150 -51t-61 -124q0 -64 42.5 -97.5t115.5 -50.5l177 -40q56 -13 105 -36.5t90.5 -59t65.5 -88t24 -115.5z" />
<glyph unicode="t" horiz-adv-x="779" d="M563 -9q-86 0 -148 22.5t-96.5 64t-50 92t-15.5 113.5v669h-202v141h202v316h159v-316h277v-141h-277v-665q0 -154 177 -154q59 0 99 8v-132q-52 -18 -125 -18z" />
<glyph unicode="u" horiz-adv-x="1294" d="M326 1093v-636q0 -151 77.5 -241.5t225.5 -90.5q141 0 233.5 99t92.5 246v623h158v-1093h-156v200q-130 -221 -376 -221q-196 0 -305 121t-109 317v676h159z" />
<glyph unicode="v" horiz-adv-x="1196" d="M513 0l-465 1093h176l375 -916l379 916h171l-467 -1093h-169z" />
<glyph unicode="w" horiz-adv-x="1774" d="M593 0h-175l-366 1093h169l287 -907h1l297 907h161l299 -908h1l290 908h165l-368 -1093h-178l-290 889h-1z" />
<glyph unicode="x" horiz-adv-x="1129" d="M563 445l-339 -445h-186l432 556l-416 537h188l324 -424l322 424h186l-415 -535l432 -558h-190z" />
<glyph unicode="y" horiz-adv-x="1216" d="M258 -539l283 613l-497 1019h183l401 -845l379 845h172l-748 -1632h-173z" />
<glyph unicode="z" horiz-adv-x="1053" d="M961 137v-137h-876v137l683 819h-667v137h858v-135l-683 -821h685z" />
<glyph unicode="{" horiz-adv-x="865" d="M45 689v141q60 1 108.5 14t91 42.5t60.5 85.5t7 134l-33 230q-13 73 -8 131.5t17.5 103.5t41.5 78t64 55.5t85 36t105 19.5t124 6h80v-139h-67q-149 0 -215.5 -35.5t-74 -109.5t10.5 -189l28 -187q6 -23 4 -55t-6 -66.5t-21 -71t-41 -67t-66.5 -54t-97.5 -33.5v-2 q55 -10 97.5 -31.5t67.5 -50.5t41.5 -61.5t22 -67.5t5.5 -65t-4 -58l-30 -198q-18 -115 -11 -189t74 -109.5t216 -35.5h67v-139h-80q-60 0 -109.5 4.5t-95 14.5t-80 26.5t-64.5 41t-47.5 57t-30 75t-11 95t8.5 117.5l33 229q9 64 -2 113t-35.5 79t-63 49t-78.5 27t-88 9z " />
<glyph unicode="|" horiz-adv-x="578" d="M211 1825h156v-2063h-156v2063z" />
<glyph unicode="}" horiz-adv-x="865" d="M820 830v-141q-48 -1 -88 -9t-78.5 -27t-63 -49t-35.5 -79t-2 -113l33 -229q18 -127 -1.5 -212.5t-79 -132.5t-142.5 -66.5t-205 -19.5h-81v139h68q148 0 214.5 35.5t74 109.5t-10.5 189l-29 198q-6 25 -4 57.5t6 66t21.5 67t42 61.5t67 50t97.5 32v2q-55 10 -97.5 33.5 t-66.5 54t-41.5 67t-21.5 71t-6 66.5t4 55l28 187q18 115 10.5 189t-74 109.5t-214.5 35.5h-68v139h81q69 0 123.5 -6t105 -19.5t85.5 -36t63.5 -55.5t41 -78t17.5 -103.5t-8 -131.5l-33 -230q-11 -78 7 -134t60.5 -85.5t91 -42.5t108.5 -14z" />
<glyph unicode="~" horiz-adv-x="1311" d="M882 470q-60 0 -127.5 28.5t-117 62.5t-109 62.5t-106.5 28.5q-49 0 -84 -22t-76 -67l-100 94q47 71 117.5 113.5t152.5 42.5q67 0 137 -28.5t118 -62.5t104.5 -62.5t100.5 -28.5q48 0 84.5 24t77.5 70l98 -94q-44 -74 -115 -117.5t-155 -43.5z" />
<glyph unicode="&#xa1;" horiz-adv-x="542" d="M151 993q0 50 35 85t85 35t85 -35t35 -85q0 -49 -35.5 -84.5t-84.5 -35.5q-50 0 -85 35t-35 85zM355 -227v-282h-169v282l10 857h149z" />
<glyph unicode="&#xa2;" horiz-adv-x="1276" d="M1034 386l148 -50q-17 -59 -55.5 -116.5t-95 -108t-137 -85.5t-172.5 -43v-192h-133v195q-210 26 -344 180.5t-134 376.5t136 378t342 186v197h133v-193q170 -14 296.5 -113.5t158.5 -233.5l-147 -48q-10 33 -32 69.5t-58.5 76t-94.5 69t-126 37.5v-842q58 7 108 29 t82.5 49.5t59.5 64t40.5 62.5t24.5 55zM274 552q0 -157 85.5 -276t232.5 -146v834q-142 -28 -230 -143t-88 -269z" />
<glyph unicode="&#xa3;" horiz-adv-x="1327" d="M1076 393l159 -16q0 -98 -43.5 -182t-134.5 -139.5t-213 -55.5h-720v156q112 56 185.5 169t73.5 236q0 67 -20 147h-233v154h182q-24 66 -37 105t-25 99t-12 112q0 125 64 227t171 158.5t233 56.5q208 0 327 -108t126 -280l-161 -28q-2 49 -16.5 91.5t-45 82.5 t-88.5 63.5t-137 23.5q-127 0 -213.5 -84t-86.5 -209q0 -18 2 -37.5t4.5 -35t9 -40.5t9.5 -36.5t13 -41.5l12.5 -37.5t14.5 -42t14 -39.5h449v-154h-401q19 -73 19 -138q0 -255 -203 -414h468q74 0 127 22.5t79 60.5t37 75.5t11 78.5z" />
<glyph unicode="&#xa4;" horiz-adv-x="1357" d="M1171 553q0 -163 -106 -291l172 -173l-99 -100l-178 178q-127 -84 -282 -84q-156 0 -280 85l-178 -179l-100 100l174 174q-103 127 -103 290q0 162 102 291l-173 173l100 100l177 -177q125 87 281 87t283 -86l177 176l99 -100l-172 -172q106 -128 106 -292zM341 553 q0 -144 95.5 -235.5t241.5 -91.5q147 0 244.5 91.5t97.5 235.5q0 145 -98 239t-244 94t-241.5 -94t-95.5 -239z" />
<glyph unicode="&#xa5;" horiz-adv-x="1510" d="M1335 278h-496v-278h-170v278h-495v136h495v203h-495v136h447l-543 851h203l476 -777l481 777h194l-546 -851h449v-136h-496v-203h496v-136z" />
<glyph unicode="&#xa6;" horiz-adv-x="572" d="M208 1026v799h156v-799h-156zM208 562h156v-800h-156v800z" />
<glyph unicode="&#xa7;" horiz-adv-x="1331" d="M233 1305q0 65 24.5 119t65 90t94 60.5t110.5 35.5t116 11q110 0 202 -32t150 -82.5t92.5 -106.5t44.5 -112l-145 -37q-20 90 -113.5 158t-234.5 68q-53 0 -104 -15t-92 -54.5t-41 -95.5q0 -68 70 -110t199 -75l199 -51q63 -16 112.5 -33t99.5 -42t82.5 -54.5t53 -71.5 t20.5 -91q0 -58 -26 -105.5t-70 -78.5t-94 -50.5t-106 -28.5q72 -36 118.5 -93t46.5 -129q0 -81 -37 -145t-97 -102.5t-131 -58t-145 -19.5q-116 0 -213 36.5t-158.5 94.5t-98.5 122t-48 128l145 37q11 -50 40.5 -97.5t75.5 -87.5t114 -64.5t147 -24.5q51 0 103.5 17.5 t93.5 59t41 97.5q0 26 -11 48.5t-34 41t-48.5 32.5t-65.5 28t-73 23.5t-83 22.5l-104 27q-61 16 -104.5 29t-96 33t-88 42.5t-67 51.5t-47 66.5t-15.5 82.5q0 58 26 106t70 78.5t94 50t107 28.5q-72 36 -119 93t-47 129zM829 607q107 0 175.5 45.5t68.5 110.5 q0 61 -70.5 107.5t-247.5 90.5q-143 35 -244 35q-107 0 -175.5 -45.5t-68.5 -110.5q0 -60 70.5 -106.5t247.5 -90.5q148 -36 244 -36z" />
<glyph unicode="&#xa8;" horiz-adv-x="684" d="M144 1277q-47 0 -84 36.5t-37 86.5t37 86.5t84 36.5t84 -36.5t37 -86.5t-37 -86.5t-84 -36.5zM534 1277q-47 0 -84 36.5t-37 86.5t37 86.5t84 36.5t84 -36.5t37 -86.5t-37 -86.5t-84 -36.5z" />
<glyph unicode="&#xa9;" horiz-adv-x="1847" d="M924 -16q-165 0 -315 64.5t-259 174t-173 261t-64 317.5q0 167 64 318.5t173 261.5t259 175t315 65t315 -65t258.5 -175t172.5 -261.5t64 -318.5q0 -166 -64 -317.5t-172.5 -261t-258.5 -174t-315 -64.5zM924 1523q-194 0 -356.5 -97t-255.5 -263t-93 -362 q0 -147 55 -280t148.5 -229t224.5 -153t277 -57q145 0 276 57t225 153t149 229t55 280q0 196 -93 362t-255.5 263t-356.5 97zM1390 614q-38 -127 -162.5 -222.5t-299.5 -95.5q-215 0 -358 142.5t-143 360.5q0 146 68.5 263.5t184.5 182.5t254 65q164 0 291 -90.5t159 -222.5 l-142 -46q-10 34 -32.5 69t-59.5 71t-95 58.5t-126 22.5q-149 0 -246.5 -106t-97.5 -259q0 -155 94 -263.5t250 -108.5q72 0 130.5 23.5t95 62t57 71.5t34.5 70z" />
<glyph unicode="&#xaa;" horiz-adv-x="1159" d="M820 920q-34 -64 -105 -102.5t-158 -38.5q-163 0 -267 116.5t-104 276.5q0 74 27.5 145t75 126.5t118 89.5t150.5 34q87 0 156 -41t107 -105h5v133h146v-765h-146v131h-5zM826 1174q0 103 -71 180.5t-173 77.5q-109 0 -177.5 -74.5t-68.5 -187.5q0 -107 70.5 -182.5 t175.5 -75.5t174.5 77.5t69.5 184.5zM943 564v-135h-777v135h777z" />
<glyph unicode="&#xab;" horiz-adv-x="1161" d="M466 987l98 -97l-260 -269l260 -271l-98 -96l-369 363zM918 987l97 -97l-260 -269l260 -271l-97 -96l-370 363z" />
<glyph unicode="&#xac;" horiz-adv-x="1349" d="M1027 920h-900v150h1052v-530h-152v380z" />
<glyph unicode="&#xad;" horiz-adv-x="893" d="M153 725h587v-169h-587v169z" />
<glyph unicode="&#xae;" horiz-adv-x="1260" d="M629 562q-141 0 -261 71t-189.5 192.5t-69.5 265.5q0 108 41 205.5t111 168t166 112.5t202 42q142 0 262 -71t190 -192.5t70 -264.5q0 -144 -70 -265.5t-190 -192.5t-262 -71zM629 1541q-180 0 -308 -132t-128 -318q0 -122 58.5 -226t159 -164.5t218.5 -60.5t219 60.5 t160 164.5t59 226q0 186 -128.5 318t-309.5 132zM636 1409q111 0 170 -55t59 -139q0 -73 -42 -120t-107 -64l176 -258h-122l-165 241h-82v-241h-102v636h215zM762 1213q0 41 -30 69t-100 28h-109v-199l108 1q68 1 99.5 30.5t31.5 70.5z" />
<glyph unicode="&#xb0;" horiz-adv-x="935" d="M466 903q-147 0 -251.5 104.5t-104.5 254.5q0 146 105 251t251 105q150 0 254.5 -105t104.5 -251q0 -151 -104 -255t-255 -104zM466 1482q-93 0 -156.5 -64t-63.5 -156t64 -157.5t156 -65.5q93 0 157.5 65.5t64.5 157.5q0 88 -66.5 154t-155.5 66z" />
<glyph unicode="&#xb1;" horiz-adv-x="1334" d="M589 1206h156v-371h444v-149h-444v-376h-156v376h-444v149h444v371zM149 20h1036v148h-1036v-148z" />
<glyph unicode="&#xb2;" horiz-adv-x="957" d="M136 916q0 32 6.5 62.5t15.5 55t27.5 50.5t33 44.5t42 41.5t43.5 36.5t49.5 35t49 31t52 31t48.5 28.5q77 46 117.5 93.5t40.5 104.5q0 67 -50.5 114.5t-130.5 47.5q-95 0 -142 -50t-54 -133l-137 21q4 59 26.5 111t62.5 93.5t103.5 65.5t142.5 24q141 0 231.5 -85 t90.5 -205q0 -82 -49 -158t-131 -127l-159 -98q-140 -85 -149 -149h494v-130h-674v44z" />
<glyph unicode="&#xb3;" horiz-adv-x="923" d="M800 1146q0 -89 -51.5 -158t-129.5 -103.5t-165 -34.5q-143 0 -236.5 81t-105.5 222l134 22q8 -93 62.5 -144t147.5 -51q80 0 140 48t60 126q0 72 -58.5 116.5t-132.5 44.5q-53 0 -93 -21l-68 108l317 273h-482v130h646v-152l-255 -219q116 -15 193 -94t77 -194z" />
<glyph unicode="&#xb4;" horiz-adv-x="491" d="M459 1632l-263 -352h-153l222 352h194z" />
<glyph unicode="&#xb5;" horiz-adv-x="1353" d="M362 457q0 -151 77.5 -241.5t225.5 -90.5q141 0 233.5 99t92.5 246v623h158v-1093h-156v200q-130 -221 -376 -221q-156 0 -257 79v-394h-157v1429h159v-636z" />
<glyph unicode="&#xb6;" horiz-adv-x="1038" d="M489 781q-170 0 -291 121t-121 292t120.5 290.5t291.5 119.5h317v-1604h-163v781h-154z" />
<glyph unicode="&#xb7;" horiz-adv-x="600" d="M153 648q0 61 43 104t104 43t104 -43t43 -104t-43 -104t-104 -43t-104 43t-43 104z" />
<glyph unicode="&#xb9;" horiz-adv-x="623" d="M454 1805v-933l-143 -1v780l-193 -112l-62 106l269 160h129z" />
<glyph unicode="&#xba;" horiz-adv-x="1137" d="M567 779q-166 0 -281.5 113.5t-115.5 277.5q0 169 115 283t285 114q167 0 282 -113.5t115 -277.5q0 -169 -115 -283t-285 -114zM567 1433q-107 0 -176.5 -74.5t-69.5 -182.5q0 -109 70.5 -186t178.5 -77q106 0 176.5 75t70.5 182q0 109 -71 186t-179 77zM957 564v-135 h-777v135h777z" />
<glyph unicode="&#xbb;" horiz-adv-x="1149" d="M146 350l260 265l-260 275l98 97l369 -370l-369 -363zM585 350l261 265l-261 275l98 97l369 -370l-369 -363z" />
<glyph unicode="&#xbc;" horiz-adv-x="1766" d="M328 1450l-193 -112l-62 105l269 161l129 -1v-933h-143v780zM1410 1604h-163l-1046 -1604h163zM1336 935l-477 -573v-158h509v-204h142v204h168v130h-168v601h-174zM1003 334l365 438v-438h-365z" />
<glyph unicode="&#xbd;" horiz-adv-x="1786" d="M329 1450l-193 -112l-62 105l269 161l129 -1v-933h-143v780zM345 0l1046 1604h-163l-1046 -1604h163zM1186 130q9 66 148 150l159 97q82 50 131 126.5t49 158.5q0 120 -90 205t-231 85q-155 0 -241 -84.5t-95 -209.5l138 -21q7 83 54 133t142 50q79 0 129.5 -47.5 t50.5 -113.5q0 -103 -157 -198q-14 -9 -48.5 -29.5t-51.5 -30.5t-49 -31t-49.5 -35t-44.5 -36.5t-41.5 -41t-33 -44.5t-27.5 -51t-15.5 -55.5t-6.5 -62.5v-44h674v130h-494z" />
<glyph unicode="&#xbe;" horiz-adv-x="1982" d="M781 945q0 -89 -51.5 -158t-129.5 -103.5t-165 -34.5q-143 0 -236.5 81t-105.5 222l134 22q9 -93 63 -144t147 -51q80 0 140 48t60 126q0 73 -58 117t-133 44q-53 0 -93 -21l-68 108l317 273h-482v130h646v-152l-255 -219q116 -15 193 -94t77 -194zM1634 1604 l-1046 -1604h-163l1046 1604h163zM1560 935h174v-601h169v-130h-169v-204h-141v204h-510v158zM1593 772l-365 -438h365v438z" />
<glyph unicode="&#xbf;" horiz-adv-x="1089" d="M698 993q0 -49 -35 -84.5t-85 -35.5t-85 35t-35 85t35 85t85 35t85 -35t35 -85zM493 630q-1 -56 -12 -99t-38.5 -83.5t-49 -64.5t-68.5 -71l-14 -14q-65 -65 -99.5 -103.5t-71.5 -90.5t-52.5 -103t-15.5 -109q0 -82 33.5 -158t93.5 -133.5t149.5 -92t194.5 -34.5 q126 0 234.5 56.5t174 160.5t65.5 232q0 16 -2 48l-164 7q9 -151 -74 -249t-234 -98q-147 0 -223.5 76.5t-76.5 185.5q0 34 9.5 67t21.5 57t37 55.5t41 48.5t48.5 49.5t46.5 47.5q9 10 38 39t42 43t37 43t36 52.5t26 55.5t20 67.5t6 75.5q0 12 -2 36h-157z" />
<glyph unicode="&#xc0;" horiz-adv-x="1588" d="M719 1751l-263 352h194l222 -352h-153zM1581 0h-178l-175 410h-873l-176 -410h-172l691 1604h191zM790 1430l-372 -867h745z" />
<glyph unicode="&#xc1;" horiz-adv-x="1588" d="M1132 2103l-263 -352h-153l222 352h194zM1581 0h-178l-175 410h-873l-176 -410h-172l691 1604h191zM790 1430l-372 -867h745z" />
<glyph unicode="&#xc2;" horiz-adv-x="1588" d="M868 2102l282 -353h-170l-186 242h-5l-183 -242h-171l274 353h159zM1581 0h-178l-175 410h-873l-176 -410h-172l691 1604h191zM790 1430l-372 -867h745z" />
<glyph unicode="&#xc3;" horiz-adv-x="1588" d="M929 1792q-40 0 -77 15.5t-61.5 34.5t-59.5 34.5t-71 15.5q-66 0 -82 -98h-115q1 103 49 169.5t147 66.5q44 0 91.5 -24.5t93.5 -49t87 -24.5q68 0 90 94h100q-2 -104 -47.5 -169t-144.5 -65zM1581 0h-178l-175 410h-873l-176 -410h-172l691 1604h191zM790 1430 l-372 -867h745z" />
<glyph unicode="&#xc4;" horiz-adv-x="1588" d="M585 1757q-47 0 -84 36.5t-37 86.5t37 86.5t84 36.5t84 -36.5t37 -86.5t-37 -86.5t-84 -36.5zM995 1757q-47 0 -84 36.5t-37 86.5t37 86.5t84 36.5t84 -36.5t37 -86.5t-37 -86.5t-84 -36.5zM1581 0h-178l-175 410h-873l-176 -410h-172l691 1604h191zM790 1430l-372 -867 h745z" />
<glyph unicode="&#xc5;" horiz-adv-x="1588" d="M652 1497q-67 36 -107 100t-40 141q0 111 84 191.5t201 80.5q119 0 203 -80t84 -192q0 -75 -39 -138.5t-104 -99.5l647 -1500h-178l-175 410h-873l-176 -410h-172zM790 1896q-69 0 -116.5 -45.5t-47.5 -112.5t47.5 -114.5t116.5 -47.5t117 47.5t48 114.5 q0 63 -49.5 110.5t-115.5 47.5zM1163 563l-373 867l-372 -867h745z" />
<glyph unicode="&#xc6;" horiz-adv-x="2145" d="M1177 1448v-555h764v-155h-764v-582h844l-1 -156h-1009v410h-613l-233 -410h-183l921 1604h1109l1 -156h-836zM484 563h527v890h-22z" />
<glyph unicode="&#xc7;" horiz-adv-x="1719" d="M1640 515q-18 -62 -49 -125t-87 -133.5t-127 -125.5t-174.5 -95.5t-222.5 -49.5q70 -87 70 -184q0 -139 -96.5 -220t-241.5 -81q-84 0 -154 23v126q69 -18 140 -18q100 0 154 51t54 143q0 89 -67 160q-153 12 -286.5 77t-231.5 169t-154 250.5t-56 314.5q0 178 65 333.5 t174.5 262t257.5 167.5t311 61q126 0 236.5 -34t189 -88t140 -124.5t97 -141t52.5 -140.5l-161 -57q-10 39 -29.5 85t-64.5 109t-103.5 112t-153.5 84t-207 35q-127 0 -242 -48t-200.5 -133t-135.5 -208t-50 -265q0 -188 81 -340t225 -238t323 -86q110 0 202 33t149.5 78.5 t104 110.5t68 111t38.5 97z" />
<glyph unicode="&#xc8;" horiz-adv-x="1360" d="M683 1751l-262 352h194l222 -352h-154zM1156 738h-764v-582h843v-156h-1012v1604h1004v-156h-835v-555h764v-155z" />
<glyph unicode="&#xc9;" horiz-adv-x="1360" d="M1037 2103l-263 -352h-153l222 352h194zM392 1448h835v156h-1004v-1604h1012v156h-843v582h764v155h-764v555z" />
<glyph unicode="&#xca;" horiz-adv-x="1360" d="M805 2102l282 -353h-170l-186 242h-5l-183 -242h-171l274 353h159zM1156 738h-764v-582h843v-156h-1012v1604h1004v-156h-835v-555h764v-155z" />
<glyph unicode="&#xcb;" horiz-adv-x="1359" d="M519 1757q-47 0 -84 36.5t-37 86.5t37 86.5t84 36.5t84 -36.5t37 -86.5t-37 -86.5t-84 -36.5zM929 1757q-47 0 -84 36.5t-37 86.5t37 86.5t84 36.5t84 -36.5t37 -86.5t-37 -86.5t-84 -36.5zM1155 738h-764v-582h843v-156h-1011v1604h1003v-156h-835v-555h764v-155z" />
<glyph unicode="&#xcc;" horiz-adv-x="614" d="M232 1751l-263 352h194l222 -352h-153zM391 0h-168v1604h168v-1604z" />
<glyph unicode="&#xcd;" horiz-adv-x="614" d="M645 2103l-263 -352h-153l222 352h194zM223 0h168v1604h-168v-1604z" />
<glyph unicode="&#xce;" horiz-adv-x="614" d="M383 2102l282 -353h-170l-186 242h-5l-183 -242h-171l274 353h159zM391 0h-168v1604h168v-1604z" />
<glyph unicode="&#xcf;" horiz-adv-x="614" d="M102 1757q-47 0 -84 36.5t-37 86.5t37 86.5t84 36.5t84 -36.5t37 -86.5t-37 -86.5t-84 -36.5zM512 1757q-47 0 -84 36.5t-37 86.5t37 86.5t84 36.5t84 -36.5t37 -86.5t-37 -86.5t-84 -36.5zM391 0h-168v1604h168v-1604z" />
<glyph unicode="&#xd0;" horiz-adv-x="1680" d="M723 1604q185 0 344 -61.5t269 -168t172 -254t62 -315.5q0 -234 -113.5 -419t-306 -285.5t-427.5 -100.5h-476v736h-217v157h217v711h476zM718 158q199 0 354 82.5t239.5 228.5t84.5 332q0 184 -82.5 330t-238 230.5t-359.5 84.5h-301v-553h392v-157h-392v-578h303z" />
<glyph unicode="&#xd1;" horiz-adv-x="1756" d="M1055 1792q-40 0 -77 15.5t-61.5 34.5t-59.5 34.5t-71 15.5q-66 0 -82 -98h-115q1 103 49 169.5t147 66.5q44 0 91.5 -24.5t93.5 -49t87 -24.5q68 0 90 94h100q-2 -104 -47.5 -169t-144.5 -65zM223 1604h197l947 -1348v1348h166v-1604h-184l-957 1365v-1365h-169v1604z " />
<glyph unicode="&#xd2;" horiz-adv-x="1834" d="M852 1751l-263 352h194l222 -352h-153zM1724 806q0 169 -61.5 319.5t-167.5 259t-256 172t-319 63.5q-228 0 -414 -109.5t-291 -298t-105 -415.5q0 -169 61.5 -319.5t168 -259t256.5 -172t319 -63.5q228 0 414 109.5t290.5 297.5t104.5 416zM1549 797 q0 -179 -79.5 -328.5t-224.5 -238.5t-325 -89q-182 0 -328.5 91t-226.5 242.5t-80 331.5q0 133 47 253.5t129 209.5t200.5 141.5t253.5 52.5q137 0 256 -53.5t201.5 -144t129.5 -212.5t47 -256z" />
<glyph unicode="&#xd3;" horiz-adv-x="1834" d="M1245 2103l-263 -352h-153l222 352h194zM1724 806q0 169 -61.5 319.5t-167.5 259t-256 172t-319 63.5q-228 0 -414 -109.5t-291 -298t-105 -415.5q0 -169 61.5 -319.5t168 -259t256.5 -172t319 -63.5q228 0 414 109.5t290.5 297.5t104.5 416zM1549 797 q0 -179 -79.5 -328.5t-224.5 -238.5t-325 -89q-182 0 -328.5 91t-226.5 242.5t-80 331.5q0 133 47 253.5t129 209.5t200.5 141.5t253.5 52.5q137 0 256 -53.5t201.5 -144t129.5 -212.5t47 -256z" />
<glyph unicode="&#xd4;" horiz-adv-x="1834" d="M992 2102l282 -353h-170l-186 242h-5l-183 -242h-170l273 353h159zM1724 806q0 169 -61.5 319.5t-167.5 259t-256 172t-319 63.5q-228 0 -414 -109.5t-291 -298t-105 -415.5q0 -169 61.5 -319.5t168 -259t256.5 -172t319 -63.5q228 0 414 109.5t290.5 297.5t104.5 416z M1549 797q0 -179 -79.5 -328.5t-224.5 -238.5t-325 -89q-182 0 -328.5 91t-226.5 242.5t-80 331.5q0 133 47 253.5t129 209.5t200.5 141.5t253.5 52.5q137 0 256 -53.5t201.5 -144t129.5 -212.5t47 -256z" />
<glyph unicode="&#xd5;" horiz-adv-x="1834" d="M1054 1792q-40 0 -77 15.5t-61.5 34.5t-59.5 34.5t-71 15.5q-66 0 -82 -98h-115q1 103 49 169.5t147 66.5q44 0 91.5 -24.5t93.5 -49t87 -24.5q68 0 90 94h100q-2 -104 -47.5 -169t-144.5 -65zM1724 806q0 -228 -104.5 -416t-290.5 -297.5t-414 -109.5q-169 0 -319 63.5 t-256.5 172t-168 259t-61.5 319.5q0 227 105 415.5t291 298t414 109.5q169 0 319 -63.5t256 -172t167.5 -259t61.5 -319.5zM1549 797q0 134 -47 256t-129.5 212.5t-201.5 144t-256 53.5q-135 0 -253.5 -52.5t-200.5 -141.5t-129 -209.5t-47 -253.5q0 -180 80 -331.5 t226.5 -242.5t328.5 -91q180 0 325 89t224.5 238.5t79.5 328.5z" />
<glyph unicode="&#xd6;" horiz-adv-x="1833" d="M714 1757q-47 0 -84 36.5t-37 86.5t37 86.5t84 36.5t84 -36.5t37 -86.5t-37 -86.5t-84 -36.5zM1124 1757q-47 0 -84 36.5t-37 86.5t37 86.5t84 36.5t84 -36.5t37 -86.5t-37 -86.5t-84 -36.5zM1723 806q0 169 -61.5 319.5t-167.5 259t-256 172t-319 63.5 q-228 0 -414 -109.5t-290.5 -298t-104.5 -415.5q0 -169 61.5 -319.5t167.5 -259t256 -172t319 -63.5q228 0 414 109.5t290.5 297.5t104.5 416zM1548 797q0 -179 -79.5 -328.5t-224.5 -238.5t-325 -89q-137 0 -256 53.5t-201.5 143.5t-129.5 212t-47 256q0 179 79.5 328.5 t224.5 239t325 89.5q137 0 256 -53.5t201.5 -144t129.5 -212.5t47 -256z" />
<glyph unicode="&#xd7;" horiz-adv-x="1274" d="M638 836l388 393l102 -104l-388 -389l388 -389l-102 -104l-388 391l-389 -391l-102 104l389 389l-389 389l102 104z" />
<glyph unicode="&#xd8;" horiz-adv-x="1844" d="M1526 1353q97 -109 150 -249.5t53 -297.5q0 -228 -104.5 -416t-290.5 -297.5t-414 -109.5q-280 0 -492 163l-210 -228l-104 100l207 227q-98 110 -151.5 251.5t-53.5 300.5q0 227 104.5 415.5t290.5 298t414 109.5q280 0 496 -168l209 229l104 -100zM291 806 q0 -250 146 -434l873 956q-167 135 -390 135q-180 0 -325 -89.5t-224.5 -239t-79.5 -328.5zM1554 797q0 246 -144 429l-872 -955q167 -130 387 -130q180 0 325 89t224.5 238.5t79.5 328.5z" />
<glyph unicode="&#xd9;" horiz-adv-x="1610" d="M740 1751l-263 352h194l222 -352h-153zM1408 627q0 -304 -158.5 -473.5t-444.5 -169.5q-287 0 -445 171.5t-158 460.5v988h169v-980q0 -127 33.5 -222t94.5 -150.5t139 -82.5t174 -27q206 0 317 124t111 349v989h168v-977z" />
<glyph unicode="&#xda;" horiz-adv-x="1610" d="M1133 2103l-263 -352h-153l222 352h194zM1240 615q0 -225 -111 -349t-317 -124q-96 0 -174 27t-139 82.5t-94.5 150.5t-33.5 222v980h-169v-988q0 -289 158 -460.5t445 -171.5q286 0 444.5 169.5t158.5 473.5v977h-168v-989z" />
<glyph unicode="&#xdb;" horiz-adv-x="1610" d="M880 2102l282 -353h-170l-186 242h-5l-183 -242h-170l273 353h159zM1408 627q0 -304 -158.5 -473.5t-444.5 -169.5q-287 0 -445 171.5t-158 460.5v988h169v-980q0 -127 33.5 -222t94.5 -150.5t139 -82.5t174 -27q206 0 317 124t111 349v989h168v-977z" />
<glyph unicode="&#xdc;" horiz-adv-x="1609" d="M600 1757q-47 0 -84 36.5t-37 86.5t37 86.5t84 36.5t84 -36.5t37 -86.5t-37 -86.5t-84 -36.5zM1010 1757q-47 0 -84 36.5t-37 86.5t37 86.5t84 36.5t84 -36.5t37 -86.5t-37 -86.5t-84 -36.5zM1407 627q0 -304 -158.5 -473.5t-444.5 -169.5q-287 0 -444.5 171.5 t-157.5 460.5v988h168v-980q0 -127 33.5 -222t94.5 -150.5t139 -82.5t174 -27q206 0 317 124t111 349v989h168v-977z" />
<glyph unicode="&#xdd;" horiz-adv-x="1519" d="M1088 2103l-263 -352h-153l222 352h194zM1274 1604l-511 -767l-507 767h-203l622 -928v-676h170v677l622 927h-193z" />
<glyph unicode="&#xde;" horiz-adv-x="1393" d="M1321 816q0 -104 -38 -193.5t-110 -158t-186 -107.5t-256 -39h-340v-318h-168v1604h168v-307l367 -1q140 0 250.5 -40t177 -107.5t101 -152t34.5 -180.5zM1151 810q0 50 -11.5 95t-41 88.5t-74 75t-116.5 51t-163 19.5h-354v-666h346q106 0 188.5 29.5t130 78.5t71.5 107 t24 122z" />
<glyph unicode="&#xdf;" horiz-adv-x="1304" d="M1236 297q0 -141 -105.5 -228t-253.5 -87q-85 0 -154.5 27.5t-111 72t-63.5 96.5t-23 105l147 37q1 -25 7 -49.5t21 -53t37 -49.5t59.5 -35t84.5 -14q77 0 135 44.5t58 121.5q0 42 -15 75t-51 60.5t-59 40.5t-74 37q-7 3 -10 5l-21 10q-100 48 -137 77q-86 70 -86 187 q0 34 7.5 64t24.5 56.5t31 44.5t42.5 41.5t41.5 33t45 32.5l24 17q34 24 54 40.5t43 42.5t33.5 56.5t10.5 67.5q0 118 -89.5 188.5t-212.5 70.5q-83 0 -148.5 -33.5t-106.5 -89.5t-62 -126t-21 -147v-1136h-157v1151q0 235 132.5 378.5t362.5 143.5q88 0 169.5 -24.5 t148.5 -71.5t107 -124t40 -174q0 -59 -16.5 -109t-47 -88t-59.5 -63t-69 -52l-22 -15q-80 -54 -109.5 -85.5t-29.5 -79.5q0 -31 10 -53t36.5 -41t51 -31t75.5 -34l21 -9q110 -47 182 -128.5t72 -193.5z" />
<glyph unicode="&#xe0;" d="M511 1280l-263 352h194l222 -352h-153zM840 705q0 131 -71 198t-207 67q-66 0 -120 -19.5t-87.5 -53t-53.5 -71t-27 -79.5l-153 33q3 31 19 70.5t51.5 86.5t84 85.5t124.5 64.5t166 26q299 0 398 -226q33 -75 33 -181v-308q0 -275 18 -398h-160q-14 73 -14 192h-1 q-137 -211 -369 -211q-164 0 -265.5 91t-101.5 231v12q0 68 26.5 123.5t69.5 90.5t100.5 58.5t116.5 33.5t120 10h303v74zM535 499q-49 0 -93 -8.5t-85.5 -28t-66.5 -57t-25 -89.5q0 -90 66.5 -142t167.5 -52q147 0 244 95t97 244v38h-305z" />
<glyph unicode="&#xe1;" d="M883 1632l-263 -352h-153l222 352h194zM840 705q0 131 -71 198t-207 67q-66 0 -120 -19.5t-87.5 -53t-53.5 -71t-27 -79.5l-153 33q3 31 19 70.5t51.5 86.5t84 85.5t124.5 64.5t166 26q299 0 398 -226q33 -75 33 -181v-308q0 -275 18 -398h-160q-14 73 -14 192h-1 q-137 -211 -369 -211q-164 0 -265.5 91t-101.5 231v12q0 68 26.5 123.5t69.5 90.5t100.5 58.5t116.5 33.5t120 10h303v74zM535 499q-49 0 -93 -8.5t-85.5 -28t-66.5 -57t-25 -89.5q0 -90 66.5 -142t167.5 -52q147 0 244 95t97 244v38h-305z" />
<glyph unicode="&#xe2;" d="M651 1633l282 -353h-170l-186 242h-5l-183 -242h-171l274 353h159zM840 705q0 131 -71 198t-207 67q-66 0 -120 -19.5t-87.5 -53t-53.5 -71t-27 -79.5l-153 33q3 31 19 70.5t51.5 86.5t84 85.5t124.5 64.5t166 26q299 0 398 -226q33 -75 33 -181v-308q0 -275 18 -398 h-160q-14 73 -14 192h-1q-137 -211 -369 -211q-164 0 -265.5 91t-101.5 231v12q0 68 26.5 123.5t69.5 90.5t100.5 58.5t116.5 33.5t120 10h303v74zM535 499q-49 0 -93 -8.5t-85.5 -28t-66.5 -57t-25 -89.5q0 -90 66.5 -142t167.5 -52q147 0 244 95t97 244v38h-305z" />
<glyph unicode="&#xe3;" d="M693 1280q-40 0 -77 15.5t-61.5 34.5t-59.5 34.5t-71 15.5q-66 0 -82 -98h-116q1 103 49 169.5t148 66.5q44 0 91.5 -24.5t93.5 -49t87 -24.5q68 0 90 94h100q-2 -104 -47.5 -169t-144.5 -65zM840 705q0 131 -71 198t-207 67q-66 0 -120 -19.5t-87.5 -53t-53.5 -71 t-27 -79.5l-153 33q3 31 19 70.5t51.5 86.5t84 85.5t124.5 64.5t166 26q299 0 398 -226q33 -75 33 -181v-308q0 -275 18 -398h-160q-14 73 -14 192h-1q-137 -211 -369 -211q-164 0 -265.5 91t-101.5 231v12q0 68 26.5 123.5t69.5 90.5t100.5 58.5t116.5 33.5t120 10h303v74z M535 499q-49 0 -93 -8.5t-85.5 -28t-66.5 -57t-25 -89.5q0 -90 66.5 -142t167.5 -52q147 0 244 95t97 244v38h-305z" />
<glyph unicode="&#xe4;" d="M373 1277q-47 0 -84 36.5t-37 86.5t37 86.5t84 36.5t84 -36.5t37 -86.5t-37 -86.5t-84 -36.5zM763 1277q-47 0 -84 36.5t-37 86.5t37 86.5t84 36.5t84 -36.5t37 -86.5t-37 -86.5t-84 -36.5zM537 631q-61 0 -120 -10t-116.5 -33.5t-100.5 -58.5t-69.5 -90.5t-26.5 -123.5 v-12q0 -140 101.5 -231t265.5 -91q232 0 369 211h1q0 -119 14 -192h160q-18 123 -18 398v308q0 106 -33 181q-99 226 -398 226q-90 0 -166 -26t-124.5 -64.5t-84 -85.5t-51.5 -86.5t-19 -70.5l153 -33q7 42 27 79.5t53.5 71t87.5 53t120 19.5q136 0 207 -67t71 -198v-74 h-303zM840 461q0 -149 -97 -244t-244 -95q-101 0 -167.5 52t-66.5 142q0 52 25 89.5t66.5 57t85.5 28t93 8.5h305v-38z" />
<glyph unicode="&#xe5;" d="M997 398q0 -275 18 -398h-160q-14 73 -14 192h-1q-137 -211 -369 -211q-164 0 -265.5 91t-101.5 231v12q0 68 26.5 123.5t69.5 90.5t100.5 58.5t116.5 33.5t120 10h303v74q0 131 -71 198t-207 67q-66 0 -120 -19.5t-87.5 -53t-53.5 -71t-27 -79.5l-153 33q4 40 28 91 t81.5 110.5t134.5 92.5q-85 79 -85 193q0 112 84 192t202 80q119 0 202.5 -80t83.5 -192q0 -110 -80 -190q133 -55 192 -190q33 -75 33 -181v-308zM566 1426q-70 0 -117.5 -46t-47.5 -113t48 -114t117 -47t116.5 47t47.5 114q0 63 -49.5 111t-114.5 48zM535 499 q-49 0 -93 -8.5t-85.5 -28t-66.5 -57t-25 -89.5q0 -90 66.5 -142t167.5 -52q147 0 244 95t97 244v38h-305z" />
<glyph unicode="&#xe6;" horiz-adv-x="1981" d="M844 705q0 131 -71.5 198t-207.5 67q-133 0 -205 -64.5t-88 -156.5l-151 31q3 31 19 70.5t52 86.5t84.5 85.5t125 64.5t166.5 26q148 0 248 -62t138 -166q65 104 177 166t242 62q245 0 379 -156.5t134 -405.5q0 -18 -2 -54h-887q5 -156 119.5 -265t274.5 -109 q123 0 211.5 60t126.5 174l142 -45q-47 -155 -180.5 -243t-299.5 -88q-148 0 -269 69t-194 187q-148 -256 -443 -256h-6q-167 0 -271 91t-104 231v12q0 85 39.5 148.5t105 98.5t138 51.5t150.5 16.5h307v75zM1725 633q-13 152 -107.5 245.5t-247.5 93.5 q-140 0 -248.5 -101.5t-123.5 -237.5h727zM535 499q-49 0 -93 -8.5t-85.5 -28t-66.5 -57t-25 -89.5q0 -90 67.5 -142t169.5 -52q147 0 244.5 95t97.5 244v38h-309z" />
<glyph unicode="&#xe7;" horiz-adv-x="1258" d="M1172 336q-17 -58 -54 -114.5t-91.5 -106t-131.5 -85t-165 -45.5q71 -86 71 -183q0 -139 -96.5 -220t-241.5 -81q-84 0 -154 23v126q67 -18 140 -18q100 0 153.5 51t53.5 143q0 90 -65 159q-215 23 -352.5 177.5t-137.5 380.5q0 162 76.5 293.5t205 204t281.5 72.5 q186 0 327 -102.5t176 -246.5l-147 -48q-8 28 -25 59.5t-48 67t-70 63.5t-96.5 46.5t-122.5 18.5q-171 0 -282.5 -122t-111.5 -297q0 -115 46 -211.5t137.5 -157t211.5 -60.5q69 0 127.5 20t96 48t68.5 67t46 68t27 60z" />
<glyph unicode="&#xe8;" horiz-adv-x="1244" d="M568 1280l-263 352h194l222 -352h-153zM262 497q9 -160 120.5 -267t271.5 -107q123 0 211.5 60t126.5 174l142 -45q-47 -155 -179 -243t-299 -88q-156 0 -284 76t-199.5 206t-71.5 285q0 148 68 277.5t191.5 208.5t272.5 79q164 0 282.5 -74.5t176 -200t57.5 -287.5 q0 -18 -2 -54h-885zM987 633q-16 153 -109 246t-245 93q-139 0 -244 -99.5t-125 -239.5h723z" />
<glyph unicode="&#xe9;" horiz-adv-x="1244" d="M959 1632l-263 -352h-153l222 352h194zM262 497q9 -160 120.5 -267t271.5 -107q123 0 211.5 60t126.5 174l142 -45q-47 -155 -179 -243t-299 -88q-156 0 -284 76t-199.5 206t-71.5 285q0 148 68 277.5t191.5 208.5t272.5 79q164 0 282.5 -74.5t176 -200t57.5 -287.5 q0 -18 -2 -54h-885zM987 633q-16 153 -109 246t-245 93q-139 0 -244 -99.5t-125 -239.5h723z" />
<glyph unicode="&#xea;" horiz-adv-x="1244" d="M715 1633l282 -353h-170l-186 242h-5l-183 -242h-171l274 353h159zM262 497q9 -160 120.5 -267t271.5 -107q123 0 211.5 60t126.5 174l142 -45q-47 -155 -179 -243t-299 -88q-156 0 -284 76t-199.5 206t-71.5 285q0 148 68 277.5t191.5 208.5t272.5 79q164 0 282.5 -74.5 t176 -200t57.5 -287.5q0 -18 -2 -54h-885zM987 633q-16 153 -109 246t-245 93q-139 0 -244 -99.5t-125 -239.5h723z" />
<glyph unicode="&#xeb;" horiz-adv-x="1244" d="M436 1277q-47 0 -84 36.5t-37 86.5t37 86.5t84 36.5t84 -36.5t37 -86.5t-37 -86.5t-84 -36.5zM826 1277q-47 0 -84 36.5t-37 86.5t37 86.5t84 36.5t84 -36.5t37 -86.5t-37 -86.5t-84 -36.5zM262 497q9 -160 120.5 -267t271.5 -107q123 0 211.5 60t126.5 174l142 -45 q-47 -155 -179 -243t-299 -88q-156 0 -284 76t-199.5 206t-71.5 285q0 148 68 277.5t191.5 208.5t272.5 79q164 0 282.5 -74.5t176 -200t57.5 -287.5q0 -18 -2 -54h-885zM987 633q-16 153 -109 246t-245 93q-139 0 -244 -99.5t-125 -239.5h723z" />
<glyph unicode="&#xec;" horiz-adv-x="522" d="M185 1280l-263 352h194l222 -352h-153zM341 0h-160v1093h160v-1093z" />
<glyph unicode="&#xed;" horiz-adv-x="522" d="M600 1632l-263 -352h-153l222 352h194zM181 0h160v1093h-160v-1093z" />
<glyph unicode="&#xee;" horiz-adv-x="522" d="M336 1633l282 -353h-170l-186 242h-5l-183 -242h-171l274 353h159zM341 0h-160v1093h160v-1093z" />
<glyph unicode="&#xef;" horiz-adv-x="522" d="M71 1277q-47 0 -84 36.5t-37 86.5t37 86.5t84 36.5t84 -36.5t37 -86.5t-37 -86.5t-84 -36.5zM452 1277q-47 0 -84 36.5t-37 86.5t37 86.5t84 36.5t84 -36.5t37 -86.5t-37 -86.5t-84 -36.5zM341 0h-160v1093h160v-1093z" />
<glyph unicode="&#xf0;" horiz-adv-x="1343" d="M1118 1473l-207 -97q151 -147 231.5 -341.5t80.5 -422.5q0 -284 -159.5 -457t-408.5 -173q-117 0 -220.5 42.5t-176 116t-114.5 174.5t-42 215q0 106 41 202t111.5 166.5t171 112.5t213.5 42q33 0 75.5 -8t100 -27.5t119 -62.5t110.5 -103l5 2q-58 273 -281 459 l-354 -166l-49 119l290 131q-142 93 -331 149l61 129q234 -70 418 -205l264 125zM662 121q107 0 199.5 56.5t146 149.5t53.5 197q0 99 -37 172q-51 99 -152 161.5t-221 62.5q-169 0 -278 -116.5t-109 -281.5q0 -104 50 -195.5t142.5 -148.5t205.5 -57z" />
<glyph unicode="&#xf1;" horiz-adv-x="1297" d="M793 1280q-40 0 -77 15.5t-61.5 34.5t-59.5 34.5t-71 15.5q-66 0 -82 -98h-115q1 103 49 169.5t147 66.5q44 0 91.5 -24.5t93.5 -49t87 -24.5q68 0 90 94h100q-2 -104 -47.5 -169t-144.5 -65zM971 636q0 151 -77.5 241.5t-225.5 90.5q-142 0 -234 -99t-92 -246v-623h-161 v1093h158v-200q130 221 377 221q197 0 305.5 -120.5t108.5 -317.5v-676h-159v636z" />
<glyph unicode="&#xf2;" horiz-adv-x="1332" d="M594 1280l-263 352h194l222 -352h-153zM663 -19q-155 0 -284.5 75t-203.5 204t-74 283q0 242 162.5 406t403.5 164q156 0 285.5 -74.5t204 -203.5t74.5 -284q0 -159 -75 -290t-205 -205.5t-288 -74.5zM667 123q173 0 287 123t114 297q0 176 -115 302.5t-290 126.5 q-174 0 -286.5 -123t-112.5 -298q0 -115 50.5 -212.5t143.5 -156.5t209 -59z" />
<glyph unicode="&#xf3;" horiz-adv-x="1332" d="M1005 1632l-263 -352h-153l222 352h194zM663 -19q-155 0 -284.5 75t-203.5 204t-74 283q0 242 162.5 406t403.5 164q156 0 285.5 -74.5t204 -203.5t74.5 -284q0 -159 -75 -290t-205 -205.5t-288 -74.5zM667 123q173 0 287 123t114 297q0 176 -115 302.5t-290 126.5 q-174 0 -286.5 -123t-112.5 -298q0 -115 50.5 -212.5t143.5 -156.5t209 -59z" />
<glyph unicode="&#xf4;" horiz-adv-x="1332" d="M744 1633l282 -353h-170l-186 242h-5l-183 -242h-170l273 353h159zM663 -19q-155 0 -284.5 75t-203.5 204t-74 283q0 242 162.5 406t403.5 164q156 0 285.5 -74.5t204 -203.5t74.5 -284q0 -159 -75 -290t-205 -205.5t-288 -74.5zM667 123q173 0 287 123t114 297 q0 176 -115 302.5t-290 126.5q-174 0 -286.5 -123t-112.5 -298q0 -115 50.5 -212.5t143.5 -156.5t209 -59z" />
<glyph unicode="&#xf5;" horiz-adv-x="1332" d="M806 1280q-40 0 -77 15.5t-61.5 34.5t-59.5 34.5t-71 15.5q-66 0 -82 -98h-115q1 103 49 169.5t147 66.5q44 0 91.5 -24.5t93.5 -49t87 -24.5q68 0 90 94h100q-2 -104 -47.5 -169t-144.5 -65zM663 -19q-155 0 -284.5 75t-203.5 204t-74 283q0 242 162.5 406t403.5 164 q156 0 285.5 -74.5t204 -203.5t74.5 -284q0 -159 -75 -290t-205 -205.5t-288 -74.5zM667 123q173 0 287 123t114 297q0 176 -115 302.5t-290 126.5q-174 0 -286.5 -123t-112.5 -298q0 -115 50.5 -212.5t143.5 -156.5t209 -59z" />
<glyph unicode="&#xf6;" horiz-adv-x="1332" d="M472 1277q-47 0 -84 36.5t-37 86.5t37 86.5t84 36.5t84 -36.5t37 -86.5t-37 -86.5t-84 -36.5zM862 1277q-47 0 -84 36.5t-37 86.5t37 86.5t84 36.5t84 -36.5t37 -86.5t-37 -86.5t-84 -36.5zM663 -19q-155 0 -284.5 75t-203.5 204t-74 283q0 242 162.5 406t403.5 164 q156 0 285.5 -74.5t204 -203.5t74.5 -284q0 -159 -75 -290t-205 -205.5t-288 -74.5zM667 123q173 0 287 123t114 297q0 176 -115 302.5t-290 126.5q-174 0 -286.5 -123t-112.5 -298q0 -115 50.5 -212.5t143.5 -156.5t209 -59z" />
<glyph unicode="&#xf7;" horiz-adv-x="1261" d="M754 1173q0 -51 -36 -88t-87 -37q-52 0 -88.5 37t-36.5 88t36.5 88t88.5 37q51 0 87 -37t36 -88zM144 699h973v157h-973v-157zM754 384q0 -51 -36 -88t-87 -37q-52 0 -88.5 37t-36.5 88t36.5 88t88.5 37q51 0 87 -37t36 -88z" />
<glyph unicode="&#xf8;" horiz-adv-x="1340" d="M1098 919q137 -156 137 -368q0 -159 -74.5 -290t-205 -205.5t-288.5 -74.5q-183 0 -329 106l-138 -151l-94 87l138 150q-138 159 -138 370q0 119 43.5 225t118 181.5t179.5 119.5t224 44q184 0 332 -108l140 153l94 -87zM267 551q0 -146 82 -263l555 607q-103 78 -236 78 q-116 0 -208.5 -57.5t-142.5 -153.5t-50 -211zM1074 543q0 146 -82 261l-556 -606q103 -77 235 -77q173 0 288 123.5t115 298.5z" />
<glyph unicode="&#xf9;" horiz-adv-x="1295" d="M576 1280l-263 352h194l222 -352h-153zM167 417q0 -197 109 -317.5t306 -120.5q246 0 376 221v-200h156v1093h-158v-623q0 -147 -92 -246t-234 -99q-148 0 -225.5 90.5t-77.5 241.5v636h-160v-676z" />
<glyph unicode="&#xfa;" horiz-adv-x="1295" d="M979 1632l-263 -352h-153l222 352h194zM327 457q0 -151 77.5 -241.5t225.5 -90.5q142 0 234 99t92 246v623h158v-1093h-156v200q-130 -221 -376 -221q-197 0 -306 120.5t-109 317.5v676h160v-636z" />
<glyph unicode="&#xfb;" horiz-adv-x="1295" d="M716 1633l282 -353h-170l-186 242h-5l-183 -242h-170l273 353h159zM167 417q0 -197 109 -317.5t306 -120.5q246 0 376 221v-200h156v1093h-158v-623q0 -147 -92 -246t-234 -99q-148 0 -225.5 90.5t-77.5 241.5v636h-160v-676z" />
<glyph unicode="&#xfc;" horiz-adv-x="1294" d="M445 1277q-47 0 -84 36.5t-37 86.5t37 86.5t84 36.5t84 -36.5t37 -86.5t-37 -86.5t-84 -36.5zM835 1277q-47 0 -84 36.5t-37 86.5t37 86.5t84 36.5t84 -36.5t37 -86.5t-37 -86.5t-84 -36.5zM167 417q0 -197 108.5 -317.5t305.5 -120.5q246 0 376 221v-200h156v1093h-158 v-623q0 -147 -92.5 -246t-233.5 -99q-148 0 -225.5 90.5t-77.5 241.5v636h-159v-676z" />
<glyph unicode="&#xfd;" horiz-adv-x="1218" d="M821 1632l-263 -352h-153l222 352h194zM1181 1093l-748 -1632h-173l283 613l-499 1019h184l402 -845l379 845h172z" />
<glyph unicode="&#xfe;" horiz-adv-x="1297" d="M339 923q54 85 151.5 136t195.5 51q114 0 211 -47.5t161 -126.5t100 -180t36 -208q0 -111 -36 -213t-100 -181t-161 -126t-211 -47q-103 0 -194.5 49t-152.5 143v-612h-158v2107h158v-745zM321 548q0 -110 40 -203t122.5 -153t192.5 -60q83 0 152.5 37.5t113.5 97.5 t68 133.5t24 147.5q0 76 -24 148.5t-68 131t-113.5 94.5t-152.5 36q-166 0 -260.5 -116t-94.5 -294z" />
<glyph unicode="&#xff;" horiz-adv-x="1216" d="M425 1277q-47 0 -84 36.5t-37 86.5t37 86.5t84 36.5t84 -36.5t37 -86.5t-37 -86.5t-84 -36.5zM815 1277q-47 0 -84 36.5t-37 86.5t37 86.5t84 36.5t84 -36.5t37 -86.5t-37 -86.5t-84 -36.5zM431 -539l748 1632h-172l-379 -845l-401 845h-183l497 -1019l-283 -613h173z " />
<glyph unicode="&#x100;" horiz-adv-x="1588" d="M448 1811v144h690v-144h-690zM1581 0h-178l-175 410h-873l-176 -410h-172l691 1604h191zM790 1430l-372 -867h745z" />
<glyph unicode="&#x101;" d="M210 1311v144h692v-144h-692zM840 705q0 131 -71 198t-207 67q-66 0 -120 -19.5t-87.5 -53t-53.5 -71t-27 -79.5l-153 33q3 31 19 70.5t51.5 86.5t84 85.5t124.5 64.5t166 26q299 0 398 -226q33 -75 33 -181v-308q0 -275 18 -398h-160q-14 73 -14 192h-1 q-137 -211 -369 -211q-164 0 -265.5 91t-101.5 231v12q0 68 26.5 123.5t69.5 90.5t100.5 58.5t116.5 33.5t120 10h303v74zM535 499q-49 0 -93 -8.5t-85.5 -28t-66.5 -57t-25 -89.5q0 -90 66.5 -142t167.5 -52q147 0 244 95t97 244v38h-305z" />
<glyph unicode="&#x102;" horiz-adv-x="1588" d="M794 1751q-85 0 -157.5 37t-122 117.5t-53.5 190.5h126q5 -99 60.5 -158t146.5 -59q89 0 145 57.5t63 159.5h123q-4 -156 -99 -250.5t-232 -94.5zM1581 0h-178l-175 410h-873l-176 -410h-172l691 1604h191zM790 1430l-372 -867h745z" />
<glyph unicode="&#x103;" d="M558 1276q-86 0 -158.5 37t-122.5 117.5t-54 190.5h126q5 -99 61.5 -158t147.5 -59q89 0 145 57.5t63 159.5h123q-4 -156 -99 -250.5t-232 -94.5zM840 705q0 131 -71 198t-207 67q-66 0 -120 -19.5t-87.5 -53t-53.5 -71t-27 -79.5l-153 33q3 31 19 70.5t51.5 86.5 t84 85.5t124.5 64.5t166 26q299 0 398 -226q33 -75 33 -181v-308q0 -275 18 -398h-160q-14 73 -14 192h-1q-137 -211 -369 -211q-164 0 -265.5 91t-101.5 231v12q0 68 26.5 123.5t69.5 90.5t100.5 58.5t116.5 33.5t120 10h303v74zM535 499q-49 0 -93 -8.5t-85.5 -28 t-66.5 -57t-25 -89.5q0 -90 66.5 -142t167.5 -52q147 0 244 95t97 244v38h-305z" />
<glyph unicode="&#x104;" horiz-adv-x="1588" d="M1618 -494q-25 -5 -59 -5q-113 0 -193 59.5t-80 167.5q0 130 178 272h-61l-175 410h-873l-176 -410h-172l691 1604h191l692 -1604q-56 -48 -98.5 -112t-42.5 -124q0 -75 50 -106t128 -29v-123zM790 1430l-372 -867h745z" />
<glyph unicode="&#x105;" d="M1051 -494q-25 -5 -59 -5q-113 0 -193 59.5t-80 167.5q0 130 178 272h-42q-14 73 -14 192h-1q-137 -211 -369 -211q-164 0 -265.5 91t-101.5 231v12q0 68 26.5 123.5t69.5 90.5t100.5 58.5t116.5 33.5t120 10h303v74q0 131 -71 198t-207 67q-66 0 -120 -19.5t-87.5 -53 t-53.5 -71t-27 -79.5l-153 33q3 31 19 70.5t51.5 86.5t84 85.5t124.5 64.5t166 26q299 0 398 -226q33 -75 33 -181v-308q0 -282 17 -398q-56 -48 -98.5 -112t-42.5 -124q0 -75 50 -106t128 -29v-123zM535 499q-49 0 -93 -8.5t-85.5 -28t-66.5 -57t-25 -89.5q0 -90 66.5 -142 t167.5 -52q147 0 244 95t97 244v38h-305z" />
<glyph unicode="&#x106;" horiz-adv-x="1720" d="M1254 2103l-263 -352h-153l222 352h194zM911 -17q-165 0 -312 60t-254.5 165.5t-170.5 258.5t-63 330q0 178 65 333.5t174.5 262t257.5 167.5t311 61q126 0 237 -34t189.5 -88t140 -124.5t97 -141t52.5 -140.5l-161 -57q-10 39 -29.5 85t-64.5 109t-103.5 112t-153.5 84 t-208 35q-127 0 -242 -48t-200 -133t-135.5 -208t-50.5 -265q0 -188 81 -340t225.5 -238t323.5 -86q110 0 202 33t149.5 78.5t104 110.5t68 111t38.5 97l162 -58q-19 -65 -53 -131.5t-95.5 -140.5t-140 -130t-193.5 -93t-248 -37z" />
<glyph unicode="&#x107;" horiz-adv-x="1269" d="M1001 1632l-263 -352h-155l224 352h194zM271 552q0 -115 46.5 -211.5t139 -157t213.5 -60.5q69 0 127.5 20t96 48t68.5 67t46 68t27 60l148 -50q-19 -64 -61.5 -125t-105.5 -113.5t-154 -84.5t-194 -32q-119 0 -223.5 42t-180 116t-119.5 179t-44 225q0 162 78.5 293.5 t209.5 204t286 72.5q185 0 326 -102.5t176 -246.5l-147 -48q-8 28 -25 59.5t-48 67t-70 63.5t-96 46.5t-122 18.5q-114 0 -206 -57t-142 -152.5t-50 -209.5z" />
<glyph unicode="&#x108;" horiz-adv-x="1720" d="M993 2102l282 -353h-170l-186 242h-5l-183 -242h-170l273 353h159zM911 -17q133 0 248 37t193.5 93t140 130t95.5 140.5t53 131.5l-162 58q-17 -51 -38.5 -97t-68 -111t-104 -110.5t-149.5 -78.5t-202 -33q-179 0 -323.5 86t-225.5 238t-81 340q0 142 50.5 265t135.5 208 t200 133t242 48q113 0 208 -35t153.5 -84t103.5 -112t64.5 -109t29.5 -85l161 57q-17 70 -52.5 140.5t-97 141t-140 124.5t-189.5 88t-237 34q-163 0 -311 -61t-257.5 -167.5t-174.5 -262t-65 -333.5q0 -177 63 -330t170.5 -258.5t254.5 -165.5t312 -60z" />
<glyph unicode="&#x109;" horiz-adv-x="1269" d="M751 1633l282 -353h-170l-186 242h-5l-184 -242h-171l275 353h159zM271 552q0 114 50 209.5t142 152.5t206 57q80 0 147.5 -27t109.5 -69.5t67.5 -82t36.5 -76.5l147 48q-35 144 -176 246.5t-326 102.5q-155 0 -286 -72.5t-209.5 -204t-78.5 -293.5q0 -120 44 -225 t119.5 -179t180 -116t223.5 -42q103 0 194 32t154 84.5t105.5 113.5t61.5 125l-148 50q-13 -32 -27.5 -60t-46 -67.5t-68.5 -67.5t-95.5 -48t-127.5 -20q-121 0 -213.5 60.5t-139 157t-46.5 211.5z" />
<glyph unicode="&#x10a;" horiz-adv-x="1720" d="M918 1756q-48 0 -85.5 37t-37.5 89q0 51 37.5 88t85.5 37t85.5 -37t37.5 -88q0 -52 -37.5 -89t-85.5 -37zM911 -17q133 0 248 37t193.5 93t140 130t95.5 140.5t53 131.5l-162 58q-17 -51 -38.5 -97t-68 -111t-104 -110.5t-149.5 -78.5t-202 -33q-179 0 -323.5 86 t-225.5 238t-81 340q0 142 50.5 265t135.5 208t200 133t242 48q113 0 208 -35t153.5 -84t103.5 -112t64.5 -109t29.5 -85l161 57q-17 70 -52.5 140.5t-97 141t-140 124.5t-189.5 88t-237 34q-163 0 -311 -61t-257.5 -167.5t-174.5 -262t-65 -333.5q0 -177 63 -330 t170.5 -258.5t254.5 -165.5t312 -60z" />
<glyph unicode="&#x10b;" horiz-adv-x="1267" d="M672 1277q-48 0 -85.5 37t-37.5 89q0 51 37.5 88t85.5 37t85.5 -37t37.5 -88q0 -52 -37.5 -89t-85.5 -37zM269 552q0 114 50 209.5t142 152.5t206 57q65 0 122 -18.5t96 -46.5t70 -63.5t48 -67t25 -59.5l147 48q-35 144 -176 246.5t-326 102.5q-155 0 -285.5 -72.5 t-208.5 -204t-78 -293.5q0 -121 43.5 -225.5t118.5 -178.5t179.5 -116t223.5 -42q103 0 194 32t154 84.5t105.5 113.5t61.5 125l-148 50q-12 -31 -27 -60t-46 -68t-68.5 -67t-96 -48t-127.5 -20q-121 0 -213.5 60.5t-139 157t-46.5 211.5z" />
<glyph unicode="&#x10c;" horiz-adv-x="1720" d="M1276 2107l-282 -353h-159l-274 353h171l183 -242h5l186 242h170zM911 -17q-165 0 -312 60t-254.5 165.5t-170.5 258.5t-63 330q0 178 65 333.5t174.5 262t257.5 167.5t311 61q126 0 237 -34t189.5 -88t140 -124.5t97 -141t52.5 -140.5l-161 -57q-10 39 -29.5 85 t-64.5 109t-103.5 112t-153.5 84t-208 35q-127 0 -242 -48t-200 -133t-135.5 -208t-50.5 -265q0 -188 81 -340t225.5 -238t323.5 -86q110 0 202 33t149.5 78.5t104 110.5t68 111t38.5 97l162 -58q-19 -65 -53 -131.5t-95.5 -140.5t-140 -130t-193.5 -93t-248 -37z" />
<glyph unicode="&#x10d;" horiz-adv-x="1267" d="M866 1633h170l-282 -353h-159l-275 353h171l184 -242h5zM269 552q0 -115 46.5 -211.5t139 -157t213.5 -60.5q69 0 127.5 20t96 48t68.5 67t46 68t27 60l148 -50q-19 -64 -61.5 -125t-105.5 -113.5t-154 -84.5t-194 -32q-119 0 -223.5 42t-179.5 116t-118.5 178.5 t-43.5 225.5q0 162 78 293.5t208.5 204t285.5 72.5q185 0 326 -102.5t176 -246.5l-147 -48q-8 28 -25 59.5t-48 67t-70 63.5t-96 46.5t-122 18.5q-114 0 -206 -57t-142 -152.5t-50 -209.5z" />
<glyph unicode="&#x10e;" horiz-adv-x="1657" d="M1071 2107l-282 -353h-159l-273 353h170l183 -242h5l186 242h170zM700 0q175 0 330.5 59t269.5 163.5t180.5 255.5t66.5 327q0 168 -62.5 315.5t-173 254t-269 168t-342.5 61.5h-477v-1604h477zM696 1446q153 0 281.5 -49t215.5 -135t135 -205t48 -256q0 -186 -84.5 -332 t-239.5 -228.5t-354 -82.5h-303v1288h301z" />
<glyph unicode="&#x10f;" horiz-adv-x="1418" d="M1553 1669l-70 -459h-136l30 459h176zM102 548q0 -112 36.5 -214t101.5 -180t162.5 -124t211.5 -46q275 0 427 250l-1 -234h157v1668h-159v-804q-36 53 -74.5 94t-90 78t-117.5 57t-142 20q-112 0 -209.5 -48t-163 -127.5t-102.5 -181t-37 -208.5zM647 124 q-116 0 -204.5 58.5t-133 153t-44.5 208.5q0 183 103.5 304.5t278.5 121.5q110 0 201.5 -60t141.5 -156t50 -204q0 -112 -49.5 -209t-140.5 -157t-203 -60z" />
<glyph unicode="&#x110;" horiz-adv-x="1680" d="M723 1604q185 0 344 -61.5t269 -168t172 -254t62 -315.5q0 -234 -113.5 -419t-306 -285.5t-427.5 -100.5h-476v736h-217v157h217v711h476zM718 158q199 0 354 82.5t239.5 228.5t84.5 332q0 184 -82.5 330t-238 230.5t-359.5 84.5h-301v-553h392v-157h-392v-578h303z" />
<glyph unicode="&#x111;" horiz-adv-x="1377" d="M1334 1298h-138v-1298h-156v234q-150 -250 -427 -250q-152 0 -270 79t-179.5 206.5t-61.5 278.5q0 144 62 272t181.5 210.5t268.5 82.5q145 0 246 -68t177 -181v434h-398v142h398v228h159v-228h138v-142zM647 124q112 0 203 60t140.5 157t49.5 209q0 108 -50 204 t-141.5 156t-201.5 60q-117 0 -205 -57.5t-132.5 -153t-44.5 -215.5q0 -114 44.5 -208.5t133 -153t204.5 -58.5z" />
<glyph unicode="&#x112;" horiz-adv-x="1362" d="M385 1811v144h690v-144h-690zM394 1448h835v156h-1006v-1604h1014v156h-843v582h764v155h-764v555z" />
<glyph unicode="&#x113;" horiz-adv-x="1244" d="M285 1311v144h692v-144h-692zM262 497q9 -160 120.5 -267t271.5 -107q123 0 211.5 60t126.5 174l142 -45q-47 -155 -179 -243t-299 -88q-156 0 -284 76t-199.5 206t-71.5 285q0 148 68 277.5t191.5 208.5t272.5 79q164 0 282.5 -74.5t176 -200t57.5 -287.5q0 -18 -2 -54 h-885zM987 633q-16 153 -109 246t-245 93q-139 0 -244 -99.5t-125 -239.5h723z" />
<glyph unicode="&#x116;" horiz-adv-x="1360" d="M729 1756q-48 0 -85.5 37t-37.5 89q0 51 37.5 88t85.5 37t85.5 -37t37.5 -88q0 -52 -37.5 -89t-85.5 -37zM1156 738h-764v-582h843v-156h-1012v1604h1004v-156h-835v-555h764v-155z" />
<glyph unicode="&#x117;" horiz-adv-x="1244" d="M642 1277q-48 0 -85.5 37t-37.5 89q0 51 37.5 88t85.5 37t85.5 -37t37.5 -88q0 -52 -37.5 -89t-85.5 -37zM262 497q9 -160 120.5 -267t271.5 -107q123 0 211.5 60t126.5 174l142 -45q-47 -155 -179 -243t-299 -88q-156 0 -284 76t-199.5 206t-71.5 285q0 148 68 277.5 t191.5 208.5t272.5 79q164 0 282.5 -74.5t176 -200t57.5 -287.5q0 -18 -2 -54h-885zM987 633q-16 153 -109 246t-245 93q-139 0 -244 -99.5t-125 -239.5h723z" />
<glyph unicode="&#x118;" horiz-adv-x="1361" d="M1273 -494q-24 -5 -59 -5q-113 0 -192.5 59.5t-79.5 167.5q0 131 177 272h-896v1604h1005v-156h-835v-555h764v-155h-764v-582h843v-156q-56 -48 -98 -112.5t-42 -123.5q0 -75 49.5 -106t127.5 -29v-123z" />
<glyph unicode="&#x119;" horiz-adv-x="1244" d="M262 497q9 -160 120.5 -267t271.5 -107q123 0 211.5 60t126.5 174l142 -45q-36 -119 -125 -200t-209 -113q-56 -49 -98 -112.5t-42 -122.5q0 -75 50 -106t128 -29v-123q-24 -5 -59 -5q-113 0 -192.5 59.5t-79.5 167.5q0 123 155 253h-6q-156 0 -284 76t-199.5 206 t-71.5 285q0 148 68 277.5t191.5 208.5t272.5 79q164 0 282.5 -74.5t176 -200t57.5 -287.5q0 -18 -2 -54h-885zM987 633q-16 153 -109 246t-245 93q-139 0 -244 -99.5t-125 -239.5h723z" />
<glyph unicode="&#x11a;" horiz-adv-x="1362" d="M1087 2107l-282 -353h-159l-273 353h169l184 -242h5l186 242h170zM394 1448h835v156h-1006v-1604h1014v156h-843v582h764v155h-764v555z" />
<glyph unicode="&#x11b;" horiz-adv-x="1244" d="M825 1633h170l-282 -353h-159l-275 353h171l184 -242h5zM262 497q9 -160 120.5 -267t271.5 -107q123 0 211.5 60t126.5 174l142 -45q-47 -155 -179 -243t-299 -88q-156 0 -284 76t-199.5 206t-71.5 285q0 148 68 277.5t191.5 208.5t272.5 79q164 0 282.5 -74.5t176 -200 t57.5 -287.5q0 -18 -2 -54h-885zM987 633q-16 153 -109 246t-245 93q-139 0 -244 -99.5t-125 -239.5h723z" />
<glyph unicode="&#x11c;" horiz-adv-x="1760" d="M1000 2102l282 -353h-170l-186 242h-5l-183 -242h-170l273 353h159zM1630 1143q-33 98 -92 181t-145 151t-207.5 106.5t-263.5 38.5q-227 0 -413.5 -109t-292.5 -297.5t-106 -416.5q0 -171 58 -320.5t161.5 -258.5t255.5 -171.5t331 -62.5q171 0 313 57.5t236.5 156.5 t146.5 232t52 285v61h-849v-156h670q-7 -111 -56 -202.5t-127 -151.5t-176.5 -92.5t-205.5 -32.5q-115 0 -216 34t-177 95.5t-131 144t-83 182.5t-28 209q0 131 47.5 251t129.5 210t200.5 143.5t253.5 53.5q102 0 190.5 -27.5t147.5 -68t105.5 -94t71 -99t38.5 -89.5z" />
<glyph unicode="&#x11d;" horiz-adv-x="1379" d="M730 1633l282 -353h-170l-186 242h-5l-184 -242h-171l275 353h159zM1039 244q-149 -249 -424 -249q-152 0 -270.5 77.5t-180 203.5t-61.5 276q0 144 62.5 271.5t181.5 208.5t268 81q77 0 143.5 -20t118 -56.5t90 -78t74.5 -94.5v229h157v-1067q0 -280 -154.5 -426.5 t-414.5 -146.5q-204 0 -347.5 107.5t-174.5 267.5l147 49q8 -36 24 -72.5t47 -75.5t71 -68.5t100 -48.5t131 -19q87 0 159 23.5t130 72.5t90.5 132.5t32.5 194.5v228zM648 136q169 0 281 123.5t112 295.5q0 108 -50.5 203t-141.5 154t-201 59q-176 0 -279 -119.5 t-103 -302.5q0 -114 44.5 -207t133 -149.5t204.5 -56.5z" />
<glyph unicode="&#x11e;" horiz-adv-x="1760" d="M926 1751q-85 0 -157.5 37t-122 117.5t-53.5 190.5h126q5 -99 60.5 -158t146.5 -59q89 0 145 57.5t63 159.5h123q-4 -156 -99 -250.5t-232 -94.5zM1469 1086q-14 44 -38.5 89.5t-71 99t-105.5 94t-147.5 68t-190.5 27.5q-135 0 -253.5 -53.5t-200.5 -143.5t-129.5 -210 t-47.5 -251q0 -109 28 -209t83 -182.5t131 -144t177 -95.5t216 -34q107 0 205.5 32.5t176.5 92.5t127 151.5t56 202.5h-670v156h849v-61q0 -152 -52 -285t-146.5 -232t-236.5 -156.5t-313 -57.5q-179 0 -331 62.5t-255.5 171.5t-161.5 258.5t-58 320.5q0 228 106 416.5 t292.5 297.5t413.5 109q142 0 263.5 -38.5t207.5 -106.5t145 -151t92 -181z" />
<glyph unicode="&#x11f;" horiz-adv-x="1379" d="M656 1276q-86 0 -158.5 37t-122.5 117.5t-54 190.5h126q5 -99 61.5 -158t147.5 -59q89 0 145 57.5t63 159.5h123q-4 -156 -99 -250.5t-232 -94.5zM1039 244q-149 -249 -424 -249q-152 0 -270.5 77.5t-180 203.5t-61.5 276q0 144 62.5 271.5t181.5 208.5t268 81 q77 0 143.5 -20t118 -56.5t90 -78t74.5 -94.5v229h157v-1067q0 -280 -154.5 -426.5t-414.5 -146.5q-204 0 -347.5 107.5t-174.5 267.5l147 49q8 -36 24 -72.5t47 -75.5t71 -68.5t100 -48.5t131 -19q87 0 159 23.5t130 72.5t90.5 132.5t32.5 194.5v228zM648 136 q169 0 281 123.5t112 295.5q0 108 -50.5 203t-141.5 154t-201 59q-176 0 -279 -119.5t-103 -302.5q0 -114 44.5 -207t133 -149.5t204.5 -56.5z" />
<glyph unicode="&#x120;" horiz-adv-x="1756" d="M935 1756q-48 0 -85.5 37t-37.5 89q0 51 37.5 88t85.5 37t85.5 -37t37.5 -88q0 -52 -37.5 -89t-85.5 -37zM1465 1086q-14 44 -38.5 89.5t-71 99t-105.5 94t-147.5 68t-190.5 27.5q-179 0 -324.5 -91.5t-224.5 -241.5t-79 -325q0 -136 44 -257t124 -212t200.5 -143.5 t263.5 -52.5q107 0 205.5 32.5t176.5 92.5t127 151.5t56 202.5h-670v156h849v-61q0 -152 -52 -285t-146.5 -232t-236.5 -156.5t-313 -57.5q-179 0 -330 62.5t-254 171.5t-160.5 258.5t-57.5 320.5q0 228 105 416.5t290.5 297.5t412.5 109q142 0 263.5 -38.5t207.5 -106.5 t145 -151t92 -181z" />
<glyph unicode="&#x121;" horiz-adv-x="1379" d="M651 1277q-48 0 -85.5 37t-37.5 89q0 51 37.5 88t85.5 37t85.5 -37t37.5 -88q0 -52 -37.5 -89t-85.5 -37zM1039 244q-149 -249 -424 -249q-152 0 -270.5 77.5t-180 203.5t-61.5 276q0 144 62.5 271.5t181.5 208.5t268 81q77 0 143.5 -20t118 -56.5t90 -78t74.5 -94.5v229 h157v-1067q0 -280 -154.5 -426.5t-414.5 -146.5q-204 0 -347.5 107.5t-174.5 267.5l147 49q8 -36 24 -72.5t47 -75.5t71 -68.5t100 -48.5t131 -19q87 0 159 23.5t130 72.5t90.5 132.5t32.5 194.5v228zM648 136q169 0 281 123.5t112 295.5q0 108 -50.5 203t-141.5 154 t-201 59q-176 0 -279 -119.5t-103 -302.5q0 -114 44.5 -207t133 -149.5t204.5 -56.5z" />
<glyph unicode="&#x122;" horiz-adv-x="1756" d="M1465 1086q-14 44 -38.5 89.5t-71 99t-105.5 94t-147.5 68t-190.5 27.5q-179 0 -324.5 -91.5t-224.5 -241.5t-79 -325q0 -136 44 -257t124 -212t200.5 -143.5t263.5 -52.5q107 0 205.5 32.5t176.5 92.5t127 151.5t56 202.5h-670v156h849v-61q0 -152 -52 -285t-146.5 -232 t-236.5 -156.5t-313 -57.5q-179 0 -330 62.5t-254 171.5t-160.5 258.5t-57.5 320.5q0 228 105 416.5t290.5 297.5t412.5 109q142 0 263.5 -38.5t207.5 -106.5t145 -151t92 -181zM773 -592q55 10 95.5 63t41.5 114q-20 -11 -43 -11q-48 0 -78.5 32t-30.5 81q0 48 35.5 80.5 t83.5 32.5q62 0 96 -46.5t34 -110.5q0 -116 -62 -202.5t-172 -101.5v69z" />
<glyph unicode="&#x123;" horiz-adv-x="1379" d="M761 1649q-55 -11 -95.5 -64t-41.5 -114q18 11 44 11q48 0 78.5 -32.5t30.5 -80.5t-35.5 -80t-83.5 -32q-62 0 -96.5 46.5t-34.5 110.5q0 115 62 202t172 102v-69zM1039 244q-149 -249 -424 -249q-152 0 -270.5 77.5t-180 203.5t-61.5 276q0 144 62.5 271.5t181.5 208.5 t268 81q77 0 143.5 -20t118 -56.5t90 -78t74.5 -94.5v229h157v-1067q0 -280 -154.5 -426.5t-414.5 -146.5q-204 0 -347.5 107.5t-174.5 267.5l147 49q8 -36 24 -72.5t47 -75.5t71 -68.5t100 -48.5t131 -19q87 0 159 23.5t130 72.5t90.5 132.5t32.5 194.5v228zM648 136 q169 0 281 123.5t112 295.5q0 108 -50.5 203t-141.5 154t-201 59q-176 0 -279 -119.5t-103 -302.5q0 -114 44.5 -207t133 -149.5t204.5 -56.5z" />
<glyph unicode="&#x126;" horiz-adv-x="1712" d="M399 0h-168v1190h-180v149h180v265h168v-265h914v265h168v-265h179v-149h-179v-1190h-168v734h-914v-734zM399 1190v-296h914v296h-914z" />
<glyph unicode="&#x127;" horiz-adv-x="1295" d="M969 636q0 151 -77.5 241.5t-225.5 90.5q-142 0 -234 -99t-92 -246v-623h-159v1298h-137v142h137v228h159v-228h399v-142h-399v-401q131 217 374 217q197 0 305.5 -120.5t108.5 -317.5v-676h-159v636z" />
<glyph unicode="&#x128;" horiz-adv-x="614" d="M445 1792q-40 0 -77 15.5t-61.5 34.5t-59.5 34.5t-71 15.5q-66 0 -82 -98h-116q1 103 49.5 169.5t147.5 66.5q44 0 91.5 -24.5t93.5 -49t87 -24.5q68 0 90 94h100q-2 -104 -47.5 -169t-144.5 -65zM223 0h168v1604h-168v-1604z" />
<glyph unicode="&#x129;" horiz-adv-x="522" d="M398 1280q-40 0 -77 15.5t-61.5 34.5t-59.5 34.5t-71 15.5q-66 0 -82 -98h-115q1 103 49 169.5t147 66.5q44 0 91.5 -24.5t93.5 -49t87 -24.5q68 0 90 94h100q-2 -104 -47.5 -169t-144.5 -65zM181 0h160v1093h-160v-1093z" />
<glyph unicode="&#x12a;" horiz-adv-x="614" d="M2 1810v145h610v-145h-610zM223 0h168v1604h-168v-1604z" />
<glyph unicode="&#x12b;" horiz-adv-x="522" d="M-41 1311v144h605v-144h-605zM181 0h160v1093h-160v-1093z" />
<glyph unicode="&#x12c;" horiz-adv-x="614" d="M308 1751q-85 0 -157.5 37t-122 117.5t-53.5 190.5h126q5 -99 60.5 -158t146.5 -59q89 0 145 57.5t63 159.5h123q-4 -156 -99 -250.5t-232 -94.5zM223 0h168v1604h-168v-1604z" />
<glyph unicode="&#x12d;" horiz-adv-x="522" d="M263 1276q-86 0 -158.5 37t-122.5 117.5t-54 190.5h126q5 -99 61.5 -158t147.5 -59q89 0 145 57.5t63 159.5h123q-4 -156 -99 -250.5t-232 -94.5zM181 0h160v1093h-160v-1093z" />
<glyph unicode="&#x12e;" horiz-adv-x="614" d="M428 -494q-24 -5 -59 -5q-113 0 -192.5 59.5t-79.5 167.5q0 131 177 272h-51v1604h168v-1604q-56 -48 -98 -112.5t-42 -123.5q0 -139 177 -135v-123z" />
<glyph unicode="&#x12f;" horiz-adv-x="522" d="M261 1365q-50 0 -85 35t-35 85t35 85t85 35t85 -35t35 -85t-35 -85t-85 -35zM201 -236q0 -139 177 -135v-123q-24 -5 -59 -5q-113 0 -192.5 59.5t-79.5 167.5q0 131 177 272h-43v1093h160v-1093q-56 -48 -98 -112.5t-42 -123.5z" />
<glyph unicode="&#x130;" horiz-adv-x="614" d="M307 1756q-48 0 -85.5 37t-37.5 89q0 51 37.5 88t85.5 37t85.5 -37t37.5 -88q0 -52 -37.5 -89t-85.5 -37zM391 0h-168v1604h168v-1604z" />
<glyph unicode="&#x131;" horiz-adv-x="522" d="M341 0h-160v1093h160v-1093z" />
<glyph unicode="&#x132;" horiz-adv-x="1397" d="M1192 500q0 -224 -137.5 -370t-350.5 -146q-229 0 -365.5 139.5t-136.5 372.5v75h169v-69q0 -91 28 -162t75.5 -113t104.5 -63.5t120 -21.5q140 0 232.5 101.5t92.5 250.5v1110h168v-1104zM202 809v795h169v-795h-169z" />
<glyph unicode="&#x136;" horiz-adv-x="1387" d="M1355 1604l-786 -768l824 -836h-238l-752 772h-12v-772h-168v1604h168v-709h11l719 709h234zM608 -592q55 10 95.5 63t40.5 114q-18 -11 -43 -11q-48 0 -78.5 32t-30.5 81q0 48 35.5 80.5t83.5 32.5q62 0 96.5 -46.5t34.5 -110.5q0 -116 -62 -202.5t-172 -101.5v69z" />
<glyph unicode="&#x137;" horiz-adv-x="1116" d="M860 1093h227l-576 -491l603 -602h-224l-543 547h-7v-547h-159v1669h159v-1020zM477 -592q55 10 95.5 63t40.5 114q-18 -11 -43 -11q-48 0 -78.5 32t-30.5 81q0 48 35.5 80.5t83.5 32.5q62 0 96.5 -46.5t34.5 -110.5q0 -116 -62 -202.5t-172 -101.5v69z" />
<glyph unicode="&#x139;" horiz-adv-x="1194" d="M652 2103l-263 -352h-153l222 352h194zM1152 158h-761v1446h-168v-1604h929v158z" />
<glyph unicode="&#x13a;" horiz-adv-x="523" d="M603 2163l-263 -352h-154l223 352h194zM181 0h161v1669h-161v-1669z" />
<glyph unicode="&#x13b;" horiz-adv-x="1194" d="M223 1604h168v-1446h761v-158h-929v1604zM556 -592q55 10 95.5 63t41.5 114q-20 -11 -43 -11q-48 0 -78.5 32t-30.5 81q0 48 35.5 80.5t83.5 32.5q62 0 96 -46.5t34 -110.5q0 -116 -62 -202.5t-172 -101.5v69z" />
<glyph unicode="&#x13c;" horiz-adv-x="522" d="M341 0h-160v1669h160v-1669zM141 -592q55 10 95.5 63t40.5 114q-18 -11 -43 -11q-48 0 -78.5 32t-30.5 81q0 48 35.5 80.5t83.5 32.5q62 0 96.5 -46.5t34.5 -110.5q0 -116 -62 -202.5t-172 -101.5v69z" />
<glyph unicode="&#x13d;" horiz-adv-x="1238" d="M1161 1649l-70 -459h-135l30 459h175zM1152 158h-761v1446h-168v-1604h929v158z" />
<glyph unicode="&#x13e;" horiz-adv-x="562" d="M341 0h-160v1669h160v-1669zM625 1210l70 459h-175l-30 -459h135z" />
<glyph unicode="&#x13f;" horiz-adv-x="1227" d="M223 1604h168v-1446h761v-158h-929v1604zM910 775q0 50 35 85t85 35t85 -35t35 -85t-35 -85t-85 -35t-85 35t-35 85z" />
<glyph unicode="&#x140;" horiz-adv-x="761" d="M341 0h-160v1669h160v-1669zM516 775q0 50 35 85t85 35t85 -35t35 -85t-35 -85t-85 -35t-85 35t-35 85z" />
<glyph unicode="&#x141;" horiz-adv-x="1229" d="M424 1604v-674l453 232v-163l-453 -232v-609h760v-158h-928v681l-214 -109v163l214 109v760h168z" />
<glyph unicode="&#x142;" horiz-adv-x="729" d="M450 1669v-780l210 157v-168l-210 -154v-724h-161v604l-208 -156v169l208 153v899h161z" />
<glyph unicode="&#x143;" horiz-adv-x="1754" d="M1085 2103l-263 -352h-153l222 352h194zM223 1604h195l947 -1348v1348h166v-1604h-184l-957 1365v-1365h-167v1604z" />
<glyph unicode="&#x144;" horiz-adv-x="1299" d="M995 1632l-263 -352h-153l222 352h194zM973 636q0 151 -77.5 241.5t-225.5 90.5q-142 0 -236 -99t-94 -246v-623h-159v1093h156v-200q136 221 381 221q197 0 305.5 -120.5t108.5 -317.5v-676h-159v636z" />
<glyph unicode="&#x145;" horiz-adv-x="1753" d="M223 1604h194l947 -1348v1348h166v-1604h-184l-957 1365v-1365h-166v1604zM766 -592q55 10 95.5 63t41.5 114q-20 -11 -43 -11q-48 0 -78.5 32t-30.5 81q0 48 35.5 80.5t83.5 32.5q62 0 96 -46.5t34 -110.5q0 -116 -62 -202.5t-172 -101.5v69z" />
<glyph unicode="&#x146;" horiz-adv-x="1295" d="M969 636q0 151 -77.5 241.5t-225.5 90.5q-142 0 -234 -99t-92 -246v-623h-159v1093h156v-200q130 221 377 221q197 0 305.5 -120.5t108.5 -317.5v-676h-159v636zM544 -592q56 10 96 63t41 114q-20 -11 -43 -11q-48 0 -78.5 32t-30.5 81q0 48 35.5 80.5t83.5 32.5 q62 0 96 -46.5t34 -110.5q0 -116 -62 -202.5t-172 -101.5v69z" />
<glyph unicode="&#x147;" horiz-adv-x="1754" d="M1234 2103l-282 -353h-159l-273 353h170l183 -242h5l186 242h170zM223 1604h195l947 -1348v1348h166v-1604h-184l-957 1365v-1365h-167v1604z" />
<glyph unicode="&#x148;" horiz-adv-x="1299" d="M845 1633h170l-282 -353h-159l-276 353h173l183 -242h5zM973 636q0 151 -77.5 241.5t-225.5 90.5q-142 0 -236 -99t-94 -246v-623h-159v1093h156v-200q136 221 381 221q197 0 305.5 -120.5t108.5 -317.5v-676h-159v636z" />
<glyph unicode="&#x14a;" horiz-adv-x="1753" d="M389 1368v-1368h-166v1604h194l947 -1331v1331h166v-1859q0 -132 -74 -211.5t-243 -79.5q-73 0 -125 18v132q40 -8 99 -8q177 0 177 154v247z" />
<glyph unicode="&#x14b;" horiz-adv-x="1295" d="M969 636q0 151 -77.5 241.5t-225.5 90.5q-142 0 -234 -99t-92 -246v-623h-159v1093h156v-200q130 221 377 221q197 0 305.5 -120.5t108.5 -317.5v-931q0 -291 -310 -291q-73 0 -125 18v132q40 -8 99 -8q177 0 177 154v886z" />
<glyph unicode="&#x14c;" horiz-adv-x="1834" d="M572 1811v144h690v-144h-690zM1724 806q0 169 -61.5 319.5t-167.5 259t-256 172t-319 63.5q-228 0 -414 -109.5t-291 -298t-105 -415.5q0 -169 61.5 -319.5t168 -259t256.5 -172t319 -63.5q228 0 414 109.5t290.5 297.5t104.5 416zM1549 797q0 -179 -79.5 -328.5 t-224.5 -238.5t-325 -89q-182 0 -328.5 91t-226.5 242.5t-80 331.5q0 179 79.5 328.5t224.5 239t326 89.5q137 0 256 -53.5t201.5 -144t129.5 -212.5t47 -256z" />
<glyph unicode="&#x14d;" horiz-adv-x="1332" d="M322 1311v144h693v-144h-693zM663 -19q-155 0 -284.5 75t-203.5 204t-74 283q0 242 162.5 406t403.5 164q156 0 285.5 -74.5t204 -203.5t74.5 -284q0 -159 -75 -290t-205 -205.5t-288 -74.5zM667 123q173 0 287 123t114 297q0 176 -115 302.5t-290 126.5 q-174 0 -286.5 -123t-112.5 -298q0 -115 50.5 -212.5t143.5 -156.5t209 -59z" />
<glyph unicode="&#x150;" horiz-adv-x="1833" d="M1080 2103l-263 -352h-152l221 352h194zM1433 2103l-263 -352h-152l221 352h194zM1723 806q0 -228 -104.5 -416t-290.5 -297.5t-414 -109.5q-169 0 -319 63.5t-256 172t-167.5 259t-61.5 319.5q0 227 104.5 415.5t290.5 298t414 109.5q169 0 319 -63.5t256 -172 t167.5 -259t61.5 -319.5zM1548 797q0 134 -47 256t-129.5 212.5t-201.5 144t-256 53.5q-180 0 -325 -89.5t-224.5 -239t-79.5 -328.5q0 -134 47 -256t129.5 -212t201.5 -143.5t256 -53.5q180 0 325 89t224.5 238.5t79.5 328.5z" />
<glyph unicode="&#x151;" horiz-adv-x="1332" d="M831 1632l-263 -352h-152l221 352h194zM1184 1632l-263 -352h-152l221 352h194zM663 -19q158 0 288 74.5t205 205.5t75 290q0 155 -74.5 284t-204 203.5t-285.5 74.5q-241 0 -403.5 -164t-162.5 -406q0 -154 74 -283t203.5 -204t284.5 -75zM667 123q-116 0 -209 59 t-143.5 156.5t-50.5 212.5q0 175 112.5 298t286.5 123q175 0 290 -126.5t115 -302.5q0 -174 -114 -297t-287 -123z" />
<glyph unicode="&#x152;" horiz-adv-x="2685" d="M915 -15q-169 0 -319 63t-256 170.5t-167.5 257t-61.5 316.5v17q0 167 63.5 317t171.5 258t258 171.5t316 63.5q395 0 626 -337h3v322h1003v-156h-835v-555h764v-155h-764v-582h843v-156h-1011v322h-4q-229 -337 -630 -337zM920 143q135 0 253.5 51.5t200.5 138.5 t129 205.5t47 248.5v23q0 131 -47 250t-128.5 207.5t-200.5 141t-255 52.5q-182 0 -328 -88.5t-225.5 -237t-79.5 -325.5v-15q0 -132 47 -251.5t129.5 -208t201.5 -140.5t256 -52z" />
<glyph unicode="&#x153;" horiz-adv-x="2201" d="M1221 497q8 -160 119 -267t271 -107q123 0 211.5 60t126.5 174l142 -45q-47 -155 -179 -243t-299 -88q-153 0 -277.5 76t-193.5 204q-75 -129 -200.5 -204.5t-278.5 -75.5q-155 0 -284.5 75t-203.5 204t-74 283q0 242 162.5 406t403.5 164q153 0 278 -75t200 -207 q66 131 183 206.5t262 75.5q164 0 282.5 -74.5t176 -200t57.5 -287.5q0 -18 -2 -54h-883zM667 123q172 0 284 122.5t112 297.5q0 177 -113 303t-287 126t-286.5 -123t-112.5 -298q0 -115 50.5 -212.5t143.5 -156.5t209 -59zM1944 633q-16 153 -109 246t-245 93 q-139 0 -243 -99.5t-124 -239.5h721z" />
<glyph unicode="&#x154;" horiz-adv-x="1475" d="M799 2103h194l-263 -352h-153zM779 1604q142 0 252 -37.5t176.5 -103t100.5 -148.5t34 -179q0 -99 -35 -181.5t-96 -138.5t-139.5 -91.5t-169.5 -47.5l494 -677h-204l-474 649h-327v-649h-168v1604h556zM764 802q105 0 185.5 28t127.5 75.5t70.5 104.5t23.5 120 q0 50 -12.5 94t-42 85.5t-74.5 71t-115.5 47.5t-159.5 18h-376v-644h373z" />
<glyph unicode="&#x155;" horiz-adv-x="778" d="M791 1632l-263 -352h-153l222 352h194zM340 534q0 61 10.5 117.5t35.5 110t63.5 93t98 63.5t134.5 24q33 0 62 -4v169q-17 4 -54 4q-66 0 -128.5 -22.5t-123.5 -76.5t-101 -135v216h-156v-1093h159v534z" />
<glyph unicode="&#x156;" horiz-adv-x="1475" d="M779 1604q142 0 252 -37.5t176.5 -103t100.5 -148.5t34 -179q0 -99 -35 -181.5t-96 -138.5t-139.5 -91.5t-169.5 -47.5l494 -677h-204l-474 649h-327v-649h-168v1604h556zM764 802q105 0 185.5 28t127.5 75.5t70.5 104.5t23.5 120q0 50 -12.5 94t-42 85.5t-74.5 71 t-115.5 47.5t-159.5 18h-376v-644h373zM566 -592q55 10 95.5 63t41.5 114q-20 -11 -43 -11q-48 0 -78.5 32t-30.5 81q0 48 35.5 80.5t83.5 32.5q62 0 96 -46.5t34 -110.5q0 -116 -62 -202.5t-172 -101.5v69z" />
<glyph unicode="&#x157;" horiz-adv-x="778" d="M337 877q40 81 101 135t123.5 76.5t128.5 22.5q37 0 54 -4v-169q-29 4 -62 4q-75 0 -134.5 -24t-98 -63.5t-63.5 -93t-35.5 -110t-10.5 -117.5v-534h-159v1093h156v-216zM181 -592q55 10 95.5 63t41.5 114q-20 -11 -44 -11q-48 0 -78.5 32t-30.5 81q0 48 35.5 80.5 t83.5 32.5q62 0 96.5 -46.5t34.5 -110.5q0 -116 -62 -202.5t-172 -101.5v69z" />
<glyph unicode="&#x158;" horiz-adv-x="1475" d="M1143 2107l-282 -353h-159l-274 353h171l183 -242h5l186 242h170zM779 1604q142 0 252 -37.5t176.5 -103t100.5 -148.5t34 -179q0 -99 -35 -181.5t-96 -138.5t-139.5 -91.5t-169.5 -47.5l494 -677h-204l-474 649h-327v-649h-168v1604h556zM764 802q105 0 185.5 28 t127.5 75.5t70.5 104.5t23.5 120q0 50 -12.5 94t-42 85.5t-74.5 71t-115.5 47.5t-159.5 18h-376v-644h373z" />
<glyph unicode="&#x159;" horiz-adv-x="778" d="M651 1633h170l-282 -353h-159l-276 353h173l183 -242h5zM340 534q0 61 10.5 117.5t35.5 110t63.5 93t98 63.5t134.5 24q33 0 62 -4v169q-17 4 -54 4q-66 0 -128.5 -22.5t-123.5 -76.5t-101 -135v216h-156v-1093h159v534z" />
<glyph unicode="&#x15a;" horiz-adv-x="1317" d="M859 2103l-263 -352h-153l222 352h194zM670 -16q-114 0 -218 39t-177 103t-119.5 145.5t-55.5 166.5l160 44q27 -142 145 -241t265 -99q70 0 133 18t114.5 53t82 92.5t30.5 129.5q0 54 -19 99.5t-47.5 75.5t-68.5 53.5t-76 35.5t-75 20l-213 42q-66 13 -141 47t-133 89 q-114 107 -114 277q0 132 73 236t189 157.5t251 53.5q100 0 184 -23.5t142 -62t101.5 -89.5t67.5 -103t34 -106l-153 -48q-9 37 -26 73t-48.5 73.5t-72 66t-101 46.5t-132.5 18q-135 0 -236 -80t-101 -204q0 -93 58.5 -161.5t175.5 -91.5l204 -40q204 -40 311 -140 q74 -69 106 -149.5t32 -145.5q0 -141 -70.5 -249t-191 -164.5t-270.5 -56.5z" />
<glyph unicode="&#x15b;" horiz-adv-x="1009" d="M829 1632l-263 -352h-152l221 352h194zM905 311q0 -146 -113 -237.5t-275 -91.5q-85 0 -156 22.5t-116 57t-78 79t-48.5 86t-20.5 80.5l149 38q7 -40 25.5 -77.5t49.5 -71t81 -54t113 -20.5q93 0 160 48.5t67 131.5q0 65 -53.5 106t-125.5 57l-167 37q-275 61 -275 285 q0 85 38.5 151.5t97.5 102.5t120 54t117 18q80 0 146.5 -20.5t108.5 -52t73 -72.5t45.5 -77t20.5 -71l-145 -41q-8 32 -22.5 61.5t-42 61.5t-75 51.5t-108.5 19.5q-89 0 -150 -51t-61 -124q0 -64 42.5 -97.5t115.5 -50.5l177 -40q56 -13 105 -36.5t90.5 -59t65.5 -88 t24 -115.5z" />
<glyph unicode="&#x15c;" horiz-adv-x="1317" d="M727 2102l282 -353h-170l-186 242h-5l-183 -242h-171l274 353h159zM670 -16q150 0 270.5 56.5t191 164.5t70.5 249q0 65 -32 145.5t-106 149.5q-107 100 -311 140l-204 40q-117 23 -175.5 91.5t-58.5 161.5q0 124 101 204t236 80q72 0 132.5 -18t101 -46.5t72 -66 t48.5 -73.5t26 -73l153 48q-10 54 -34 106t-67.5 103t-101.5 89.5t-142 62t-184 23.5q-135 0 -251 -53.5t-189 -157.5t-73 -236q0 -170 114 -277q58 -55 133 -89t141 -47l213 -42q39 -8 75 -20t76 -35.5t68.5 -53.5t47.5 -75.5t19 -99.5q0 -72 -30.5 -129.5t-82 -92.5 t-114.5 -53t-133 -18q-147 0 -265 99t-145 241l-160 -44q9 -85 55.5 -166.5t119.5 -145.5t177 -103t218 -39z" />
<glyph unicode="&#x15d;" horiz-adv-x="1009" d="M586 1633l282 -353h-170l-186 242h-5l-183 -242h-173l276 353h159zM905 311q0 63 -24 115.5t-65.5 88t-90.5 59t-105 36.5l-177 40q-73 17 -115.5 50.5t-42.5 97.5q0 73 61 124t150 51q61 0 108.5 -19.5t75 -51.5t42 -61.5t22.5 -61.5l145 41q-6 35 -20.5 71t-45.5 77 t-73 72.5t-108.5 52t-146.5 20.5q-56 0 -117 -18t-120 -54t-97.5 -102.5t-38.5 -151.5q0 -224 275 -285l167 -37q72 -16 125.5 -57t53.5 -106q0 -83 -67 -131.5t-160 -48.5q-63 0 -113 20.5t-81 54t-49.5 71t-25.5 77.5l-149 -38q5 -40 20.5 -81t48 -85.5t78 -79t116.5 -57 t156 -22.5q162 0 275 91.5t113 237.5z" />
<glyph unicode="&#x15e;" horiz-adv-x="1313" d="M820 -198q0 -139 -96.5 -220t-241.5 -81q-84 0 -154 23v126q68 -18 140 -18q100 0 154 51t54 143q0 89 -68 161q-206 19 -348.5 152t-159.5 299l158 44q27 -142 144 -241t264 -99q70 0 133 18t114.5 53t82 92.5t30.5 129.5q0 54 -19 99.5t-47.5 75.5t-68.5 53.5t-76 35.5 t-75 20l-213 42q-65 13 -140 47t-132 89q-112 109 -112 277q0 133 72 236.5t187 157t250 53.5q100 0 184 -23.5t142 -62t101.5 -89.5t67.5 -103t34 -106l-153 -48q-9 37 -26 73t-48.5 73.5t-72 66t-101 46.5t-132.5 18q-87 0 -163 -34.5t-124.5 -100.5t-48.5 -149 q0 -93 58.5 -161.5t174.5 -91.5l204 -40q204 -40 311 -140q74 -69 106 -149.5t32 -145.5q0 -192 -126 -317.5t-326 -148.5q33 -39 53.5 -89t20.5 -97z" />
<glyph unicode="&#x15f;" horiz-adv-x="1006" d="M667 -198q0 -139 -96.5 -220t-241.5 -81q-84 0 -154 23v126q67 -18 140 -18q100 0 154 51t54 143q0 89 -66 159q-73 7 -133.5 32t-99 59t-67 76t-41.5 80t-18 75l146 38q7 -40 25.5 -77.5t49.5 -71t81 -54t113 -20.5q93 0 160 48.5t67 131.5q0 65 -53.5 106t-125.5 57 l-167 37q-272 60 -272 285q0 85 38 151.5t96.5 102.5t119 54t116.5 18q80 0 146.5 -20.5t108.5 -52t73 -72.5t45.5 -77t20.5 -71l-145 -41q-8 32 -22.5 61.5t-42 61.5t-75 51.5t-108.5 19.5q-89 0 -150 -51t-61 -124q0 -64 42.5 -97.5t115.5 -50.5l177 -40q56 -13 105 -36.5 t90.5 -59t65.5 -88t24 -115.5q0 -127 -87 -213.5t-221 -109.5q33 -39 53 -89t20 -97z" />
<glyph unicode="&#x160;" horiz-adv-x="1313" d="M1006 2107l-282 -353h-159l-273 353h170l183 -242h5l186 242h170zM666 -16q-114 0 -217 39t-175.5 103t-118.5 145.5t-55 166.5l158 44q27 -142 144 -241t264 -99q70 0 133 18t114.5 53t82 92.5t30.5 129.5q0 54 -19 99.5t-47.5 75.5t-68.5 53.5t-76 35.5t-75 20l-213 42 q-65 13 -140 47t-132 89q-112 109 -112 277q0 133 72 236.5t187 157t250 53.5q100 0 184 -23.5t142 -62t101.5 -89.5t67.5 -103t34 -106l-153 -48q-9 37 -26 73t-48.5 73.5t-72 66t-101 46.5t-132.5 18q-87 0 -163 -34.5t-124.5 -100.5t-48.5 -149q0 -93 58.5 -161.5 t174.5 -91.5l204 -40q201 -39 310 -140q74 -69 106.5 -150t32.5 -145q0 -141 -70.5 -249t-191 -164.5t-270.5 -56.5z" />
<glyph unicode="&#x161;" horiz-adv-x="1007" d="M691 1633h170l-282 -353h-159l-275 353h171l184 -242h5zM903 311q0 -146 -113 -237.5t-275 -91.5q-85 0 -155.5 22.5t-115.5 57t-77.5 79t-48 85.5t-20.5 81l147 38q7 -40 25.5 -77.5t49.5 -71t81 -54t113 -20.5q93 0 160 48.5t67 131.5q0 65 -53.5 106t-125.5 57 l-167 37q-56 12 -100.5 31.5t-85.5 51.5t-64 83.5t-23 118.5q0 69 25.5 126t65.5 93t90.5 61t98 35.5t91.5 10.5q80 0 146.5 -20.5t108.5 -52t73 -72.5t45.5 -77t20.5 -71l-145 -41q-8 32 -22.5 61.5t-42 61.5t-75 51.5t-108.5 19.5q-89 0 -150 -51t-61 -124 q0 -64 42.5 -97.5t115.5 -50.5l177 -40q56 -13 105 -36.5t90.5 -59t65.5 -88t24 -115.5z" />
<glyph unicode="&#x162;" horiz-adv-x="1332" d="M836 -198q0 -139 -96.5 -220t-241.5 -81q-83 0 -155 23v126q71 -18 141 -18q100 0 154 51t54 143q0 101 -82 174h-26v1446h-540v158h1244v-158h-535v-1446q37 -39 60 -93.5t23 -104.5z" />
<glyph unicode="&#x163;" horiz-adv-x="779" d="M288 -368q101 0 154.5 51t53.5 143q0 105 -98 195q-145 64 -145 262v669h-202v141h202v316h159v-316h277v-141h-277v-665q0 -154 177 -154q59 0 99 8v-132q-51 -18 -124 -18q34 -39 55 -90.5t21 -98.5q0 -139 -96.5 -220t-240.5 -81q-57 0 -114 12v129q55 -10 99 -10z " />
<glyph unicode="&#x164;" horiz-adv-x="1332" d="M1024 2108l-282 -353h-159l-274 353h171l183 -242h5l186 242h170zM753 1446h535v158h-1244v-158h540v-1446h169v1446z" />
<glyph unicode="&#x165;" horiz-adv-x="779" d="M756 1669l-70 -459h-135l30 459h175zM563 -9q-86 0 -148 22.5t-96.5 64t-50 92t-15.5 113.5v669h-202v141h202v316h159v-316h277v-141h-277v-665q0 -154 177 -154q59 0 99 8v-132q-52 -18 -125 -18z" />
<glyph unicode="&#x166;" horiz-adv-x="1359" d="M292 893h303v553h-536v158h1240v-158h-535v-553h305v-156h-305v-737h-169v737h-303v156z" />
<glyph unicode="&#x167;" horiz-adv-x="790" d="M667 536h-246v-249q0 -154 177 -154q59 0 99 8v-132q-52 -18 -125 -18q-86 0 -148 22.5t-96.5 64t-50 92t-15.5 113.5v253h-186v141h186v275h-202v141h202v316h159v-316h277v-141h-277v-275h246v-141z" />
<glyph unicode="&#x168;" horiz-adv-x="1610" d="M942 1792q-40 0 -77 15.5t-61.5 34.5t-59.5 34.5t-71 15.5q-66 0 -82 -98h-115q1 103 49 169.5t147 66.5q44 0 91.5 -24.5t93.5 -49t87 -24.5q68 0 90 94h100q-2 -104 -47.5 -169t-144.5 -65zM1240 615q0 -225 -111 -349t-317 -124q-96 0 -174 27t-139 82.5t-94.5 150.5 t-33.5 222v980h-169v-988q0 -289 158 -460.5t445 -171.5q286 0 444.5 169.5t158.5 473.5v977h-168v-989z" />
<glyph unicode="&#x169;" horiz-adv-x="1295" d="M778 1280q-40 0 -77 15.5t-61.5 34.5t-59.5 34.5t-71 15.5q-66 0 -82 -98h-115q1 103 49 169.5t147 66.5q44 0 91.5 -24.5t93.5 -49t87 -24.5q68 0 90 94h100q-2 -104 -47.5 -169t-144.5 -65zM327 457q0 -151 77.5 -241.5t225.5 -90.5q142 0 234 99t92 246v623h158v-1093 h-156v200q-130 -221 -376 -221q-197 0 -306 120.5t-109 317.5v676h160v-636z" />
<glyph unicode="&#x16a;" horiz-adv-x="1612" d="M461 1811v144h691v-144h-691zM1242 615q0 -225 -111 -349t-317 -124q-96 0 -174.5 27t-139.5 82.5t-95 150.5t-34 222v980h-169v-988q0 -289 158.5 -460.5t446.5 -171.5q286 0 444.5 169.5t158.5 473.5v977h-168v-989z" />
<glyph unicode="&#x16b;" horiz-adv-x="1295" d="M295 1311v144h690v-144h-690zM327 457q0 -151 77.5 -241.5t225.5 -90.5q142 0 234 99t92 246v623h158v-1093h-156v200q-130 -221 -376 -221q-197 0 -306 120.5t-109 317.5v676h160v-636z" />
<glyph unicode="&#x16e;" horiz-adv-x="1612" d="M806 1708q-117 0 -201 80t-84 194q0 112 84 192t201 80q120 0 203.5 -80t83.5 -192q0 -114 -83.5 -194t-203.5 -80zM806 2141q-69 0 -116.5 -46t-47.5 -113t47.5 -114t116.5 -47t117 47t48 114q0 64 -50 111.5t-115 47.5zM1242 615q0 -225 -111 -349t-317 -124 q-96 0 -174.5 27t-139.5 82.5t-95 150.5t-34 222v980h-169v-988q0 -289 158.5 -460.5t446.5 -171.5q286 0 444.5 169.5t158.5 473.5v977h-168v-989z" />
<glyph unicode="&#x16f;" horiz-adv-x="1295" d="M639 1237q-117 0 -201 80t-84 194q0 112 84 192t201 80q120 0 203.5 -80t83.5 -192q0 -114 -83.5 -194t-203.5 -80zM639 1670q-69 0 -116.5 -46t-47.5 -113t47.5 -114t116.5 -47t117 47t48 114q0 64 -50 111.5t-115 47.5zM327 457q0 -151 77.5 -241.5t225.5 -90.5 q142 0 234 99t92 246v623h158v-1093h-156v200q-130 -221 -376 -221q-197 0 -306 120.5t-109 317.5v676h160v-636z" />
<glyph unicode="&#x170;" horiz-adv-x="1609" d="M968 2103l-263 -352h-152l221 352h194zM1321 2103l-263 -352h-152l221 352h194zM1239 615q0 -225 -111 -349t-317 -124q-96 0 -174 27t-139 82.5t-94.5 150.5t-33.5 222v980h-168v-988q0 -289 157.5 -460.5t444.5 -171.5q286 0 444.5 169.5t158.5 473.5v977h-168v-989z " />
<glyph unicode="&#x171;" horiz-adv-x="1294" d="M796 1632l-263 -352h-152l221 352h194zM1149 1632l-263 -352h-152l221 352h194zM326 457q0 -151 77.5 -241.5t225.5 -90.5q141 0 233.5 99t92.5 246v623h158v-1093h-156v200q-130 -221 -376 -221q-197 0 -305.5 120.5t-108.5 317.5v676h159v-636z" />
<glyph unicode="&#x172;" horiz-adv-x="1609" d="M1004 -494q-25 -5 -59 -5q-113 0 -193 59.5t-80 167.5q0 123 158 256h-26q-287 0 -444.5 171.5t-157.5 460.5v988h168v-980q0 -127 33.5 -222t94.5 -150.5t139 -82.5t174 -27q206 0 317 124t111 349v989h168v-977q0 -257 -114.5 -419.5t-325.5 -207.5q-56 -48 -98.5 -112 t-42.5 -124q0 -75 50 -106t128 -29v-123z" />
<glyph unicode="&#x173;" horiz-adv-x="1294" d="M973 -236q0 -75 49.5 -106t127.5 -29v-123q-24 -5 -59 -5q-113 0 -192.5 59.5t-79.5 167.5q0 129 177 272h-39v200q-130 -221 -376 -221q-197 0 -305.5 120.5t-108.5 317.5v676h159v-636q0 -151 77.5 -241.5t225.5 -90.5q141 0 233.5 99t92.5 246v623h158v-1093 q-56 -48 -98 -112.5t-42 -123.5z" />
<glyph unicode="&#x174;" horiz-adv-x="2349" d="M1251 2102l282 -353h-170l-186 242h-5l-183 -242h-171l274 353h159zM1272 1604l426 -1368h3l422 1368h170l-504 -1604h-187l-428 1377l-430 -1377h-185l-502 1604h177l420 -1361h4l423 1361h191z" />
<glyph unicode="&#x175;" horiz-adv-x="1774" d="M962 1633l282 -353h-170l-186 242h-5l-183 -242h-170l273 353h159zM806 1093h161l299 -908h1l290 908h165l-368 -1093h-178l-290 889h-1l-292 -889h-175l-366 1093h169l287 -907h1z" />
<glyph unicode="&#x176;" horiz-adv-x="1518" d="M835 2102l282 -353h-170l-186 242h-5l-183 -242h-171l274 353h159zM53 1604h202l507 -767l511 767h193l-622 -927v-677h-170v676z" />
<glyph unicode="&#x177;" horiz-adv-x="1216" d="M694 1633l282 -353h-170l-186 242h-5l-183 -242h-170l273 353h159zM1179 1093l-748 -1632h-173l283 613l-497 1019h183l401 -845l379 845h172z" />
<glyph unicode="&#x178;" horiz-adv-x="1518" d="M555 1757q-47 0 -84 36.5t-37 86.5t37 86.5t84 36.5t84 -36.5t37 -86.5t-37 -86.5t-84 -36.5zM965 1757q-47 0 -84 36.5t-37 86.5t37 86.5t84 36.5t84 -36.5t37 -86.5t-37 -86.5t-84 -36.5zM53 1604h202l507 -767l511 767h193l-622 -927v-677h-170v676z" />
<glyph unicode="&#x179;" horiz-adv-x="1321" d="M862 2103l-263 -352h-153l222 352h194zM1230 1604v-155l-959 -1294h963v-155h-1160v155l959 1295h-927v154h1124z" />
<glyph unicode="&#x17a;" horiz-adv-x="1053" d="M851 1632l-263 -352h-153l222 352h194zM961 0v137h-684l682 821v135h-857v-137h667l-684 -819v-137h876z" />
<glyph unicode="&#x17b;" horiz-adv-x="1321" d="M654 1756q-48 0 -85.5 37t-37.5 89q0 51 37.5 88t85.5 37t85.5 -37t37.5 -88q0 -52 -37.5 -89t-85.5 -37zM74 0h1160v155h-963l959 1294v155h-1123v-154h926l-959 -1295v-155z" />
<glyph unicode="&#x17c;" horiz-adv-x="1053" d="M523 1277q-48 0 -85.5 37t-37.5 89q0 51 37.5 88t85.5 37t85.5 -37t37.5 -88q0 -52 -37.5 -89t-85.5 -37zM102 1093h857v-135l-682 -821h684v-137h-876v137l684 819h-667v137z" />
<glyph unicode="&#x17d;" horiz-adv-x="1319" d="M1010 2107l-282 -353h-159l-273 353h170l183 -242h5l186 242h170zM1228 1604v-155l-958 -1294h962v-155h-1158v155l957 1295h-924v154h1121z" />
<glyph unicode="&#x17e;" horiz-adv-x="1052" d="M710 1633h170l-282 -353h-159l-273 353h170l183 -242h5zM960 0v137h-684l682 821v135h-857v-137h667l-683 -819v-137h875z" />
<glyph unicode="&#x192;" horiz-adv-x="1195" d="M613 1228q14 72 45 136t81 121t128 90.5t175 33.5q39 0 90 -6v-138q-28 3 -60 3q-127 0 -202 -67.5t-98 -188.5l-22 -119h283v-139h-310l-117 -597q-11 -56 -32 -108t-56.5 -101.5t-82 -85.5t-113 -58t-144.5 -22q-50 0 -91 6v137q28 -3 60 -3q127 0 202 68t98 188 l113 576h-237v139h263z" />
<glyph unicode="&#x1b5;" horiz-adv-x="1330" d="M118 891h506l415 559h-927v154h1120v-155l-415 -558h411v-151h-522l-433 -585h963v-155h-1157v155l434 585h-395v151z" />
<glyph unicode="&#x1b6;" horiz-adv-x="1056" d="M107 617h382l282 339h-670v137h858v-135l-289 -341h283v-133h-391l-292 -347h691v-137h-876v137l295 347h-273v133z" />
<glyph unicode="&#x1cd;" horiz-adv-x="1588" d="M1150 2106l-282 -353h-159l-273 353h170l183 -242h5l186 242h170zM1581 0h-178l-175 410h-873l-176 -410h-172l691 1604h191zM790 1430l-372 -867h745z" />
<glyph unicode="&#x1ce;" d="M744 1633h170l-282 -353h-159l-275 353h171l184 -242h5zM840 705q0 131 -71 198t-207 67q-66 0 -120 -19.5t-87.5 -53t-53.5 -71t-27 -79.5l-153 33q3 31 19 70.5t51.5 86.5t84 85.5t124.5 64.5t166 26q299 0 398 -226q33 -75 33 -181v-308q0 -275 18 -398h-160 q-14 73 -14 192h-1q-137 -211 -369 -211q-164 0 -265.5 91t-101.5 231v12q0 68 26.5 123.5t69.5 90.5t100.5 58.5t116.5 33.5t120 10h303v74zM535 499q-49 0 -93 -8.5t-85.5 -28t-66.5 -57t-25 -89.5q0 -90 66.5 -142t167.5 -52q147 0 244 95t97 244v38h-305z" />
<glyph unicode="&#x1cf;" horiz-adv-x="614" d="M664 2107l-282 -353h-159l-273 353h170l183 -242h5l186 242h170zM223 0h168v1604h-168v-1604z" />
<glyph unicode="&#x1d0;" horiz-adv-x="522" d="M449 1633h170l-282 -353h-159l-275 353h171l184 -242h5zM181 0h160v1093h-160v-1093z" />
<glyph unicode="&#x1d1;" horiz-adv-x="1833" d="M1103 2102h170l-282 -353h-159l-273 353h170l183 -242h5zM1723 806q0 -228 -104.5 -416t-290.5 -297.5t-414 -109.5q-169 0 -319 63.5t-256 172t-167.5 259t-61.5 319.5q0 227 104.5 415.5t290.5 298t414 109.5q169 0 319 -63.5t256 -172t167.5 -259t61.5 -319.5z M1548 797q0 134 -47 256t-129.5 212.5t-201.5 144t-256 53.5q-180 0 -325 -89.5t-224.5 -239t-79.5 -328.5q0 -134 47 -256t129.5 -212t201.5 -143.5t256 -53.5q180 0 325 89t224.5 238.5t79.5 328.5z" />
<glyph unicode="&#x1d2;" horiz-adv-x="1332" d="M853 1633h170l-282 -353h-159l-273 353h170l183 -242h5zM663 -19q-155 0 -284.5 75t-203.5 204t-74 283q0 242 162.5 406t403.5 164q156 0 285.5 -74.5t204 -203.5t74.5 -284q0 -159 -75 -290t-205 -205.5t-288 -74.5zM667 123q173 0 287 123t114 297q0 176 -115 302.5 t-290 126.5q-174 0 -286.5 -123t-112.5 -298q0 -115 50.5 -212.5t143.5 -156.5t209 -59z" />
<glyph unicode="&#x1d3;" horiz-adv-x="1610" d="M992 2102h170l-282 -353h-159l-273 353h170l183 -242h5zM1408 627q0 -304 -158.5 -473.5t-444.5 -169.5q-287 0 -445 171.5t-158 460.5v988h169v-980q0 -127 33.5 -222t94.5 -150.5t139 -82.5t174 -27q206 0 317 124t111 349v989h168v-977z" />
<glyph unicode="&#x1d4;" horiz-adv-x="1294" d="M827 1633h170l-282 -353h-159l-273 353h170l183 -242h5zM326 457q0 -151 77.5 -241.5t225.5 -90.5q141 0 233.5 99t92.5 246v623h158v-1093h-156v200q-130 -221 -376 -221q-197 0 -305.5 120.5t-108.5 317.5v676h159v-636z" />
<glyph unicode="&#x1d5;" horiz-adv-x="1609" d="M1407 627q0 -304 -158.5 -473.5t-444.5 -169.5q-287 0 -444.5 171.5t-157.5 460.5v988h168v-980q0 -127 33.5 -222t94.5 -150.5t139 -82.5t174 -27q206 0 317 124t111 349v989h168v-977zM461 2036v145h690v-145h-690zM600 1665q-47 0 -84 36.5t-37 86.5q0 51 37 87t84 36 q48 0 84.5 -36t36.5 -87q0 -50 -37 -86.5t-84 -36.5zM1010 1665q-47 0 -84 36.5t-37 86.5q0 51 36.5 87t84.5 36q47 0 83.5 -36t36.5 -87q0 -50 -36.5 -86.5t-83.5 -36.5z" />
<glyph unicode="&#x1d6;" horiz-adv-x="1294" d="M295 1630v144h690v-144h-690zM445 1247q-47 0 -84 36.5t-37 86.5t37 86.5t84 36.5t84 -36.5t37 -86.5t-37 -86.5t-84 -36.5zM835 1247q-47 0 -84 36.5t-37 86.5t37 86.5t84 36.5t84 -36.5t37 -86.5t-37 -86.5t-84 -36.5zM167 417q0 -197 108.5 -317.5t305.5 -120.5 q246 0 376 221v-200h156v1093h-158v-623q0 -147 -92.5 -246t-233.5 -99q-148 0 -225.5 90.5t-77.5 241.5v636h-159v-676z" />
<glyph unicode="&#x1d7;" horiz-adv-x="1609" d="M1407 627q0 -304 -158.5 -473.5t-444.5 -169.5q-287 0 -444.5 171.5t-157.5 460.5v988h168v-980q0 -127 33.5 -222t94.5 -150.5t139 -82.5t174 -27q206 0 317 124t111 349v989h168v-977zM600 1665q-47 0 -84 36.5t-37 86.5q0 51 37 87t84 36q48 0 84.5 -36t36.5 -87 q0 -50 -37 -86.5t-84 -36.5zM1010 1665q-47 0 -84 36.5t-37 86.5q0 51 36.5 87t84.5 36q47 0 83.5 -36t36.5 -87q0 -50 -36.5 -86.5t-83.5 -36.5zM1128 2298l-247 -332h-150l207 332h190z" />
<glyph unicode="&#x1d8;" horiz-adv-x="1294" d="M167 417q0 -197 108.5 -317.5t305.5 -120.5q246 0 376 221v-200h156v1093h-158v-623q0 -147 -92.5 -246t-233.5 -99q-148 0 -225.5 90.5t-77.5 241.5v636h-159v-676zM444 1247q-46 0 -83 36.5t-37 86.5t36.5 86.5t83.5 36.5q48 0 84.5 -36.5t36.5 -86.5t-36.5 -86.5 t-84.5 -36.5zM836 1247q-48 0 -84.5 36.5t-36.5 86.5t36.5 86.5t84.5 36.5q47 0 83.5 -36.5t36.5 -86.5t-37 -86.5t-83 -36.5zM979 1942l-264 -353h-150l219 353h195z" />
<glyph unicode="&#x1d9;" horiz-adv-x="1609" d="M1407 627q0 -304 -158.5 -473.5t-444.5 -169.5q-287 0 -444.5 171.5t-157.5 460.5v988h168v-980q0 -127 33.5 -222t94.5 -150.5t139 -82.5t174 -27q206 0 317 124t111 349v989h168v-977zM600 1665q-47 0 -84 36.5t-37 86.5q0 51 37 87t84 36q48 0 84.5 -36t36.5 -87 q0 -50 -37 -86.5t-84 -36.5zM1010 1665q-47 0 -84 36.5t-37 86.5q0 51 36.5 87t84.5 36q47 0 83.5 -36t36.5 -87q0 -50 -36.5 -86.5t-83.5 -36.5zM1016 2298h151l-282 -330h-158l-274 330h153l201 -219h4z" />
<glyph unicode="&#x1da;" horiz-adv-x="1294" d="M167 417q0 -197 108.5 -317.5t305.5 -120.5q246 0 376 221v-200h156v1093h-158v-623q0 -147 -92.5 -246t-233.5 -99q-148 0 -225.5 90.5t-77.5 241.5v636h-159v-676zM444 1247q-46 0 -83 36.5t-37 86.5t36.5 86.5t83.5 36.5q48 0 84.5 -36.5t36.5 -86.5t-36.5 -86.5 t-84.5 -36.5zM836 1247q-48 0 -84.5 36.5t-36.5 86.5t36.5 86.5t84.5 36.5q47 0 83.5 -36.5t36.5 -86.5t-37 -86.5t-83 -36.5zM848 1944h153l-282 -353h-160l-272 353h153l199 -242h6z" />
<glyph unicode="&#x1db;" horiz-adv-x="1609" d="M1407 627q0 -304 -158.5 -473.5t-444.5 -169.5q-287 0 -444.5 171.5t-157.5 460.5v988h168v-980q0 -127 33.5 -222t94.5 -150.5t139 -82.5t174 -27q206 0 317 124t111 349v989h168v-977zM735 1966l-248 332h191l207 -332h-150zM1010 1665q47 0 83.5 36.5t36.5 86.5 q0 51 -36.5 87t-83.5 36q-48 0 -84.5 -36t-36.5 -87q0 -50 37 -86.5t84 -36.5zM600 1665q47 0 84 36.5t37 86.5q0 51 -36.5 87t-84.5 36q-47 0 -84 -36t-37 -87q0 -50 37 -86.5t84 -36.5z" />
<glyph unicode="&#x1dc;" horiz-adv-x="1294" d="M167 417q0 -197 108.5 -317.5t305.5 -120.5q246 0 376 221v-200h156v1093h-158v-623q0 -147 -92.5 -246t-233.5 -99q-148 0 -225.5 90.5t-77.5 241.5v636h-159v-676zM567 1589l-266 353h195l219 -353h-148zM836 1247q46 0 83 36.5t37 86.5t-36.5 86.5t-83.5 36.5 q-48 0 -84.5 -36.5t-36.5 -86.5t36.5 -86.5t84.5 -36.5zM444 1247q48 0 84.5 36.5t36.5 86.5t-36.5 86.5t-84.5 36.5q-47 0 -83.5 -36.5t-36.5 -86.5t37 -86.5t83 -36.5z" />
<glyph unicode="&#x1e6;" horiz-adv-x="1760" d="M1282 2107l-282 -353h-159l-273 353h170l183 -242h5l186 242h170zM1469 1086q-14 44 -38.5 89.5t-71 99t-105.5 94t-147.5 68t-190.5 27.5q-135 0 -253.5 -53.5t-200.5 -143.5t-129.5 -210t-47.5 -251q0 -109 28 -209t83 -182.5t131 -144t177 -95.5t216 -34 q107 0 205.5 32.5t176.5 92.5t127 151.5t56 202.5h-670v156h849v-61q0 -152 -52 -285t-146.5 -232t-236.5 -156.5t-313 -57.5q-179 0 -331 62.5t-255.5 171.5t-161.5 258.5t-58 320.5q0 228 106 416.5t292.5 297.5t413.5 109q142 0 263.5 -38.5t207.5 -106.5t145 -151 t92 -181z" />
<glyph unicode="&#x1e7;" horiz-adv-x="1379" d="M842 1633h170l-282 -353h-159l-275 353h171l184 -242h5zM1039 244q-149 -249 -424 -249q-152 0 -270.5 77.5t-180 203.5t-61.5 276q0 144 62.5 271.5t181.5 208.5t268 81q77 0 143.5 -20t118 -56.5t90 -78t74.5 -94.5v229h157v-1067q0 -280 -154.5 -426.5t-414.5 -146.5 q-204 0 -347.5 107.5t-174.5 267.5l147 49q8 -36 24 -72.5t47 -75.5t71 -68.5t100 -48.5t131 -19q87 0 159 23.5t130 72.5t90.5 132.5t32.5 194.5v228zM648 136q169 0 281 123.5t112 295.5q0 108 -50.5 203t-141.5 154t-201 59q-176 0 -279 -119.5t-103 -302.5 q0 -114 44.5 -207t133 -149.5t204.5 -56.5z" />
<glyph unicode="&#x1e8;" horiz-adv-x="1388" d="M1165 2107l-282 -353h-159l-273 353h170l183 -242h5l186 242h170zM1356 1604l-786 -768l824 -836h-238l-752 772h-12v-772h-169v1604h169v-709h11l719 709h234z" />
<glyph unicode="&#x1e9;" horiz-adv-x="1116" d="M860 1093h227l-576 -491l603 -602h-224l-543 547h-7v-547h-159v1669h159v-1020zM1182 1633h-170l-186 -242h-5l-183 242h-170l273 -353h159z" />
<glyph unicode="&#x1f4;" horiz-adv-x="1760" d="M1255 2103l-263 -352h-153l222 352h194zM1469 1086q-14 44 -38.5 89.5t-71 99t-105.5 94t-147.5 68t-190.5 27.5q-135 0 -253.5 -53.5t-200.5 -143.5t-129.5 -210t-47.5 -251q0 -109 28 -209t83 -182.5t131 -144t177 -95.5t216 -34q107 0 205.5 32.5t176.5 92.5 t127 151.5t56 202.5h-670v156h849v-61q0 -152 -52 -285t-146.5 -232t-236.5 -156.5t-313 -57.5q-179 0 -331 62.5t-255.5 171.5t-161.5 258.5t-58 320.5q0 228 106 416.5t292.5 297.5t413.5 109q142 0 263.5 -38.5t207.5 -106.5t145 -151t92 -181z" />
<glyph unicode="&#x1f5;" horiz-adv-x="1379" d="M993 1632l-263 -352h-155l224 352h194zM1039 244q-149 -249 -424 -249q-152 0 -270.5 77.5t-180 203.5t-61.5 276q0 144 62.5 271.5t181.5 208.5t268 81q77 0 143.5 -20t118 -56.5t90 -78t74.5 -94.5v229h157v-1067q0 -280 -154.5 -426.5t-414.5 -146.5 q-204 0 -347.5 107.5t-174.5 267.5l147 49q8 -36 24 -72.5t47 -75.5t71 -68.5t100 -48.5t131 -19q87 0 159 23.5t130 72.5t90.5 132.5t32.5 194.5v228zM648 136q169 0 281 123.5t112 295.5q0 108 -50.5 203t-141.5 154t-201 59q-176 0 -279 -119.5t-103 -302.5 q0 -114 44.5 -207t133 -149.5t204.5 -56.5z" />
<glyph unicode="&#x1fa;" horiz-adv-x="1588" d="M1012 2248h194l-228 -305q99 -81 99 -205q0 -75 -39 -138.5t-104 -99.5l647 -1500h-178l-175 410h-873l-176 -410h-172l645 1497q-67 36 -107 100t-40 141q0 111 84 191.5t201 80.5q33 0 67 -8zM790 1896q-69 0 -116.5 -45.5t-47.5 -112.5t47.5 -114.5t116.5 -47.5 t117 47.5t48 114.5q0 63 -49.5 110.5t-115.5 47.5zM418 563h745l-373 867z" />
<glyph unicode="&#x1fb;" d="M788 1778h194l-229 -306q99 -81 99 -205q0 -110 -80 -190q133 -55 192 -190q33 -75 33 -181v-308q0 -275 18 -398h-160q-14 73 -14 192h-1q-137 -211 -369 -211q-164 0 -265.5 91t-101.5 231v12q0 68 26.5 123.5t69.5 90.5t100.5 58.5t116.5 33.5t120 10h303v74 q0 131 -71 198t-207 67q-66 0 -120 -19.5t-87.5 -53t-53.5 -71t-27 -79.5l-153 33q4 40 28 91t81.5 110.5t134.5 92.5q-85 79 -85 193q0 112 84 192t202 80q29 0 66 -7zM566 1426q-70 0 -117.5 -46t-47.5 -113t48 -114t117 -47t116.5 47t47.5 114q0 63 -49.5 111t-114.5 48z M535 499q-49 0 -93 -8.5t-85.5 -28t-66.5 -57t-25 -89.5q0 -90 66.5 -142t167.5 -52q147 0 244 95t97 244v38h-305z" />
<glyph unicode="&#x1fc;" horiz-adv-x="2145" d="M1597 2103l-263 -352h-153l222 352h194zM1177 1448v-555h764v-155h-764v-582h844l-1 -156h-1009v410h-613l-233 -410h-183l921 1604h1109l1 -156h-836zM484 563h527v890h-22z" />
<glyph unicode="&#x1fd;" horiz-adv-x="1981" d="M1304 1632l-263 -352h-153l222 352h194zM844 705q0 131 -71.5 198t-207.5 67q-133 0 -205 -64.5t-88 -156.5l-151 31q3 31 19 70.5t52 86.5t84.5 85.5t125 64.5t166.5 26q148 0 248 -62t138 -166q65 104 177 166t242 62q245 0 379 -156.5t134 -405.5q0 -18 -2 -54h-887 q5 -156 119.5 -265t274.5 -109q123 0 211.5 60t126.5 174l142 -45q-47 -155 -180.5 -243t-299.5 -88q-148 0 -269 69t-194 187q-148 -256 -443 -256h-6q-167 0 -271 91t-104 231v12q0 85 39.5 148.5t105 98.5t138 51.5t150.5 16.5h307v75zM1725 633q-13 152 -107.5 245.5 t-247.5 93.5q-140 0 -248.5 -101.5t-123.5 -237.5h727zM535 499q-49 0 -93 -8.5t-85.5 -28t-66.5 -57t-25 -89.5q0 -90 67.5 -142t169.5 -52q147 0 244.5 95t97.5 244v38h-309z" />
<glyph unicode="&#x1fe;" horiz-adv-x="1844" d="M1250 2103l-263 -352h-153l222 352h194zM1526 1353q97 -109 150 -249.5t53 -297.5q0 -228 -104.5 -416t-290.5 -297.5t-414 -109.5q-280 0 -492 163l-210 -228l-104 100l207 227q-98 110 -151.5 251.5t-53.5 300.5q0 227 104.5 415.5t290.5 298t414 109.5q280 0 496 -168 l209 229l104 -100zM291 806q0 -250 146 -434l873 956q-167 135 -390 135q-180 0 -325 -89.5t-224.5 -239t-79.5 -328.5zM1554 797q0 246 -144 429l-872 -955q167 -130 387 -130q180 0 325 89t224.5 238.5t79.5 328.5z" />
<glyph unicode="&#x1ff;" horiz-adv-x="1340" d="M1010 1632l-263 -352h-153l222 352h194zM1098 919q137 -156 137 -368q0 -159 -74.5 -290t-205 -205.5t-288.5 -74.5q-183 0 -329 106l-138 -151l-94 87l138 150q-138 159 -138 370q0 119 43.5 225t118 181.5t179.5 119.5t224 44q184 0 332 -108l140 153l94 -87zM267 551 q0 -146 82 -263l555 607q-103 78 -236 78q-116 0 -208.5 -57.5t-142.5 -153.5t-50 -211zM1074 543q0 146 -82 261l-556 -606q103 -77 235 -77q173 0 288 123.5t115 298.5z" />
<glyph unicode="&#x218;" horiz-adv-x="1313" d="M666 -16q-114 0 -217 39t-175.5 103t-118.5 145.5t-55 166.5l158 44q27 -142 144 -241t264 -99q70 0 133 18t114.5 53t82 92.5t30.5 129.5q0 54 -19 99.5t-47.5 75.5t-68.5 53.5t-76 35.5t-75 20l-213 42q-65 13 -140 47t-132 89q-112 109 -112 277q0 133 72 236.5 t187 157t250 53.5q100 0 184 -23.5t142 -62t101.5 -89.5t67.5 -103t34 -106l-153 -48q-9 37 -26 73t-48.5 73.5t-72 66t-101 46.5t-132.5 18q-87 0 -163 -34.5t-124.5 -100.5t-48.5 -149q0 -93 58.5 -161.5t174.5 -91.5l204 -40q204 -40 311 -140q74 -69 106 -149.5 t32 -145.5q0 -141 -70.5 -249t-191 -164.5t-270.5 -56.5zM557 -592q55 10 95.5 63t41.5 114q-20 -11 -43 -11q-48 0 -78.5 32t-30.5 81q0 48 35.5 80.5t83.5 32.5q62 0 96 -46.5t34 -110.5q0 -116 -62 -202.5t-172 -101.5v69z" />
<glyph unicode="&#x219;" horiz-adv-x="1006" d="M902 311q0 -146 -113 -237.5t-275 -91.5q-85 0 -155.5 22.5t-115.5 57t-77.5 79.5t-47.5 85.5t-20 80.5l146 38q7 -40 25.5 -77.5t49.5 -71t81 -54t113 -20.5q93 0 160 48.5t67 131.5q0 65 -53.5 106t-125.5 57l-167 37q-272 60 -272 285q0 85 38 151.5t96.5 102.5 t119 54t116.5 18q80 0 146.5 -20.5t108.5 -52t73 -72.5t45.5 -77t20.5 -71l-145 -41q-8 32 -22.5 61.5t-42 61.5t-75 51.5t-108.5 19.5q-89 0 -150 -51t-61 -124q0 -64 42.5 -97.5t115.5 -50.5l177 -40q56 -13 105 -36.5t90.5 -59t65.5 -88t24 -115.5zM402 -592 q55 10 95.5 63t41.5 114q-20 -11 -43 -11q-48 0 -78.5 32t-30.5 81q0 48 35.5 80.5t83.5 32.5q62 0 96 -46.5t34 -110.5q0 -116 -62 -202.5t-172 -101.5v69z" />
<glyph unicode="&#x21a;" horiz-adv-x="1328" d="M1284 1446h-535v-1446h-169v1446h-536v158h1240v-158zM555 -592q55 10 95 63t41 114q-20 -11 -43 -11q-48 0 -78.5 32t-30.5 81q0 48 35.5 80.5t83.5 32.5q62 0 96 -46.5t34 -110.5q0 -116 -61.5 -202.5t-171.5 -101.5v69z" />
<glyph unicode="&#x21b;" horiz-adv-x="779" d="M563 -9q-86 0 -148 22.5t-96.5 64t-50 92t-15.5 113.5v669h-202v141h202v316h159v-316h277v-141h-277v-665q0 -154 177 -154q59 0 99 8v-132q-52 -18 -125 -18zM311 -592q55 10 95.5 63t41.5 114q-20 -11 -43 -11q-48 0 -78.5 32t-30.5 81q0 48 35.5 80.5t83.5 32.5 q62 0 96 -46.5t34 -110.5q0 -116 -62 -202.5t-172 -101.5v69z" />
<glyph unicode="&#x237;" horiz-adv-x="538" d="M357 -234q0 -152 -79 -232t-232 -80q-38 0 -102 16v132q36 -7 79 -7q84 0 129 45.5t45 129.5v1323h160v-1327z" />
<glyph unicode="&#x300;" horiz-adv-x="0" d="M55 1280l-263 352h194l222 -352h-153z" />
<glyph unicode="&#x301;" horiz-adv-x="0" d="M208 1632l-263 -352h-153l222 352h194z" />
<glyph unicode="&#x302;" horiz-adv-x="0" d="M75 1633l282 -353h-170l-186 242h-5l-183 -242h-170l273 353h159z" />
<glyph unicode="&#x303;" horiz-adv-x="0" d="M137 1280q-40 0 -77 15.5t-61.5 34.5t-59.5 34.5t-71 15.5q-66 0 -82 -98h-115q1 103 49 169.5t147 66.5q44 0 91.5 -24.5t93.5 -49t87 -24.5q68 0 90 94h100q-2 -104 -47.5 -169t-144.5 -65z" />
<glyph unicode="&#x304;" horiz-adv-x="0" d="M-345 1311v144h690v-144h-690z" />
<glyph unicode="&#x306;" horiz-adv-x="0" d="M1 1276q-85 0 -157.5 37t-122 117.5t-53.5 190.5h126q5 -99 60.5 -158t146.5 -59q89 0 145 57.5t63 159.5h123q-4 -156 -99 -250.5t-232 -94.5z" />
<glyph unicode="&#x307;" horiz-adv-x="0" d="M0 1277q-48 0 -85.5 37t-37.5 89q0 51 37.5 88t85.5 37t85.5 -37t37.5 -88q0 -52 -37.5 -89t-85.5 -37z" />
<glyph unicode="&#x308;" horiz-adv-x="0" d="M-195 1277q-47 0 -84 36.5t-37 86.5t37 86.5t84 36.5t84 -36.5t37 -86.5t-37 -86.5t-84 -36.5zM195 1277q-47 0 -84 36.5t-37 86.5t37 86.5t84 36.5t84 -36.5t37 -86.5t-37 -86.5t-84 -36.5z" />
<glyph unicode="&#x30a;" horiz-adv-x="0" d="M-1 1237q-117 0 -201 80t-84 194q0 112 84 192t201 80q120 0 203.5 -80t83.5 -192q0 -114 -83.5 -194t-203.5 -80zM-1 1670q-69 0 -116.5 -46t-47.5 -113t47.5 -114t116.5 -47t117 47t48 114q0 64 -50 111.5t-115 47.5z" />
<glyph unicode="&#x30b;" horiz-adv-x="0" d="M31 1632l-263 -352h-152l221 352h194zM384 1632l-263 -352h-152l221 352h194z" />
<glyph unicode="&#x30c;" horiz-adv-x="0" d="M187 1633h170l-282 -353h-159l-273 353h170l183 -242h5z" />
<glyph unicode="&#x312;" horiz-adv-x="0" d="M109 1649q-55 -11 -95.5 -64t-40.5 -114q17 11 43 11q48 0 78.5 -32t30.5 -81q0 -48 -35.5 -80t-83.5 -32q-62 0 -96.5 46.5t-34.5 110.5q0 115 62 202t172 102v-69z" />
<glyph unicode="&#x326;" horiz-adv-x="0" d="M-109 -592q55 10 95.5 63t40.5 114q-18 -11 -43 -11q-48 0 -78.5 32t-30.5 81q0 48 35.5 80.5t83.5 32.5q62 0 96.5 -46.5t34.5 -110.5q0 -116 -62 -202.5t-172 -101.5v69z" />
<glyph unicode="&#x327;" horiz-adv-x="0" d="M246 -198q0 -139 -96.5 -220t-241.5 -81q-84 0 -154 23v126q67 -18 140 -18q100 0 154 51t54 143q0 101 -82 174h142q38 -39 61 -93t23 -105z" />
<glyph unicode="&#x328;" horiz-adv-x="0" d="M166 -494q-25 -5 -59 -5q-113 0 -193 59.5t-80 167.5q0 130 178 272h117q-56 -48 -98.5 -112t-42.5 -124q0 -75 50 -106t128 -29v-123z" />
<glyph unicode="&#x398;" horiz-adv-x="1833" d="M1723 806q0 -228 -104.5 -416t-290.5 -297.5t-414 -109.5q-169 0 -319 63.5t-256 172t-167.5 259t-61.5 319.5q0 227 104.5 415.5t290.5 298t414 109.5q169 0 319 -63.5t256 -172t167.5 -259t61.5 -319.5zM1548 797q0 134 -47 256t-129.5 212.5t-201.5 144t-256 53.5 q-180 0 -325 -89.5t-224.5 -239t-79.5 -328.5q0 -134 47 -256t129.5 -212t201.5 -143.5t256 -53.5q180 0 325 89t224.5 238.5t79.5 328.5zM465 893v-155h903v155h-903z" />
<glyph unicode="&#x3a9;" horiz-adv-x="1786" d="M1012 334q109 12 201.5 68t152 135t93 171.5t33.5 181.5q0 154 -78 285.5t-216 209.5t-304 78q-167 0 -305 -76.5t-216 -207.5t-78 -289q0 -92 33.5 -184.5t93 -171t152 -133.5t201.5 -67v-334h-640v148h491v84q-115 42 -205.5 106t-144.5 132t-89.5 146.5t-48.5 146 t-13 133.5q0 152 61.5 286.5t165.5 228.5t245 148t297 54q157 0 298 -54t244 -148t163.5 -228t60.5 -287q0 -66 -13 -133.5t-48 -146t-89.5 -146.5t-144.5 -132t-205 -106v-84h492v-148h-640v334z" />
<glyph unicode="&#x3b8;" horiz-adv-x="1485" d="M740 -19q-126 0 -231.5 48t-178 129t-122.5 189.5t-73 228t-23 246.5t23.5 248t74.5 231t124 192t179.5 131t233.5 49q126 0 231.5 -48t177.5 -129t122 -190t73 -228.5t23 -245.5q0 -127 -23.5 -247.5t-74 -230.5t-123.5 -192.5t-179.5 -131.5t-233.5 -49zM742 1533 q-95 0 -172.5 -38t-128 -100t-87 -146t-54 -169t-22.5 -177h931q-6 91 -24.5 176.5t-55.5 169.5t-88 145.5t-128 100t-171 38.5zM278 762q5 -92 22.5 -178t53.5 -171.5t87 -148.5t129 -102t174 -39t174.5 39t129.5 102t87 148t53.5 171.5t21.5 178.5h-932z" />
<glyph unicode="&#x3c0;" horiz-adv-x="1427" d="M1054 287q0 -75 44.5 -114.5t132.5 -39.5q59 0 99 8v-132q-52 -18 -125 -18q-309 0 -309 292v666h-415v-949h-159v949h-288v144h1296v-144h-276v-662z" />
<glyph unicode="&#x401;" horiz-adv-x="1359" d="M519 1757q-47 0 -84 36.5t-37 86.5t37 86.5t84 36.5t84 -36.5t37 -86.5t-37 -86.5t-84 -36.5zM929 1757q-47 0 -84 36.5t-37 86.5t37 86.5t84 36.5t84 -36.5t37 -86.5t-37 -86.5t-84 -36.5zM1155 738h-764v-582h843v-156h-1011v1604h1003v-156h-835v-555h764v-155z" />
<glyph unicode="&#x402;" horiz-adv-x="1735" d="M1651 517q0 -266 -142 -413t-375 -147q-120 0 -233 45l38 147q81 -35 175 -35q66 0 127.5 22.5t115.5 67.5t87 125.5t33 185.5q0 170 -101.5 279.5t-264.5 109.5q-283 0 -502 -201v-703h-168v1448h-396v156h1113v-156h-549v-567q139 104 262.5 143t256.5 39 q235 0 379 -143t144 -403z" />
<glyph unicode="&#x403;" horiz-adv-x="1190" d="M991 2102l-263 -352h-153l222 352h194zM223 0h168v1448h751v156h-919v-1604z" />
<glyph unicode="&#x404;" horiz-adv-x="1728" d="M1640 515q-15 -54 -42 -109t-69 -117t-102 -115t-133.5 -97t-172.5 -69t-210 -25q-165 0 -312 60t-254.5 165.5t-170.5 258.5t-63 330q0 178 65 333.5t174.5 262t257.5 167.5t311 61q126 0 236.5 -34t189 -87.5t140 -124.5t97.5 -141t53 -140l-160 -56q-7 27 -18.5 57.5 t-35 73t-53 81.5t-75 78.5t-98.5 68.5t-125.5 47t-154.5 18q-239 0 -414.5 -158.5t-205.5 -410.5h768v-155h-770q21 -262 194 -429t429 -167q80 0 150.5 17t122.5 44t97 66t75 76.5t55 82.5t38.5 77t25.5 66z" />
<glyph unicode="&#x405;" horiz-adv-x="1313" d="M666 -16q-114 0 -217 39t-175.5 103t-118.5 145.5t-55 166.5l158 44q27 -142 144 -241t264 -99q70 0 133 18t114.5 53t82 92.5t30.5 129.5q0 54 -19 99.5t-47.5 75.5t-68.5 53.5t-76 35.5t-75 20l-213 42q-65 13 -140 47t-132 89q-112 109 -112 277q0 133 72 236.5 t187 157t250 53.5q100 0 184 -23.5t142 -62t101.5 -89.5t67.5 -103t34 -106l-153 -48q-9 37 -26 73t-48.5 73.5t-72 66t-101 46.5t-132.5 18q-87 0 -163 -34.5t-124.5 -100.5t-48.5 -149q0 -93 58.5 -161.5t174.5 -91.5l204 -40q204 -40 311 -140q74 -69 106 -149.5 t32 -145.5q0 -141 -70.5 -249t-191 -164.5t-270.5 -56.5z" />
<glyph unicode="&#x406;" horiz-adv-x="614" d="M391 0h-168v1604h168v-1604z" />
<glyph unicode="&#x407;" horiz-adv-x="614" d="M102 1757q-47 0 -84 36.5t-37 86.5t37 86.5t84 36.5t84 -36.5t37 -86.5t-37 -86.5t-84 -36.5zM512 1757q-47 0 -84 36.5t-37 86.5t37 86.5t84 36.5t84 -36.5t37 -86.5t-37 -86.5t-84 -36.5zM391 0h-168v1604h168v-1604z" />
<glyph unicode="&#x408;" horiz-adv-x="1275" d="M1070 1604v-1104q0 -224 -137 -370t-350 -146q-229 0 -365 139t-136 373v158h167v-152q0 -91 28 -162t75.5 -113t104.5 -63.5t120 -21.5q140 0 232.5 101.5t92.5 250.5v1110h168z" />
<glyph unicode="&#x409;" horiz-adv-x="2469" d="M1779 978q88 0 170 -13t165.5 -46.5t144 -84.5t99 -135.5t38.5 -191.5t-37.5 -198.5t-109 -161t-185.5 -108.5t-258 -39h-555v1448h-627l-87 -817q-10 -96 -29 -179.5t-57.5 -170t-91 -147.5t-134 -100t-183.5 -39h-8v155q70 0 126.5 35t92 86.5t61.5 123t38.5 133 t19.5 127.5l101 949h947v-626h359zM1800 156q59 0 113.5 8.5t113.5 32t102 61t71 101t28 145.5q0 148 -114 234t-326 86h-368v-668h380z" />
<glyph unicode="&#x40a;" horiz-adv-x="2521" d="M1303 943v661h170v-661h398q87 0 166 -13.5t155.5 -47t132.5 -84t90 -130t34 -180.5q0 -219 -147.5 -353.5t-417.5 -134.5h-581v785h-912v-785h-168v1604h168v-661h912zM1865 156q60 0 112.5 7.5t109.5 29t97.5 57t67 96.5t26.5 141q0 144 -105.5 224.5t-316.5 80.5h-383 v-636h392z" />
<glyph unicode="&#x40b;" horiz-adv-x="1762" d="M1116 886q-283 0 -507 -206v-680h-167v1448h-397v156h1113v-156h-549l1 -586q141 105 263.5 144.5t254.5 39.5q236 0 379.5 -126.5t143.5 -362.5v-557h-166v515q0 167 -101.5 269t-267.5 102z" />
<glyph unicode="&#x40c;" horiz-adv-x="1387" d="M1056 2102l-263 -352h-153l222 352h194zM1355 1604l-786 -768l824 -836h-238l-752 772h-12v-772h-168v1604h168v-709h11l719 709h234z" />
<glyph unicode="&#x40e;" horiz-adv-x="1424" d="M729 1751q-127 0 -217.5 81t-114.5 211l114 22q53 -185 218 -185t218 185l114 -22q-24 -130 -114.5 -211t-217.5 -81zM838 409q-40 -80 -71.5 -133.5t-71 -103.5t-81 -79.5t-96.5 -52t-121.5 -31.5t-153.5 -9h-115v156h106q37 0 57 0.5t60.5 5.5t67 14.5t65 28.5t67 46.5 t60 70t56.5 97.5l-643 1185h191l539 -1012l494 1012h185z" />
<glyph unicode="&#x40f;" horiz-adv-x="1686" d="M223 1604h168v-1448h904v1448h168v-1604h-536v-335h-168v335h-536v1604z" />
<glyph unicode="&#x410;" horiz-adv-x="1588" d="M1581 0h-178l-175 410h-873l-176 -410h-172l691 1604h191zM790 1430l-372 -867h745z" />
<glyph unicode="&#x411;" horiz-adv-x="1475" d="M778 948q87 0 168 -12.5t163.5 -46t142.5 -85t98 -135.5t38 -191q0 -218 -151 -348t-432 -130h-582v1604h1048v-156h-880v-500h387zM784 156q60 0 114 7t115 28.5t104.5 57t72.5 97.5t29 144q0 146 -115 226t-330 80h-383v-640h393z" />
<glyph unicode="&#x412;" horiz-adv-x="1501" d="M799 1604q148 0 263.5 -45.5t184 -138t68.5 -219.5q0 -28 -3.5 -57t-18 -74.5t-39 -85t-72 -81t-111.5 -69.5q84 -22 149 -69.5t99.5 -105.5t51 -113.5t16.5 -105.5q0 -112 -45.5 -198t-125 -138t-180 -78t-216.5 -26h-597v1604h576zM772 891q188 0 280 81.5t92 208.5 q0 57 -20 103t-53.5 76.5t-80 51t-97.5 29.5t-108 9h-395v-559h382zM824 154q55 0 107.5 9t104.5 30.5t91 54.5t63 85.5t24 118.5t-26.5 117.5t-68 83t-98.5 52t-112.5 28.5t-115.5 8h-403v-587h434z" />
<glyph unicode="&#x413;" horiz-adv-x="1190" d="M1142 1448h-751v-1448h-168v1604h919v-156z" />
<glyph unicode="&#x414;" horiz-adv-x="1738" d="M32 -336v496h4q58 0 109 31t87.5 84.5t66 117t49 137.5t31.5 136.5t19 122.5l93 815h975v-1448h173v-492h-158v336h-1291v-336h-158zM560 737q-19 -169 -75 -327.5t-157 -253.5h970v1292h-658z" />
<glyph unicode="&#x415;" horiz-adv-x="1359" d="M1155 738h-764v-582h843v-156h-1011v1604h1003v-156h-835v-555h764v-155z" />
<glyph unicode="&#x416;" horiz-adv-x="2048" d="M2050 0h-229l-701 779h-12v-779h-168v779h-12l-701 -779h-229l750 821l-717 783h220l678 -752h11v752h168v-752h11l678 752h220l-717 -783z" />
<glyph unicode="&#x417;" horiz-adv-x="1336" d="M655 -17q-120 0 -224.5 39.5t-176.5 105.5t-117.5 149.5t-56.5 173.5l163 30q9 -85 61 -162.5t145 -128.5t206 -51q46 0 97 11t105 37.5t96.5 65t70 98.5t27.5 133q0 138 -107.5 223t-278.5 85q-104 0 -168 -24l-79 133l549 549h-849v154h1064v-147l-510 -512 q97 4 192.5 -22t165.5 -75q89 -62 140 -155.5t51 -202.5q0 -119 -50.5 -218.5t-139.5 -168.5q-157 -120 -376 -120z" />
<glyph unicode="&#x418;" horiz-adv-x="1723" d="M223 0v1604h168v-1378l913 1378h196v-1604h-166v1385l-917 -1385h-194z" />
<glyph unicode="&#x419;" horiz-adv-x="1723" d="M862 1751q-127 0 -217.5 81t-114.5 211l114 22q53 -185 218 -185q163 0 218 185l114 -22q-24 -130 -115 -211t-217 -81zM1500 1604h-196l-913 -1378v1378h-168v-1604h194l917 1385v-1385h166v1604z" />
<glyph unicode="&#x41a;" horiz-adv-x="1387" d="M1355 1604l-786 -768l824 -836h-238l-752 772h-12v-772h-168v1604h168v-709h11l719 709h234z" />
<glyph unicode="&#x41b;" horiz-adv-x="1662" d="M537 631q-10 -96 -29 -179.5t-57.5 -170t-91 -147.5t-134 -100t-183.5 -39h-8v155q70 0 127 35t92 86.5t61.5 123t38.5 132.5t19 127l101 950h966v-1604h-168v1448h-647z" />
<glyph unicode="&#x41c;" horiz-adv-x="2120" d="M982 0l-592 1364h-1v-1364h-166v1604h238l600 -1375l594 1375h242v-1604h-167v1375h-1l-597 -1375h-150z" />
<glyph unicode="&#x41d;" horiz-adv-x="1696" d="M391 894h914v710h168v-1604h-168v734h-914v-734h-168v1604h168v-710z" />
<glyph unicode="&#x41e;" horiz-adv-x="1833" d="M1723 806q0 -228 -104.5 -416t-290.5 -297.5t-414 -109.5q-169 0 -319 63.5t-256 172t-167.5 259t-61.5 319.5q0 227 104.5 415.5t290.5 298t414 109.5q169 0 319 -63.5t256 -172t167.5 -259t61.5 -319.5zM1548 797q0 134 -47 256t-129.5 212.5t-201.5 144t-256 53.5 q-180 0 -325 -89.5t-224.5 -239t-79.5 -328.5q0 -134 47 -256t129.5 -212t201.5 -143.5t256 -53.5q180 0 325 89t224.5 238.5t79.5 328.5z" />
<glyph unicode="&#x41f;" horiz-adv-x="1677" d="M1454 1604v-1604h-168v1448h-895v-1448h-168v1604h1231z" />
<glyph unicode="&#x420;" horiz-adv-x="1394" d="M759 1604q114 0 208.5 -26t159 -71.5t109.5 -107t65.5 -131t20.5 -145.5q0 -104 -38 -193.5t-110.5 -157t-186 -106.5t-255.5 -39h-341v-627h-168v1604h536zM738 783q106 0 188 29t129.5 77.5t71.5 106.5t24 121q0 50 -11.5 95t-41 88.5t-74 75t-116 51t-162.5 19.5h-355 v-663h347z" />
<glyph unicode="&#x421;" horiz-adv-x="1719" d="M910 -17q-165 0 -312 60t-254.5 165.5t-170 258.5t-62.5 330q0 178 64.5 333.5t174.5 262t257.5 167.5t310.5 61q126 0 237 -34t189.5 -88t140 -124.5t97 -141t52.5 -140.5l-161 -57q-10 39 -29.5 85t-64.5 109t-103.5 112t-153.5 84t-208 35q-127 0 -242 -48t-200 -133 t-135.5 -208t-50.5 -265q0 -188 81 -340t225.5 -238t323.5 -86q110 0 202 33t149.5 78.5t104 110.5t68 111t38.5 97l162 -58q-19 -65 -53 -131.5t-95.5 -140.5t-140 -130t-193.5 -93t-248 -37z" />
<glyph unicode="&#x422;" horiz-adv-x="1326" d="M1283 1446h-535v-1446h-169v1446h-536v158h1240v-158z" />
<glyph unicode="&#x423;" horiz-adv-x="1424" d="M838 409q-40 -80 -71.5 -133.5t-71 -103.5t-81 -79.5t-96.5 -52t-121.5 -31.5t-153.5 -9h-115v156h106q37 0 57 0.5t60.5 5.5t67 14.5t65 28.5t67 46.5t60 70t56.5 97.5l-643 1185h191l539 -1012l494 1012h185z" />
<glyph unicode="&#x424;" horiz-adv-x="1946" d="M889 135q-374 1 -586 184.5t-212 496.5q0 214 99 368t278 232t421 78v160h168v-160q242 0 421 -78t278 -232t99 -368q0 -313 -212 -496.5t-586 -184.5v-185h-168v185zM889 1339q-296 0 -459.5 -135.5t-163.5 -389.5q0 -257 163 -389.5t460 -132.5v1047zM1057 292 q297 0 460 132.5t163 389.5q0 254 -163.5 389.5t-459.5 135.5v-1047z" />
<glyph unicode="&#x425;" horiz-adv-x="1464" d="M735 943l490 661h196l-587 -781l614 -823h-196l-521 701l-518 -701h-197l615 821l-588 783h197z" />
<glyph unicode="&#x426;" horiz-adv-x="1735" d="M1463 156h172v-492h-158v336h-1254v1604h168v-1448h904v1448h168v-1448z" />
<glyph unicode="&#x427;" horiz-adv-x="1509" d="M1117 684q-104 -61 -245.5 -107.5t-240.5 -46.5q-77 0 -146.5 13.5t-136.5 47t-115.5 84.5t-78.5 132.5t-30 184.5v612h167v-592q0 -66 20 -122.5t61 -102t110 -71.5t160 -26q113 0 239.5 43.5t235.5 108.5v762h169v-1604h-169v684z" />
<glyph unicode="&#x428;" horiz-adv-x="2463" d="M1315 1604v-1448h757v1448h168v-1604h-2017v1604h168v-1448h756v1448h168z" />
<glyph unicode="&#x429;" horiz-adv-x="2512" d="M1315 156h757v1448h168v-1448h172v-492h-158v336h-2031v1604h168v-1448h756v1448h168v-1448z" />
<glyph unicode="&#x42a;" horiz-adv-x="1644" d="M953 978q88 0 170 -13t165.5 -46.5t144.5 -84.5t99.5 -135.5t38.5 -191.5t-37.5 -198.5t-109.5 -161t-186 -108.5t-258 -39h-554v1448h-390v156h558v-626h359zM974 156q59 0 113.5 8.5t113.5 32t102 61t71 101t28 145.5q0 148 -113.5 234t-326.5 86h-368v-668h380z" />
<glyph unicode="&#x42b;" horiz-adv-x="1920" d="M750 978q88 0 170 -13t165.5 -46.5t144.5 -84.5t99.5 -135.5t38.5 -191.5t-37.5 -198.5t-109.5 -161t-186 -108.5t-258 -39h-554v1604h168v-626h359zM1529 0h168v1604h-168v-1604zM771 156q59 0 113.5 8.5t113.5 32t102 61t71 101t28 145.5q0 148 -113.5 234t-326.5 86 h-368v-668h380z" />
<glyph unicode="&#x42c;" horiz-adv-x="1441" d="M750 978q88 0 170 -13t165.5 -46.5t144.5 -84.5t99.5 -135.5t38.5 -191.5t-37.5 -198.5t-109.5 -161t-186 -108.5t-258 -39h-554v1604h168v-626h359zM771 156q59 0 113.5 8.5t113.5 32t102 61t71 101t28 145.5q0 148 -113.5 234t-326.5 86h-368v-668h380z" />
<glyph unicode="&#x42d;" horiz-adv-x="1728" d="M828 1621q167 0 312 -59.5t250 -165t165.5 -258.5t60.5 -332q0 -181 -61 -335.5t-167.5 -261t-254.5 -166.5t-317 -60q-94 0 -180 19t-153 51.5t-126 76.5t-102 92t-77.5 101t-56 100t-34.5 92l160 56q12 -34 26 -66.5t40 -77t57 -82t77 -76.5t98.5 -66t123.5 -44 t151 -17q255 0 424.5 166.5t189.5 429.5h-769v155h767q-19 168 -103 297.5t-216.5 200.5t-291.5 71q-113 0 -208.5 -34.5t-156 -83.5t-106.5 -111.5t-67 -109t-31 -85.5l-159 56q17 69 55.5 140t104 141t147.5 124.5t193.5 88t234.5 33.5z" />
<glyph unicode="&#x42e;" horiz-adv-x="2351" d="M1465 1620q136 0 257.5 -40.5t215 -114.5t161.5 -174.5t104 -224.5t36 -260q0 -171 -57 -322.5t-157.5 -262t-246.5 -174.5t-317 -64q-160 0 -299 57t-237.5 157t-159 237t-72.5 295h-302v-729h-168v1604h168v-720h302q13 156 74.5 291t160.5 233.5t238 155t299 56.5z M1465 140q180 0 318.5 89.5t210.5 238.5t72 329q0 136 -42 257t-118.5 212t-191.5 144.5t-253 53.5q-137 0 -251 -53.5t-189 -145t-116.5 -212t-41.5 -255.5q0 -134 42 -253t118.5 -209.5t191 -143t250.5 -52.5z" />
<glyph unicode="&#x42f;" horiz-adv-x="1479" d="M574 666q-195 25 -319 147.5t-124 314.5q0 97 31 176.5t84 134.5t126 92.5t156 55t174 17.5h554v-1604h-168v641h-331l-472 -641h-202zM713 1450q-82 0 -153.5 -19t-130.5 -57t-93 -103.5t-34 -150.5q0 -67 23 -123t63 -94.5t93 -65.5t112 -39.5t122 -12.5h373v665h-375z " />
<glyph unicode="&#x430;" d="M840 705q0 131 -71 198t-207 67q-66 0 -120 -19.5t-87.5 -53t-53.5 -71t-27 -79.5l-153 33q3 31 19 70.5t51.5 86.5t84 85.5t124.5 64.5t166 26q299 0 398 -226q33 -75 33 -181v-308q0 -275 18 -398h-160q-14 73 -14 192h-1q-137 -211 -369 -211q-164 0 -265.5 91 t-101.5 231v12q0 68 26.5 123.5t69.5 90.5t100.5 58.5t116.5 33.5t120 10h303v74zM535 499q-49 0 -93 -8.5t-85.5 -28t-66.5 -57t-25 -89.5q0 -90 66.5 -142t167.5 -52q147 0 244 95t97 244v38h-305z" />
<glyph unicode="&#x431;" horiz-adv-x="1344" d="M290 845q132 260 436 260q102 0 194.5 -38t163.5 -107t113.5 -173.5t42.5 -228.5q0 -261 -154.5 -418.5t-397.5 -157.5q-117 0 -214 38.5t-172 116t-117 205t-42 294.5q0 101 2.5 163t14 153t34 150.5t65.5 132t104 122t154 96t212 76.5l413 104l43 -134l-392 -103 q-93 -25 -166.5 -55.5t-124.5 -62t-88 -73.5t-58.5 -78t-36 -88.5t-20 -92.5t-11.5 -101h2zM307 548q0 -189 106.5 -308.5t277.5 -119.5t280 120.5t109 307.5q0 192 -109.5 306.5t-278.5 114.5q-170 0 -277.5 -113.5t-107.5 -307.5z" />
<glyph unicode="&#x432;" horiz-adv-x="1237" d="M717 1093q55 0 105 -9.5t96.5 -30.5t81 -52t55 -77.5t20.5 -103.5q0 -173 -183 -252q243 -65 243 -269q0 -63 -23 -114t-61.5 -85t-90.5 -57t-107.5 -33t-115.5 -10h-556v1093h536zM693 621q36 0 70 7.5t70.5 25t59 56t22.5 92.5q0 45 -21.5 77t-56.5 47.5t-69.5 22 t-71.5 6.5h-356v-334h353zM721 138q44 0 84.5 8t80 27.5t63.5 58t24 92.5q0 48 -23.5 82.5t-64 52t-86 25.5t-100.5 8h-359v-354h381z" />
<glyph unicode="&#x433;" horiz-adv-x="953" d="M340 952v-952h-159v1093h732v-141h-573z" />
<glyph unicode="&#x434;" horiz-adv-x="1357" d="M63 138q46 0 83 25t62 66t44.5 102t31 123.5t20.5 139.5l57 499h767v-952h128v-479h-154v338h-887v-338h-155v476h3zM460 581q-40 -345 -156 -440h665v811h-467z" />
<glyph unicode="&#x435;" horiz-adv-x="1244" d="M262 497q9 -160 120.5 -267t271.5 -107q123 0 211.5 60t126.5 174l142 -45q-47 -155 -179 -243t-299 -88q-156 0 -284 76t-199.5 206t-71.5 285q0 148 68 277.5t191.5 208.5t272.5 79q164 0 282.5 -74.5t176 -200t57.5 -287.5q0 -18 -2 -54h-885zM987 633 q-16 153 -109 246t-245 93q-139 0 -244 -99.5t-125 -239.5h723z" />
<glyph unicode="&#x436;" horiz-adv-x="1673" d="M1646 0h-217l-498 531h-15v-531h-159v531h-15l-498 -531h-217l534 563l-522 530h205l497 -504h16v504h159v-504h16l497 504h205l-522 -530z" />
<glyph unicode="&#x437;" horiz-adv-x="1083" d="M535 -19q-157 0 -286 85.5t-168 236.5l146 44q28 -108 114 -169t200 -61q49 0 96.5 12.5t88.5 37.5t66.5 66.5t25.5 94.5q0 67 -45 114.5t-105 66.5t-125 19q-73 0 -118 -14l-74 115l402 327h-643v137h838v-136l-376 -303q100 -2 190.5 -39.5t152.5 -112t62 -170.5 q0 -164 -134 -261q-125 -90 -308 -90z" />
<glyph unicode="&#x438;" horiz-adv-x="1322" d="M181 0v1093h159v-874l640 874h161v-1093h-159v867h-1l-639 -867h-161z" />
<glyph unicode="&#x439;" horiz-adv-x="1322" d="M661 1276q-127 0 -217.5 81t-114.5 211l114 22q53 -185 218 -185t218 185l114 -22q-25 -130 -115 -211t-217 -81zM181 0v1093h159v-874l639 874h162v-1093h-160v867h-1l-638 -867h-161z" />
<glyph unicode="&#x43a;" horiz-adv-x="1135" d="M352 612l531 481h220l-600 -529l630 -564h-224l-557 510h-12v-510h-159v1093h159v-481h12z" />
<glyph unicode="&#x43b;" horiz-adv-x="1297" d="M432 426q-8 -65 -25.5 -126.5t-48.5 -119.5t-72.5 -100t-101 -66t-128.5 -20l-6 1v141q56 0 99 31t68 82t38.5 100.5t19.5 103.5l73 640h768v-1093h-159v952h-465z" />
<glyph unicode="&#x43c;" horiz-adv-x="1650" d="M338 0h-157v1093h234l411 -886l408 886h235v-1093h-160v927h-3l-430 -927h-103l-431 924h-4v-924z" />
<glyph unicode="&#x43d;" horiz-adv-x="1309" d="M340 633h629v460h159v-1093h-159v491h-629v-491h-159v1093h159v-460z" />
<glyph unicode="&#x43e;" horiz-adv-x="1332" d="M663 -19q-155 0 -284.5 75t-203.5 204t-74 283q0 242 162.5 406t403.5 164q156 0 285.5 -74.5t204 -203.5t74.5 -284q0 -159 -75 -290t-205 -205.5t-288 -74.5zM667 123q173 0 287 123t114 297q0 176 -115 302.5t-290 126.5q-174 0 -286.5 -123t-112.5 -298 q0 -115 50.5 -212.5t143.5 -156.5t209 -59z" />
<glyph unicode="&#x43f;" horiz-adv-x="1299" d="M340 952v-952h-159v1093h937v-1093h-159v952h-619z" />
<glyph unicode="&#x440;" horiz-adv-x="1378" d="M1276 548q0 -149 -62.5 -276.5t-182 -207.5t-270.5 -80q-268 0 -421 241v-764h-159v1632h156v-237q168 257 424 257q114 0 212 -48t163.5 -127.5t102.5 -181t37 -208.5zM730 124q175 0 279 120.5t104 299.5q0 115 -44.5 211t-133 155.5t-205.5 59.5q-110 0 -201 -59 t-141 -155t-50 -206q0 -173 111 -299.5t281 -126.5z" />
<glyph unicode="&#x441;" horiz-adv-x="1259" d="M264 552q0 -115 46.5 -211.5t138 -157t211.5 -60.5q69 0 127.5 20t96 48t68.5 67t46 68t27 60l148 -50q-19 -64 -61.5 -125t-105.5 -113.5t-154 -84.5t-194 -32q-157 0 -284 71.5t-200 200.5t-73 290q0 162 76.5 293.5t205 204t282.5 72.5q185 0 326 -102.5t176 -246.5 l-147 -48q-8 28 -25 59.5t-48 67t-70 63.5t-96 46.5t-122 18.5q-171 0 -283 -122t-112 -297z" />
<glyph unicode="&#x442;" horiz-adv-x="1018" d="M978 952h-389v-952h-160v952h-389v141h938v-141z" />
<glyph unicode="&#x443;" horiz-adv-x="1216" d="M1179 1093l-748 -1632h-173l283 613l-497 1019h183l401 -845l379 845h172z" />
<glyph unicode="&#x444;" horiz-adv-x="1800" d="M819 93q-129 -110 -270 -110q-142 0 -243.5 77.5t-149.5 203.5t-48 286q0 162 51.5 289t152.5 200.5t237 73.5q85 0 148 -31.5t122 -86.5v609h160v-609q60 55 122 86.5t147 31.5q138 0 240 -75t153 -202t51 -290q0 -116 -28.5 -216.5t-82.5 -178.5t-140 -123t-194 -45 q-87 0 -147.5 28t-120.5 82v-593h-160v593zM819 864q-101 106 -236 106q-84 0 -146 -34t-97 -94.5t-51.5 -134.5t-16.5 -164q0 -72 9.5 -132.5t32 -114.5t57 -91.5t88.5 -59.5t124 -22q134 0 236 106v635zM979 229q102 -106 238 -106q69 0 123.5 22.5t89 60.5t57 93 t32 115.5t9.5 132.5q0 89 -17 163t-52.5 133.5t-97.5 93t-145 33.5q-136 0 -237 -106v-635z" />
<glyph unicode="&#x445;" horiz-adv-x="1129" d="M566 669l322 424h186l-415 -535l432 -558h-190l-338 445l-339 -445h-186l432 556l-416 537h188z" />
<glyph unicode="&#x446;" horiz-adv-x="1339" d="M340 1093v-952h611v952h159v-952h128v-479h-154v338h-903v1093h159z" />
<glyph unicode="&#x447;" d="M261 701q0 -102 60 -155.5t162 -53.5q89 0 182 28.5t159 74.5v498h159v-1093h-159v451q-66 -38 -169 -68.5t-193 -30.5q-160 0 -260 82.5t-100 243.5v415h159v-392z" />
<glyph unicode="&#x448;" horiz-adv-x="1882" d="M340 1093v-952h521v952h159v-952h521v952h160v-1093h-1520v1093h159z" />
<glyph unicode="&#x449;" horiz-adv-x="1930" d="M340 1093v-952h521v952h159v-952h521v952h160v-952h129v-479h-154v338h-1495v1093h159z" />
<glyph unicode="&#x44a;" horiz-adv-x="1376" d="M869 695q69 0 130.5 -10.5t119 -35.5t98.5 -62.5t65.5 -95t24.5 -129.5q0 -90 -34 -160.5t-92.5 -114t-133 -65.5t-159.5 -22h-526v952h-320v141h479v-398h348zM873 141q53 0 99 10.5t86.5 34.5t64 68t23.5 104q0 45 -16.5 80t-43 57t-63.5 36.5t-75.5 20t-81.5 5.5h-345 v-416h352z" />
<glyph unicode="&#x44b;" horiz-adv-x="1718" d="M687 695q69 0 131 -10.5t119 -35.5t98.5 -62.5t66 -95t24.5 -129.5q0 -90 -34 -160.5t-93 -114t-133 -65.5t-159 -22h-526v1093h159v-398h347zM1377 0h160v1093h-160v-1093zM692 141q53 0 99 10.5t86.5 34.5t64 68t23.5 104q0 45 -16.5 80t-43 57t-63.5 36.5t-75.5 20 t-81.5 5.5h-345v-416h352z" />
<glyph unicode="&#x44c;" horiz-adv-x="1195" d="M687 695q69 0 131 -10.5t119 -35.5t98.5 -62.5t66 -95t24.5 -129.5q0 -90 -34 -160.5t-93 -114t-133 -65.5t-159 -22h-526v1093h159v-398h347zM692 141q53 0 99 10.5t86.5 34.5t64 68t23.5 104q0 45 -16.5 80t-43 57t-63.5 36.5t-75.5 20t-81.5 5.5h-345v-416h352z" />
<glyph unicode="&#x44d;" horiz-adv-x="1257" d="M606 1113q151 0 276 -70.5t199 -199.5t74 -290q0 -164 -72 -294.5t-199 -204t-286 -73.5q-105 0 -196.5 32t-154 84.5t-104 113t-60.5 124.5l144 49q12 -30 28 -60t48 -68.5t71.5 -67t99 -48.5t128.5 -20q166 0 270.5 106.5t120.5 268.5h-519v139h514q-26 147 -132 243 t-254 96q-82 0 -151.5 -27t-113 -69t-69 -82t-36.5 -77l-141 47q35 141 183 244.5t332 103.5z" />
<glyph unicode="&#x44e;" horiz-adv-x="1769" d="M1121 1113q155 0 280 -74t195.5 -204t70.5 -290q0 -156 -71 -285t-197 -204t-280 -75q-217 0 -368.5 142t-172.5 359h-238v-482h-159v1093h159v-476h239q24 214 175 355t367 141zM1121 122q168 0 274.5 122.5t106.5 298.5q0 179 -107.5 305t-276.5 126q-114 0 -202 -60.5 t-133 -158t-45 -211.5q0 -174 108.5 -298t274.5 -124z" />
<glyph unicode="&#x44f;" horiz-adv-x="1201" d="M401 427q-124 28 -201.5 112.5t-77.5 213.5q0 51 14 98.5t45.5 91.5t78 77t117 53t157.5 20h486v-1093h-159v397h-300l-287 -397h-193zM542 952q-50 0 -94.5 -11t-83 -34t-61 -64.5t-22.5 -96.5q0 -90 67 -151.5t198 -61.5h315v419h-319z" />
<glyph unicode="&#x451;" horiz-adv-x="1244" d="M436 1277q-47 0 -84 36.5t-37 86.5t37 86.5t84 36.5t84 -36.5t37 -86.5t-37 -86.5t-84 -36.5zM826 1277q-47 0 -84 36.5t-37 86.5t37 86.5t84 36.5t84 -36.5t37 -86.5t-37 -86.5t-84 -36.5zM262 497q9 -160 120.5 -267t271.5 -107q123 0 211.5 60t126.5 174l142 -45 q-47 -155 -179 -243t-299 -88q-156 0 -284 76t-199.5 206t-71.5 285q0 148 68 277.5t191.5 208.5t272.5 79q164 0 282.5 -74.5t176 -200t57.5 -287.5q0 -18 -2 -54h-885zM987 633q-16 153 -109 246t-245 93q-139 0 -244 -99.5t-125 -239.5h723z" />
<glyph unicode="&#x452;" horiz-adv-x="1261" d="M1136 -114q0 -191 -110 -308.5t-301 -117.5q-112 0 -211 30l32 137q8 -2 33.5 -8t37 -8t34 -4.5t45.5 -2.5q121 0 201 88t80 232v710q0 152 -78.5 243t-226.5 91q-142 0 -237 -101t-95 -248v-619h-159v1298h-137v142h137v228h159v-228h400v-142h-400v-405 q134 221 381 221q197 0 306 -121.5t109 -317.5v-789z" />
<glyph unicode="&#x453;" horiz-adv-x="953" d="M834 1632l-263 -352h-153l222 352h194zM181 1093v-1093h159v952h573v141h-732z" />
<glyph unicode="&#x454;" horiz-adv-x="1259" d="M1175 335q-19 -64 -60.5 -124.5t-103.5 -113t-154.5 -84.5t-200.5 -32q-237 0 -395.5 158t-158.5 401q0 164 74.5 295.5t203.5 204.5t287 73q182 0 323.5 -102.5t176.5 -245.5l-141 -47q-11 37 -36 77t-67.5 82t-111 69t-150.5 27q-148 0 -257 -96t-136 -243h515v-139 h-519q18 -162 125 -268.5t273 -106.5q69 0 128 20t97 48.5t69 67.5t46.5 68t27.5 60z" />
<glyph unicode="&#x455;" horiz-adv-x="1006" d="M902 311q0 -146 -113 -237.5t-275 -91.5q-85 0 -155.5 22.5t-115.5 57t-77.5 79.5t-47.5 85.5t-20 80.5l146 38q7 -40 25.5 -77.5t49.5 -71t81 -54t113 -20.5q93 0 160 48.5t67 131.5q0 65 -53.5 106t-125.5 57l-167 37q-272 60 -272 285q0 85 38 151.5t96.5 102.5 t119 54t116.5 18q80 0 146.5 -20.5t108.5 -52t73 -72.5t45.5 -77t20.5 -71l-145 -41q-8 32 -22.5 61.5t-42 61.5t-75 51.5t-108.5 19.5q-89 0 -150 -51t-61 -124q0 -64 42.5 -97.5t115.5 -50.5l177 -40q56 -13 105 -36.5t90.5 -59t65.5 -88t24 -115.5z" />
<glyph unicode="&#x456;" horiz-adv-x="522" d="M141 1485q0 50 35 85t85 35t85 -35t35 -85t-35 -85t-85 -35t-85 35t-35 85zM341 0h-160v1093h160v-1093z" />
<glyph unicode="&#x457;" horiz-adv-x="522" d="M71 1277q-47 0 -84 36.5t-37 86.5t37 86.5t84 36.5t84 -36.5t37 -86.5t-37 -86.5t-84 -36.5zM452 1277q-47 0 -84 36.5t-37 86.5t37 86.5t84 36.5t84 -36.5t37 -86.5t-37 -86.5t-84 -36.5zM341 0h-160v1093h160v-1093z" />
<glyph unicode="&#x458;" horiz-adv-x="538" d="M157 1485q0 50 35 85t85 35t85 -35t35 -85t-35 -85t-85 -35q-49 0 -84.5 35.5t-35.5 84.5zM357 -234q0 -152 -79 -232t-232 -80q-38 0 -102 16v132q36 -7 79 -7q84 0 129 45.5t45 129.5v1323h160v-1327z" />
<glyph unicode="&#x459;" horiz-adv-x="1971" d="M1464 695q69 0 130.5 -10.5t119 -35.5t98.5 -62.5t65.5 -95t24.5 -129.5q0 -90 -34 -160.5t-92.5 -114t-133 -65.5t-159.5 -22h-526v952h-466l-59 -526q-9 -83 -35.5 -158.5t-71 -140t-114.5 -101.5t-156 -32l-5 1v141q56 0 99 31t68 82t38.5 100.5t19.5 103.5l72 640 h769v-398h348zM1468 141q53 0 99 10.5t86.5 34.5t64 68t23.5 104q0 56 -24 96t-65.5 62t-88.5 31.5t-102 9.5h-345v-416h352z" />
<glyph unicode="&#x45a;" horiz-adv-x="1981" d="M969 685v408h159v-408h351q69 0 130 -10.5t117.5 -35t97 -61.5t64.5 -93.5t24 -127.5q0 -89 -33 -158.5t-91 -112t-131.5 -64.5t-158.5 -22h-529v546h-629v-546h-159v1093h159v-408h629zM1483 141q53 0 98.5 10.5t85.5 34t63 66.5t23 102q0 55 -23.5 94t-64.5 60 t-87.5 30t-101.5 9h-348v-406h355z" />
<glyph unicode="&#x45b;" horiz-adv-x="1295" d="M969 636q0 151 -77.5 241.5t-225.5 90.5q-142 0 -234 -99t-92 -246v-623h-159v1298h-137v142h137v228h159v-228h399v-142h-399v-401q131 217 374 217q197 0 305.5 -120.5t108.5 -317.5v-676h-159v636z" />
<glyph unicode="&#x45c;" horiz-adv-x="1136" d="M924 1632l-263 -352h-153l222 352h194zM341 1093h-160v-1093h160v510h12l557 -510h224l-630 564l600 529h-220l-531 -481h-12v481z" />
<glyph unicode="&#x45e;" horiz-adv-x="1216" d="M612 1276q-127 0 -217.5 81t-114.5 211l114 22q53 -185 218 -185t218 185l114 -22q-24 -130 -114.5 -211t-217.5 -81zM1179 1093l-748 -1632h-173l283 613l-497 1019h183l401 -845l379 845h172z" />
<glyph unicode="&#x45f;" horiz-adv-x="1291" d="M181 1093h159v-952h611v952h159v-1093h-388v-338h-154v338h-387v1093z" />
<glyph unicode="&#x490;" horiz-adv-x="1189" d="M1142 1449l-751 -1v-1448h-168v1604h760v308h159v-463z" />
<glyph unicode="&#x491;" horiz-adv-x="953" d="M913 1388v-436h-573v-952h-159v1093h577v295h155z" />
<glyph unicode="&#x496;" horiz-adv-x="2082" d="M2050 156v-492h-158v336h-71l-701 779h-12v-779h-168v779h-12l-701 -779h-229l750 821l-717 783h220l678 -752h11v752h168v-752h11l678 752h220l-717 -783l607 -665h143z" />
<glyph unicode="&#x497;" horiz-adv-x="1702" d="M1492 0h-63l-498 531h-15v-531h-159v531h-15l-498 -531h-217l534 563l-522 530h205l497 -504h16v504h159v-504h16l497 504h205l-522 -530l400 -422h134v-479h-154v338z" />
<glyph unicode="&#x498;" horiz-adv-x="1336" d="M572 -12q-137 17 -246 87t-170.5 168t-75.5 208l163 30q9 -85 61 -162.5t145 -128.5t206 -51q46 0 97 11t105 37.5t96.5 65t70 98.5t27.5 133q0 138 -107.5 223t-278.5 85q-104 0 -168 -24l-79 133l549 549h-849v154h1064v-147l-510 -512q97 4 192.5 -22t165.5 -75 q89 -62 140 -155.5t51 -202.5q0 -119 -50.5 -218.5t-139.5 -168.5q-122 -93 -291 -115v-323h-168v323z" />
<glyph unicode="&#x499;" horiz-adv-x="1083" d="M465 -14q-137 18 -243 101t-141 216l146 44q28 -108 114 -169t200 -61q49 0 96.5 12.5t88.5 37.5t66.5 66.5t25.5 94.5q0 67 -45 114.5t-105 66.5t-125 19q-73 0 -118 -14l-74 115l402 327h-643v137h838v-136l-376 -303q100 -2 190.5 -39.5t152.5 -112t62 -170.5 q0 -164 -134 -261q-92 -66 -224 -84v-325h-154v324z" />
<glyph unicode="&#x49a;" horiz-adv-x="1423" d="M1121 1604h234l-786 -768l670 -680h154v-492h-158v336h-80l-752 772h-12v-772h-168v1604h168v-709h11z" />
<glyph unicode="&#x49b;" horiz-adv-x="1168" d="M979 0h-70l-557 510h-12v-510h-159v1093h159v-481h12l531 481h220l-600 -529l472 -423h158v-479h-154v338z" />
<glyph unicode="&#x4a2;" horiz-adv-x="1744" d="M1305 0v734h-914v-734h-168v1604h168v-710h914v710h168v-1448h171v-492h-158v336h-181z" />
<glyph unicode="&#x4a3;" horiz-adv-x="1357" d="M1102 0h-133v491h-629v-491h-159v1093h159v-460h629v460h159v-952h128v-479h-154v338z" />
<glyph unicode="&#x4aa;" horiz-adv-x="1719" d="M832 -13q-151 13 -283.5 78t-229.5 169t-152.5 250t-55.5 313q0 178 65 333.5t174.5 262t257.5 167.5t311 61q126 0 236.5 -34t189 -88t140 -124.5t97 -141t52.5 -140.5l-161 -57q-10 39 -29.5 85t-64.5 109t-103.5 112t-153.5 84t-207 35q-127 0 -242 -48t-200.5 -133 t-135.5 -208t-50 -265q0 -188 81 -340t225 -238t323 -86q110 0 202 33t149.5 78.5t104 110.5t68 111t38.5 97l162 -58q-17 -61 -47.5 -122.5t-85 -131t-123 -124.5t-169 -96.5t-215.5 -52.5v-323h-168v322z" />
<glyph unicode="&#x4ab;" horiz-adv-x="1259" d="M582 -14q-211 26 -346 179.5t-135 377.5q0 162 76.5 293.5t205 204t281.5 72.5q186 0 327 -102.5t176 -246.5l-147 -48q-8 28 -25 59.5t-48 67t-70 63.5t-96.5 46.5t-122.5 18.5q-171 0 -282.5 -122t-111.5 -297q0 -115 46 -211.5t137.5 -157t211.5 -60.5q69 0 127.5 20 t96 48t68.5 67t46 68t27 60l148 -50q-37 -124 -152 -226t-284 -124v-324h-154v324z" />
<glyph unicode="&#x4ac;" horiz-adv-x="1334" d="M579 0v1446h-536v158h1240v-158h-535v-1290h172v-492h-158v336h-183z" />
<glyph unicode="&#x4ad;" horiz-adv-x="1025" d="M978 1093v-141h-389v-811h128v-479h-154v338h-134v952h-389v141h938z" />
<glyph unicode="&#x4b2;" horiz-adv-x="1531" d="M1503 156v-492h-158v336h-93l-521 701l-518 -701h-197l615 821l-588 783h197l495 -661l490 661h196l-587 -781l497 -667h172z" />
<glyph unicode="&#x4b3;" horiz-adv-x="1155" d="M937 0h-36l-338 445l-339 -445h-186l432 556l-416 537h188l324 -424l322 424h186l-415 -535l323 -417h109v-479h-154v338z" />
<glyph unicode="&#x4b6;" horiz-adv-x="1557" d="M1117 0v684q-104 -61 -245.5 -107.5t-240.5 -46.5q-77 0 -146.5 13.5t-136.5 47t-115.5 84.5t-78.5 132.5t-30 184.5v612h167v-592q0 -66 20 -122.5t61 -102t110 -71.5t160 -26q113 0 239.5 43.5t235.5 108.5v762h169v-1448h171v-492h-158v336h-182z" />
<glyph unicode="&#x4b7;" horiz-adv-x="1212" d="M957 0h-133v451q-66 -38 -169 -68.5t-193 -30.5q-160 0 -260 82.5t-100 243.5v415h159v-392q0 -102 60 -155.5t162 -53.5q89 0 182 28.5t159 74.5v498h159v-952h128v-479h-154v338z" />
<glyph unicode="&#x4c0;" horiz-adv-x="614" d="M391 0h-168v1604h168v-1604z" />
<glyph unicode="&#x4c1;" horiz-adv-x="2048" d="M1024 1751q-127 0 -217.5 81t-114.5 211l114 22q53 -185 218 -185q163 0 218 185l114 -22q-24 -130 -115 -211t-217 -81zM2050 0h-229l-701 779h-12v-779h-168v779h-12l-701 -779h-229l750 821l-717 783h220l678 -752h11v752h168v-752h11l678 752h220l-717 -783z" />
<glyph unicode="&#x4c2;" horiz-adv-x="1673" d="M837 1276q-127 0 -217.5 81t-114.5 211l114 22q53 -185 218 -185t218 185l114 -22q-24 -130 -114.5 -211t-217.5 -81zM1646 0h-217l-498 531h-15v-531h-159v531h-15l-498 -531h-217l534 563l-522 530h205l497 -504h16v504h159v-504h16l497 504h205l-522 -530z" />
<glyph unicode="&#x4cf;" horiz-adv-x="522" d="M341 0h-160v1093h160v-1093z" />
<glyph unicode="&#x4d0;" horiz-adv-x="1588" d="M790 1751q-127 0 -217.5 81t-114.5 211l114 22q53 -185 218 -185q163 0 218 185l114 -22q-24 -130 -115 -211t-217 -81zM1581 0h-178l-175 410h-873l-176 -410h-172l691 1604h191zM790 1430l-372 -867h745z" />
<glyph unicode="&#x4d1;" d="M566 1276q-127 0 -217.5 81t-114.5 211l114 22q53 -185 218 -185t218 185l114 -22q-24 -130 -114.5 -211t-217.5 -81zM840 705q0 131 -71 198t-207 67q-66 0 -120 -19.5t-87.5 -53t-53.5 -71t-27 -79.5l-153 33q3 31 19 70.5t51.5 86.5t84 85.5t124.5 64.5t166 26 q299 0 398 -226q33 -75 33 -181v-308q0 -275 18 -398h-160q-14 73 -14 192h-1q-137 -211 -369 -211q-164 0 -265.5 91t-101.5 231v12q0 68 26.5 123.5t69.5 90.5t100.5 58.5t116.5 33.5t120 10h303v74zM535 499q-49 0 -93 -8.5t-85.5 -28t-66.5 -57t-25 -89.5 q0 -90 66.5 -142t167.5 -52q147 0 244 95t97 244v38h-305z" />
<glyph unicode="&#x4d2;" horiz-adv-x="1588" d="M585 1757q-47 0 -84 36.5t-37 86.5t37 86.5t84 36.5t84 -36.5t37 -86.5t-37 -86.5t-84 -36.5zM995 1757q-47 0 -84 36.5t-37 86.5t37 86.5t84 36.5t84 -36.5t37 -86.5t-37 -86.5t-84 -36.5zM1581 0h-178l-175 410h-873l-176 -410h-172l691 1604h191zM790 1430l-372 -867 h745z" />
<glyph unicode="&#x4d3;" d="M373 1277q-47 0 -84 36.5t-37 86.5t37 86.5t84 36.5t84 -36.5t37 -86.5t-37 -86.5t-84 -36.5zM763 1277q-47 0 -84 36.5t-37 86.5t37 86.5t84 36.5t84 -36.5t37 -86.5t-37 -86.5t-84 -36.5zM537 631q-61 0 -120 -10t-116.5 -33.5t-100.5 -58.5t-69.5 -90.5t-26.5 -123.5 v-12q0 -140 101.5 -231t265.5 -91q232 0 369 211h1q0 -119 14 -192h160q-18 123 -18 398v308q0 106 -33 181q-99 226 -398 226q-90 0 -166 -26t-124.5 -64.5t-84 -85.5t-51.5 -86.5t-19 -70.5l153 -33q7 42 27 79.5t53.5 71t87.5 53t120 19.5q136 0 207 -67t71 -198v-74 h-303zM840 461q0 -149 -97 -244t-244 -95q-101 0 -167.5 52t-66.5 142q0 52 25 89.5t66.5 57t85.5 28t93 8.5h305v-38z" />
<glyph unicode="&#x4d4;" horiz-adv-x="2145" d="M1177 1448v-555h764v-155h-764v-582h844l-1 -156h-1009v410h-613l-233 -410h-183l921 1604h1109l1 -156h-836zM484 563h527v890h-22z" />
<glyph unicode="&#x4d5;" horiz-adv-x="1981" d="M844 705q0 131 -71.5 198t-207.5 67q-133 0 -205 -64.5t-88 -156.5l-151 31q3 31 19 70.5t52 86.5t84.5 85.5t125 64.5t166.5 26q148 0 248 -62t138 -166q65 104 177 166t242 62q245 0 379 -156.5t134 -405.5q0 -18 -2 -54h-887q5 -156 119.5 -265t274.5 -109 q123 0 211.5 60t126.5 174l142 -45q-47 -155 -180.5 -243t-299.5 -88q-148 0 -269 69t-194 187q-148 -256 -443 -256h-6q-167 0 -271 91t-104 231v12q0 85 39.5 148.5t105 98.5t138 51.5t150.5 16.5h307v75zM1725 633q-13 152 -107.5 245.5t-247.5 93.5 q-140 0 -248.5 -101.5t-123.5 -237.5h727zM535 499q-49 0 -93 -8.5t-85.5 -28t-66.5 -57t-25 -89.5q0 -90 67.5 -142t169.5 -52q147 0 244.5 95t97.5 244v38h-309z" />
<glyph unicode="&#x4d6;" horiz-adv-x="1359" d="M729 1751q-127 0 -217.5 81t-114.5 211l114 22q53 -185 218 -185q163 0 218 185l114 -22q-24 -130 -115 -211t-217 -81zM1155 738h-764v-582h843v-156h-1011v1604h1003v-156h-835v-555h764v-155z" />
<glyph unicode="&#x4d7;" horiz-adv-x="1244" d="M635 1276q-127 0 -217.5 81t-114.5 211l114 22q53 -185 218 -185t218 185l114 -22q-24 -130 -114.5 -211t-217.5 -81zM262 497q9 -160 120.5 -267t271.5 -107q123 0 211.5 60t126.5 174l142 -45q-47 -155 -179 -243t-299 -88q-156 0 -284 76t-199.5 206t-71.5 285 q0 148 68 277.5t191.5 208.5t272.5 79q164 0 282.5 -74.5t176 -200t57.5 -287.5q0 -18 -2 -54h-885zM987 633q-16 153 -109 246t-245 93q-139 0 -244 -99.5t-125 -239.5h723z" />
<glyph unicode="&#x4dc;" horiz-adv-x="2048" d="M829 1757q-47 0 -84 36.5t-37 86.5t37 86.5t84 36.5t84 -36.5t37 -86.5t-37 -86.5t-84 -36.5zM1219 1757q-47 0 -84 36.5t-37 86.5t37 86.5t84 36.5t84 -36.5t37 -86.5t-37 -86.5t-84 -36.5zM2050 0h-229l-701 779h-12v-779h-168v779h-12l-701 -779h-229l750 821 l-717 783h220l678 -752h11v752h168v-752h11l678 752h220l-717 -783z" />
<glyph unicode="&#x4dd;" horiz-adv-x="1673" d="M642 1277q-47 0 -84 36.5t-37 86.5t37 86.5t84 36.5t84 -36.5t37 -86.5t-37 -86.5t-84 -36.5zM1032 1277q-47 0 -84 36.5t-37 86.5t37 86.5t84 36.5t84 -36.5t37 -86.5t-37 -86.5t-84 -36.5zM1646 0h-217l-498 531h-15v-531h-159v531h-15l-498 -531h-217l534 563 l-522 530h205l497 -504h16v504h159v-504h16l497 504h205l-522 -530z" />
<glyph unicode="&#x4de;" horiz-adv-x="1336" d="M446 1757q-47 0 -84 36.5t-37 86.5t37 86.5t84 36.5t84 -36.5t37 -86.5t-37 -86.5t-84 -36.5zM856 1757q-47 0 -84 36.5t-37 86.5t37 86.5t84 36.5t84 -36.5t37 -86.5t-37 -86.5t-84 -36.5zM655 -17q-120 0 -224.5 39.5t-176.5 105.5t-117.5 149.5t-56.5 173.5l163 30 q9 -85 61 -162.5t145 -128.5t206 -51q46 0 97 11t105 37.5t96.5 65t70 98.5t27.5 133q0 138 -107.5 223t-278.5 85q-104 0 -168 -24l-79 133l549 549h-849v154h1064v-147l-510 -512q97 4 192.5 -22t165.5 -75q89 -62 140 -155.5t51 -202.5q0 -119 -50.5 -218.5 t-139.5 -168.5q-157 -120 -376 -120z" />
<glyph unicode="&#x4df;" horiz-adv-x="1083" d="M334 1277q-47 0 -84 36.5t-37 86.5t37 86.5t84 36.5t84 -36.5t37 -86.5t-37 -86.5t-84 -36.5zM724 1277q-47 0 -84 36.5t-37 86.5t37 86.5t84 36.5t84 -36.5t37 -86.5t-37 -86.5t-84 -36.5zM535 -19q-157 0 -286 85.5t-168 236.5l146 44q28 -108 114 -169t200 -61 q49 0 96.5 12.5t88.5 37.5t66.5 66.5t25.5 94.5q0 67 -45 114.5t-105 66.5t-125 19q-73 0 -118 -14l-74 115l402 327h-643v137h838v-136l-376 -303q100 -2 190.5 -39.5t152.5 -112t62 -170.5q0 -164 -134 -261q-125 -90 -308 -90z" />
<glyph unicode="&#x4e2;" horiz-adv-x="1723" d="M516 1811v144h691v-144h-691zM223 0v1604h168v-1378l913 1378h196v-1604h-166v1385l-917 -1385h-194z" />
<glyph unicode="&#x4e3;" horiz-adv-x="1322" d="M315 1311v144h690v-144h-690zM181 0v1093h159v-874l640 874h161v-1093h-159v867h-1l-639 -867h-161z" />
<glyph unicode="&#x4e4;" horiz-adv-x="1723" d="M657 1757q-47 0 -84 36.5t-37 86.5t37 86.5t84 36.5t84 -36.5t37 -86.5t-37 -86.5t-84 -36.5zM1067 1757q-47 0 -84 36.5t-37 86.5t37 86.5t84 36.5t84 -36.5t37 -86.5t-37 -86.5t-84 -36.5zM223 0v1604h168v-1378l913 1378h196v-1604h-166v1385l-917 -1385h-194z" />
<glyph unicode="&#x4e5;" horiz-adv-x="1322" d="M466 1277q-47 0 -84 36.5t-37 86.5t37 86.5t84 36.5t84 -36.5t37 -86.5t-37 -86.5t-84 -36.5zM856 1277q-47 0 -84 36.5t-37 86.5t37 86.5t84 36.5t84 -36.5t37 -86.5t-37 -86.5t-84 -36.5zM181 0v1093h159v-874l640 874h161v-1093h-159v867h-1l-639 -867h-161z" />
<glyph unicode="&#x4e6;" horiz-adv-x="1833" d="M714 1757q-47 0 -84 36.5t-37 86.5t37 86.5t84 36.5t84 -36.5t37 -86.5t-37 -86.5t-84 -36.5zM1124 1757q-47 0 -84 36.5t-37 86.5t37 86.5t84 36.5t84 -36.5t37 -86.5t-37 -86.5t-84 -36.5zM1723 806q0 169 -61.5 319.5t-167.5 259t-256 172t-319 63.5 q-228 0 -414 -109.5t-290.5 -298t-104.5 -415.5q0 -169 61.5 -319.5t167.5 -259t256 -172t319 -63.5q228 0 414 109.5t290.5 297.5t104.5 416zM1548 797q0 -179 -79.5 -328.5t-224.5 -238.5t-325 -89q-137 0 -256 53.5t-201.5 143.5t-129.5 212t-47 256q0 179 79.5 328.5 t224.5 239t325 89.5q137 0 256 -53.5t201.5 -144t129.5 -212.5t47 -256z" />
<glyph unicode="&#x4e7;" horiz-adv-x="1332" d="M472 1277q-47 0 -84 36.5t-37 86.5t37 86.5t84 36.5t84 -36.5t37 -86.5t-37 -86.5t-84 -36.5zM862 1277q-47 0 -84 36.5t-37 86.5t37 86.5t84 36.5t84 -36.5t37 -86.5t-37 -86.5t-84 -36.5zM663 -19q-155 0 -284.5 75t-203.5 204t-74 283q0 242 162.5 406t403.5 164 q156 0 285.5 -74.5t204 -203.5t74.5 -284q0 -159 -75 -290t-205 -205.5t-288 -74.5zM667 123q173 0 287 123t114 297q0 176 -115 302.5t-290 126.5q-174 0 -286.5 -123t-112.5 -298q0 -115 50.5 -212.5t143.5 -156.5t209 -59z" />
<glyph unicode="&#x4e8;" horiz-adv-x="1833" d="M914 -17q-169 0 -319 63.5t-256 172t-167.5 259t-61.5 319.5q0 227 104.5 415.5t290.5 298t414 109.5q169 0 319 -63.5t256 -172t167.5 -259t61.5 -319.5q0 -228 -104.5 -416t-290.5 -297.5t-414 -109.5zM914 1464q-166 0 -303 -76.5t-220.5 -206t-102.5 -288.5h1256 q-21 159 -105 288.5t-221.5 206t-303.5 76.5zM286 738q11 -123 62.5 -232.5t133.5 -190.5t195.5 -128t241.5 -47t241 47t194.5 127.5t132.5 190t61 233.5h-1262z" />
<glyph unicode="&#x4e9;" horiz-adv-x="1332" d="M663 -19q-155 0 -284.5 75t-203.5 204t-74 283q0 242 162.5 406t403.5 164q156 0 285.5 -74.5t204 -203.5t74.5 -284q0 -159 -75 -290t-205 -205.5t-288 -74.5zM663 974q-156 0 -265 -100t-132 -251h799q-26 150 -136.5 250.5t-265.5 100.5zM265 487q21 -156 132 -261 t270 -105t270.5 105t130.5 261h-803z" />
<glyph unicode="&#x4ea;" horiz-adv-x="1833" d="M835 1880q0 -50 -37 -86.5t-84 -36.5t-84 36.5t-37 86.5t37 86.5t84 36.5t84 -36.5t37 -86.5zM1245 1880q0 -50 -37 -86.5t-84 -36.5t-84 36.5t-37 86.5t37 86.5t84 36.5t84 -36.5t37 -86.5zM914 -17q-169 0 -319 63.5t-256 172t-167.5 259t-61.5 319.5 q0 227 104.5 415.5t290.5 298t414 109.5q169 0 319 -63.5t256 -172t167.5 -259t61.5 -319.5q0 -228 -104.5 -416t-290.5 -297.5t-414 -109.5zM914 1464q-166 0 -303 -76.5t-220.5 -206t-102.5 -288.5h1256q-21 159 -105 288.5t-221.5 206t-303.5 76.5zM286 738 q11 -123 62.5 -232.5t133.5 -190.5t195.5 -128t241.5 -47t241 47t194.5 127.5t132.5 190t61 233.5h-1262z" />
<glyph unicode="&#x4eb;" horiz-adv-x="1332" d="M593 1400q0 -50 -37 -86.5t-84 -36.5t-84 36.5t-37 86.5t37 86.5t84 36.5t84 -36.5t37 -86.5zM983 1400q0 -50 -37 -86.5t-84 -36.5t-84 36.5t-37 86.5t37 86.5t84 36.5t84 -36.5t37 -86.5zM663 -19q-155 0 -284.5 75t-203.5 204t-74 283q0 242 162.5 406t403.5 164 q156 0 285.5 -74.5t204 -203.5t74.5 -284q0 -159 -75 -290t-205 -205.5t-288 -74.5zM663 974q-156 0 -265 -100t-132 -251h799q-26 150 -136.5 250.5t-265.5 100.5zM265 487q21 -156 132 -261t270 -105t270.5 105t130.5 261h-803z" />
<glyph unicode="&#x4ec;" horiz-adv-x="1728" d="M645 1757q-47 0 -84 36.5t-37 86.5t37 86.5t84 36.5t84 -36.5t37 -86.5t-37 -86.5t-84 -36.5zM1055 1757q-47 0 -84 36.5t-37 86.5t37 86.5t84 36.5t84 -36.5t37 -86.5t-37 -86.5t-84 -36.5zM828 1621q167 0 312 -59.5t250 -165t165.5 -258.5t60.5 -332 q0 -181 -61 -335.5t-167.5 -261t-254.5 -166.5t-317 -60q-94 0 -180 19t-153 51.5t-126 76.5t-102 92t-77.5 101t-56 100t-34.5 92l160 56q12 -34 26 -66.5t40 -77t57 -82t77 -76.5t98.5 -66t123.5 -44t151 -17q255 0 424.5 166.5t189.5 429.5h-769v155h767 q-19 168 -103 297.5t-216.5 200.5t-291.5 71q-113 0 -208.5 -34.5t-156 -83.5t-106.5 -111.5t-67 -109t-31 -85.5l-159 56q17 69 55.5 140t104 141t147.5 124.5t193.5 88t234.5 33.5z" />
<glyph unicode="&#x4ed;" horiz-adv-x="1257" d="M424 1277q-47 0 -84 36.5t-37 86.5t37 86.5t84 36.5t84 -36.5t37 -86.5t-37 -86.5t-84 -36.5zM814 1277q-47 0 -84 36.5t-37 86.5t37 86.5t84 36.5t84 -36.5t37 -86.5t-37 -86.5t-84 -36.5zM606 1113q151 0 276 -70.5t199 -199.5t74 -290q0 -164 -72 -294.5t-199 -204 t-286 -73.5q-105 0 -196.5 32t-154 84.5t-104 113t-60.5 124.5l144 49q12 -30 28 -60t48 -68.5t71.5 -67t99 -48.5t128.5 -20q166 0 270.5 106.5t120.5 268.5h-519v139h514q-26 147 -132 243t-254 96q-82 0 -151.5 -27t-113 -69t-69 -82t-36.5 -77l-141 47q35 141 183 244.5 t332 103.5z" />
<glyph unicode="&#x4ee;" horiz-adv-x="1424" d="M392 1811v144h690v-144h-690zM838 409q-40 -80 -71.5 -133.5t-71 -103.5t-81 -79.5t-96.5 -52t-121.5 -31.5t-153.5 -9h-115v156h106q37 0 57 0.5t60.5 5.5t67 14.5t65 28.5t67 46.5t60 70t56.5 97.5l-643 1185h191l539 -1012l494 1012h185z" />
<glyph unicode="&#x4ef;" horiz-adv-x="1216" d="M268 1311v144h690v-144h-690zM1179 1093l-748 -1632h-173l283 613l-497 1019h183l401 -845l379 845h172z" />
<glyph unicode="&#x4f0;" horiz-adv-x="1424" d="M554 1757q-47 0 -84 36.5t-37 86.5t37 86.5t84 36.5t84 -36.5t37 -86.5t-37 -86.5t-84 -36.5zM964 1757q-47 0 -84 36.5t-37 86.5t37 86.5t84 36.5t84 -36.5t37 -86.5t-37 -86.5t-84 -36.5zM838 409q-40 -80 -71.5 -133.5t-71 -103.5t-81 -79.5t-96.5 -52t-121.5 -31.5 t-153.5 -9h-115v156h106q37 0 57 0.5t60.5 5.5t67 14.5t65 28.5t67 46.5t60 70t56.5 97.5l-643 1185h191l539 -1012l494 1012h185z" />
<glyph unicode="&#x4f1;" horiz-adv-x="1216" d="M425 1277q-47 0 -84 36.5t-37 86.5t37 86.5t84 36.5t84 -36.5t37 -86.5t-37 -86.5t-84 -36.5zM815 1277q-47 0 -84 36.5t-37 86.5t37 86.5t84 36.5t84 -36.5t37 -86.5t-37 -86.5t-84 -36.5zM431 -539l748 1632h-172l-379 -845l-401 845h-183l497 -1019l-283 -613h173z " />
<glyph unicode="&#x4f2;" horiz-adv-x="1424" d="M895 2103l-263 -352h-152l221 352h194zM1248 2103l-263 -352h-152l221 352h194zM838 409q-40 -80 -71.5 -133.5t-71 -103.5t-81 -79.5t-96.5 -52t-121.5 -31.5t-153.5 -9h-115v156h106q37 0 57 0.5t60.5 5.5t67 14.5t65 28.5t67 46.5t60 70t56.5 97.5l-643 1185h191 l539 -1012l494 1012h185z" />
<glyph unicode="&#x4f3;" horiz-adv-x="1216" d="M785 1632l-263 -352h-152l221 352h194zM1138 1632l-263 -352h-152l221 352h194zM1179 1093l-748 -1632h-173l283 613l-497 1019h183l401 -845l379 845h172z" />
<glyph unicode="&#x4f4;" horiz-adv-x="1509" d="M500 1757q-47 0 -84 36.5t-37 86.5t37 86.5t84 36.5t84 -36.5t37 -86.5t-37 -86.5t-84 -36.5zM910 1757q-47 0 -84 36.5t-37 86.5t37 86.5t84 36.5t84 -36.5t37 -86.5t-37 -86.5t-84 -36.5zM1117 684q-104 -61 -245.5 -107.5t-240.5 -46.5q-77 0 -146.5 13.5t-136.5 47 t-115.5 84.5t-78.5 132.5t-30 184.5v612h167v-592q0 -66 20 -122.5t61 -102t110 -71.5t160 -26q113 0 239.5 43.5t235.5 108.5v762h169v-1604h-169v684z" />
<glyph unicode="&#x4f5;" d="M348 1277q-47 0 -84 36.5t-37 86.5t37 86.5t84 36.5t84 -36.5t37 -86.5t-37 -86.5t-84 -36.5zM738 1277q-47 0 -84 36.5t-37 86.5t37 86.5t84 36.5t84 -36.5t37 -86.5t-37 -86.5t-84 -36.5zM261 701q0 -102 60 -155.5t162 -53.5q89 0 182 28.5t159 74.5v498h159v-1093 h-159v451q-66 -38 -169 -68.5t-193 -30.5q-160 0 -260 82.5t-100 243.5v415h159v-392z" />
<glyph unicode="&#x4f8;" horiz-adv-x="1920" d="M755 1757q-47 0 -84 36.5t-37 86.5t37 86.5t84 36.5t84 -36.5t37 -86.5t-37 -86.5t-84 -36.5zM1165 1757q-47 0 -84 36.5t-37 86.5t37 86.5t84 36.5t84 -36.5t37 -86.5t-37 -86.5t-84 -36.5zM750 978q88 0 170 -13t165.5 -46.5t144.5 -84.5t99.5 -135.5t38.5 -191.5 t-37.5 -198.5t-109.5 -161t-186 -108.5t-258 -39h-554v1604h168v-626h359zM1529 0h168v1604h-168v-1604zM771 156q59 0 113.5 8.5t113.5 32t102 61t71 101t28 145.5q0 148 -113.5 234t-326.5 86h-368v-668h380z" />
<glyph unicode="&#x4f9;" horiz-adv-x="1718" d="M665 1277q-47 0 -84 36.5t-37 86.5t37 86.5t84 36.5t84 -36.5t37 -86.5t-37 -86.5t-84 -36.5zM1055 1277q-47 0 -84 36.5t-37 86.5t37 86.5t84 36.5t84 -36.5t37 -86.5t-37 -86.5t-84 -36.5zM687 695q69 0 131 -10.5t119 -35.5t98.5 -62.5t66 -95t24.5 -129.5 q0 -90 -34 -160.5t-93 -114t-133 -65.5t-159 -22h-526v1093h159v-398h347zM1377 0h160v1093h-160v-1093zM692 141q53 0 99 10.5t86.5 34.5t64 68t23.5 104q0 45 -16.5 80t-43 57t-63.5 36.5t-75.5 20t-81.5 5.5h-345v-416h352z" />
<glyph unicode="&#xe3f;" horiz-adv-x="1504" d="M1071 834q84 -22 149 -69.5t99.5 -105.5t51 -113.5t16.5 -105.5q0 -112 -45.5 -198t-125 -138t-180 -78t-216.5 -26h-5v-209h-140v209h-452v1604h452v221h140v-221q144 -3 255.5 -49t178 -137.5t66.5 -216.5q0 -28 -3.5 -57t-18 -74.5t-39 -85t-72 -81t-111.5 -69.5z M676 1450h-286v-559h286v559zM1144 1181q0 68 -26 119.5t-73 83t-104.5 47.5t-126.5 19v-558q168 9 249 89t81 200zM676 741h-286v-587h286v587zM824 154q55 0 107.5 9t104.5 30.5t91 54.5t63 85.5t24 118.5q0 63 -24.5 113.5t-64 82t-93 52.5t-107 30t-111.5 11v-587h10z " />
<glyph unicode="&#x1e20;" horiz-adv-x="1760" d="M580 1811v144h690v-144h-690zM1469 1086q-14 44 -38.5 89.5t-71 99t-105.5 94t-147.5 68t-190.5 27.5q-135 0 -253.5 -53.5t-200.5 -143.5t-129.5 -210t-47.5 -251q0 -109 28 -209t83 -182.5t131 -144t177 -95.5t216 -34q107 0 205.5 32.5t176.5 92.5t127 151.5t56 202.5 h-670v156h849v-61q0 -152 -52 -285t-146.5 -232t-236.5 -156.5t-313 -57.5q-179 0 -331 62.5t-255.5 171.5t-161.5 258.5t-58 320.5q0 228 106 416.5t292.5 297.5t413.5 109q142 0 263.5 -38.5t207.5 -106.5t145 -151t92 -181z" />
<glyph unicode="&#x1e21;" horiz-adv-x="1379" d="M308 1311v144h692v-144h-692zM1039 244q-149 -249 -424 -249q-152 0 -270.5 77.5t-180 203.5t-61.5 276q0 144 62.5 271.5t181.5 208.5t268 81q77 0 143.5 -20t118 -56.5t90 -78t74.5 -94.5v229h157v-1067q0 -280 -154.5 -426.5t-414.5 -146.5q-204 0 -347.5 107.5 t-174.5 267.5l147 49q8 -36 24 -72.5t47 -75.5t71 -68.5t100 -48.5t131 -19q87 0 159 23.5t130 72.5t90.5 132.5t32.5 194.5v228zM648 136q169 0 281 123.5t112 295.5q0 108 -50.5 203t-141.5 154t-201 59q-176 0 -279 -119.5t-103 -302.5q0 -114 44.5 -207t133 -149.5 t204.5 -56.5z" />
<glyph unicode="&#x1e30;" horiz-adv-x="1390" d="M1067 2103l-263 -352h-153l222 352h194zM1358 1604l-786 -768l824 -836h-238l-752 772h-12v-772h-171v1604h171v-709h11l719 709h234z" />
<glyph unicode="&#x1e31;" horiz-adv-x="1116" d="M860 1093h227l-576 -491l603 -602h-224l-543 547h-7v-547h-159v1669h159v-1020zM705 1280l263 352h-194l-222 -352h153z" />
<glyph unicode="&#x1e60;" horiz-adv-x="1317" d="M651 1756q-48 0 -85.5 37t-37.5 89q0 51 37.5 88t85.5 37t85.5 -37t37.5 -88q0 -52 -37.5 -89t-85.5 -37zM670 -16q150 0 270.5 56.5t191 164.5t70.5 249q0 65 -32 145.5t-106 149.5q-107 100 -311 140l-204 40q-117 23 -175.5 91.5t-58.5 161.5q0 124 101 204t236 80 q72 0 132.5 -18t101 -46.5t72 -66t48.5 -73.5t26 -73l153 48q-10 54 -34 106t-67.5 103t-101.5 89.5t-142 62t-184 23.5q-135 0 -251 -53.5t-189 -157.5t-73 -236q0 -170 114 -277q58 -55 133 -89t141 -47l213 -42q39 -8 75 -20t76 -35.5t68.5 -53.5t47.5 -75.5t19 -99.5 q0 -72 -30.5 -129.5t-82 -92.5t-114.5 -53t-133 -18q-147 0 -265 99t-145 241l-160 -44q9 -85 55.5 -166.5t119.5 -145.5t177 -103t218 -39z" />
<glyph unicode="&#x1e61;" horiz-adv-x="1007" d="M499 1277q-49 0 -86 37t-37 89q0 51 37 88t86 37q48 0 85.5 -37t37.5 -88q0 -52 -37.5 -89t-85.5 -37zM903 311q0 63 -24 115.5t-65.5 88t-90.5 59t-105 36.5l-177 40q-73 17 -115.5 50.5t-42.5 97.5q0 73 61 124t150 51q61 0 108.5 -19.5t75 -51.5t42 -61.5t22.5 -61.5 l145 41q-6 35 -20.5 71t-45.5 77t-73 72.5t-108.5 52t-146.5 20.5q-44 0 -91.5 -10.5t-98 -35.5t-90.5 -61t-65.5 -93t-25.5 -126q0 -67 23 -118.5t64 -83.5t85.5 -51.5t100.5 -31.5l167 -37q72 -16 125.5 -57t53.5 -106q0 -83 -67 -131.5t-160 -48.5q-63 0 -113 20.5 t-81 54t-49.5 71t-25.5 77.5l-147 -38q5 -40 20.5 -81t48 -85.5t77.5 -79t115.5 -57t155.5 -22.5q162 0 275 91.5t113 237.5z" />
<glyph unicode="&#x1e80;" horiz-adv-x="2349" d="M1100 1751l-263 352h194l222 -352h-153zM1272 1604l426 -1368h3l422 1368h170l-504 -1604h-187l-428 1377l-430 -1377h-185l-502 1604h177l420 -1361h4l423 1361h191z" />
<glyph unicode="&#x1e81;" horiz-adv-x="1774" d="M810 1280l-263 352h194l222 -352h-153zM806 1093h161l299 -908h1l290 908h165l-368 -1093h-178l-290 889h-1l-292 -889h-175l-366 1093h169l287 -907h1z" />
<glyph unicode="&#x1e82;" horiz-adv-x="2349" d="M1321 2103h194l-263 -352h-153zM1272 1604l426 -1368h3l422 1368h170l-504 -1604h-187l-428 1377l-430 -1377h-185l-502 1604h177l420 -1361h4l423 1361h191z" />
<glyph unicode="&#x1e83;" horiz-adv-x="1774" d="M1227 1632l-263 -352h-153l222 352h194zM806 1093h161l299 -908h1l290 908h165l-368 -1093h-178l-290 889h-1l-292 -889h-175l-366 1093h169l287 -907h1z" />
<glyph unicode="&#x1e84;" horiz-adv-x="2349" d="M980 1757q-47 0 -84 36.5t-37 86.5t37 86.5t84 36.5t84 -36.5t37 -86.5t-37 -86.5t-84 -36.5zM1370 1757q-47 0 -84 36.5t-37 86.5t37 86.5t84 36.5t84 -36.5t37 -86.5t-37 -86.5t-84 -36.5zM1272 1604l426 -1368h3l422 1368h170l-504 -1604h-187l-428 1377l-430 -1377 h-185l-502 1604h177l420 -1361h4l423 1361h191z" />
<glyph unicode="&#x1e85;" horiz-adv-x="1774" d="M692 1277q-47 0 -84 36.5t-37 86.5t37 86.5t84 36.5t84 -36.5t37 -86.5t-37 -86.5t-84 -36.5zM1082 1277q-47 0 -84 36.5t-37 86.5t37 86.5t84 36.5t84 -36.5t37 -86.5t-37 -86.5t-84 -36.5zM806 1093h161l299 -908h1l290 908h165l-368 -1093h-178l-290 889h-1l-292 -889 h-175l-366 1093h169l287 -907h1z" />
<glyph unicode="&#x1e90;" horiz-adv-x="1321" d="M730 2105l282 -353h-170l-186 242h-5l-183 -242h-171l274 353h159zM74 0h1160v155h-963l959 1294v155h-1123v-154h926l-959 -1295v-155z" />
<glyph unicode="&#x1e91;" horiz-adv-x="1053" d="M598 1633l282 -353h-170l-186 242h-5l-183 -242h-170l273 353h159zM102 1093h857v-135l-682 -821h684v-137h-876v137l684 819h-667v137z" />
<glyph unicode="&#x1ebc;" horiz-adv-x="1360" d="M866 1792q-40 0 -77 15.5t-61.5 34.5t-59.5 34.5t-71 15.5q-66 0 -82 -98h-115q1 103 49 169.5t147 66.5q44 0 91.5 -24.5t93.5 -49t87 -24.5q68 0 90 94h100q-2 -104 -47.5 -169t-144.5 -65zM392 1448h835v156h-1004v-1604h1012v156h-843v582h764v155h-764v555z" />
<glyph unicode="&#x1ebd;" horiz-adv-x="1244" d="M767 1280q-40 0 -77 15.5t-61.5 34.5t-59.5 34.5t-71 15.5q-68 0 -84 -98h-115q1 104 49 170t149 66q44 0 91.5 -24.5t93.5 -49t87 -24.5q68 0 90 94h100q-2 -104 -47.5 -169t-144.5 -65zM262 497q9 -160 120.5 -267t271.5 -107q123 0 211.5 60t126.5 174l142 -45 q-47 -155 -179 -243t-299 -88q-156 0 -284 76t-199.5 206t-71.5 285q0 148 68 277.5t191.5 208.5t272.5 79q164 0 282.5 -74.5t176 -200t57.5 -287.5q0 -18 -2 -54h-885zM987 633q-16 153 -109 246t-245 93q-139 0 -244 -99.5t-125 -239.5h723z" />
<glyph unicode="&#x1ef2;" horiz-adv-x="1518" d="M704 1751l-263 352h194l222 -352h-153zM53 1604h202l507 -767l511 767h193l-622 -927v-677h-170v676z" />
<glyph unicode="&#x1ef3;" horiz-adv-x="1216" d="M567 1280l-263 352h194l222 -352h-153zM1179 1093l-748 -1632h-173l283 613l-497 1019h183l401 -845l379 845h172z" />
<glyph unicode="&#x2000;" horiz-adv-x="1149" />
<glyph unicode="&#x2001;" horiz-adv-x="2298" />
<glyph unicode="&#x2002;" horiz-adv-x="1149" />
<glyph unicode="&#x2003;" horiz-adv-x="2298" />
<glyph unicode="&#x2004;" horiz-adv-x="766" />
<glyph unicode="&#x2005;" horiz-adv-x="574" />
<glyph unicode="&#x2006;" horiz-adv-x="383" />
<glyph unicode="&#x2007;" horiz-adv-x="383" />
<glyph unicode="&#x2008;" horiz-adv-x="287" />
<glyph unicode="&#x2009;" horiz-adv-x="459" />
<glyph unicode="&#x200a;" horiz-adv-x="127" />
<glyph unicode="&#x2010;" horiz-adv-x="893" d="M153 725h587v-169h-587v169z" />
<glyph unicode="&#x2011;" horiz-adv-x="893" d="M153 725h587v-169h-587v169z" />
<glyph unicode="&#x2012;" horiz-adv-x="893" d="M153 725h587v-169h-587v169z" />
<glyph unicode="&#x2013;" horiz-adv-x="1247" d="M1094 562h-941v159h941v-159z" />
<glyph unicode="&#x2014;" horiz-adv-x="2093" d="M1940 562h-1787v159h1787v-159z" />
<glyph unicode="&#x2018;" horiz-adv-x="560" d="M407 1536q-66 -13 -114.5 -76.5t-49.5 -136.5q22 13 52 13q58 0 94.5 -39t36.5 -97q0 -57 -42.5 -96t-100.5 -39q-74 0 -115.5 56t-41.5 133q0 139 74.5 243t206.5 122v-83z" />
<glyph unicode="&#x2019;" horiz-adv-x="564" d="M166 1144q66 13 114.5 76.5t49.5 136.5q-22 -13 -52 -13q-58 0 -94.5 39t-36.5 97q0 57 42.5 96t100.5 39q74 0 115.5 -56t41.5 -133q0 -139 -74.5 -243t-206.5 -122v83z" />
<glyph unicode="&#x201a;" horiz-adv-x="587" d="M161 -216q66 13 114.5 76.5t49.5 136.5q-22 -13 -52 -13q-58 0 -94.5 39t-36.5 97q0 57 42.5 96t100.5 39q74 0 115.5 -56t41.5 -133q0 -139 -74.5 -243t-206.5 -122v83z" />
<glyph unicode="&#x201c;" horiz-adv-x="955" d="M407 1536q-66 -13 -114.5 -76.5t-49.5 -136.5q22 13 52 13q58 0 94.5 -39t36.5 -97q0 -57 -42.5 -96t-100.5 -39q-74 0 -115.5 56t-41.5 133q0 139 74.5 243t206.5 122v-83zM802 1536q-66 -13 -114.5 -76.5t-49.5 -136.5q22 13 52 13q58 0 94.5 -39t36.5 -97 q0 -57 -42.5 -96t-100.5 -39q-74 0 -115.5 56t-41.5 133q0 139 74.5 243t206.5 122v-83z" />
<glyph unicode="&#x201d;" horiz-adv-x="958" d="M166 1144q66 13 114.5 76.5t49.5 136.5q-22 -13 -52 -13q-58 0 -94.5 39t-36.5 97q0 57 42.5 96t100.5 39q74 0 115.5 -56t41.5 -133q0 -139 -74.5 -243t-206.5 -122v83zM561 1144q66 13 114.5 76.5t49.5 136.5q-22 -13 -52 -13q-58 0 -94.5 39t-36.5 97q0 57 42.5 96 t100.5 39q74 0 115.5 -56t41.5 -133q0 -139 -74.5 -243t-206.5 -122v83z" />
<glyph unicode="&#x201e;" horiz-adv-x="982" d="M161 -216q66 13 114.5 76.5t49.5 136.5q-22 -13 -52 -13q-58 0 -94.5 39t-36.5 97q0 57 42.5 96t100.5 39q74 0 115.5 -56t41.5 -133q0 -139 -74.5 -243t-206.5 -122v83zM556 -216q66 13 114.5 76.5t49.5 136.5q-22 -13 -52 -13q-58 0 -94.5 39t-36.5 97q0 57 42.5 96 t100.5 39q74 0 115.5 -56t41.5 -133q0 -139 -74.5 -243t-206.5 -122v83z" />
<glyph unicode="&#x2020;" horiz-adv-x="1288" d="M570 1518h156v-459h396v-147h-396v-912h-156v912h-404v147h404v459z" />
<glyph unicode="&#x2021;" horiz-adv-x="1288" d="M565 950h-434v146h434v421h156v-421h436v-146h-436v-802h436v-147h-436v-424h-156v424h-434v147h434v802z" />
<glyph unicode="&#x2022;" horiz-adv-x="1031" d="M516 390q-148 0 -252 104.5t-104 252.5q0 147 104.5 254.5t251.5 107.5q146 0 250.5 -107.5t104.5 -254.5q0 -148 -104 -252.5t-251 -104.5z" />
<glyph unicode="&#x2026;" horiz-adv-x="1751" d="M139 129q0 61 43 104t104 43t104 -43t43 -104t-43 -104t-104 -43t-104 43t-43 104zM730 129q0 61 43 104t104 43t104 -43t43 -104t-43 -104t-104 -43t-104 43t-43 104zM1318 129q0 61 43 104t104 43t104 -43t43 -104t-43 -104t-104 -43t-104 43t-43 104z" />
<glyph unicode="&#x202f;" horiz-adv-x="459" />
<glyph unicode="&#x2030;" horiz-adv-x="2566" d="M442 897q-150 0 -256 106t-106 255q0 150 106 256t256 106t256 -106t106 -256q0 -149 -106 -255t-256 -106zM1484 1604l-1045 -1604h-163l1046 1604h162zM442 1485q-94 0 -160 -66.5t-66 -160.5t66 -160t160 -66t160.5 66t66.5 160t-66.5 160.5t-160.5 66.5zM1330 -12 q-150 0 -256 106t-106 255q0 150 106 256t256 106t256 -106t106 -256q0 -149 -106 -255t-256 -106zM1330 576q-94 0 -160 -66.5t-66 -160.5t66 -160t160 -66t160.5 66t66.5 160t-66.5 160.5t-160.5 66.5zM2125 -12q-150 0 -256 106t-106 255q0 150 106 256t256 106t256 -106 t106 -256q0 -149 -106 -255t-256 -106zM2125 576q-94 0 -160 -66.5t-66 -160.5t66 -160t160 -66t160.5 66t66.5 160t-66.5 160.5t-160.5 66.5z" />
<glyph unicode="&#x2039;" horiz-adv-x="710" d="M466 987l98 -97l-261 -269l261 -271l-98 -96l-369 363z" />
<glyph unicode="&#x203a;" horiz-adv-x="710" d="M146 350l260 265l-260 275l98 97l369 -370l-369 -363z" />
<glyph unicode="&#x203d;" horiz-adv-x="1117" d="M600 775q30 42 85.5 110.5t87 110t58 100t26.5 111.5q0 108 -77.5 183.5t-224.5 75.5q-152 0 -236 -98.5t-75 -249.5l-162 6q-2 32 -2 48q0 128 66 232t174 160.5t235 56.5q138 0 247 -59t166 -153.5t57 -205.5q0 -47 -11 -90.5t-27 -75.5t-45 -72t-52 -65.5t-63.5 -69.5 t-64.5 -72q-58 -67 -81.5 -98.5t-43.5 -81.5t-23 -113h-159l-12 766h169zM401 102q0 50 35 85t85 35t85 -35t35 -85t-35 -85t-85 -35t-85 35t-35 85z" />
<glyph unicode="&#x2042;" horiz-adv-x="1876" d="M543 1272l36 106l301 -97v323h115v-323l301 98l37 -107l-298 -100l182 -255l-91 -68l-189 257l-187 -256l-91 67l183 255zM1013 393l36 106l301 -98v324h115v-324l301 98l37 -107l-298 -99l182 -255l-91 -68l-189 257l-187 -257l-91 68l183 255zM73 391l36 106l301 -98 v324h115v-324l301 98l37 -106l-298 -100l182 -255l-91 -68l-189 257l-187 -257l-91 68l183 255z" />
<glyph unicode="&#x2044;" horiz-adv-x="1250" d="M1230 1604l-1045 -1604h-163l1046 1604h162z" />
<glyph unicode="&#x2051;" horiz-adv-x="1030" d="M120 1272l36 106l301 -97v323h115v-323l301 98l37 -107l-298 -100l182 -255l-91 -68l-189 257l-187 -256l-91 67l183 255zM120 391l36 106l301 -98v324h115v-324l301 98l37 -106l-298 -100l182 -255l-91 -68l-189 257l-187 -257l-91 68l183 255z" />
<glyph unicode="&#x205f;" horiz-adv-x="574" />
<glyph unicode="&#x20a4;" horiz-adv-x="1337" d="M1247 377q0 -98 -43.5 -182t-134.5 -139.5t-213 -55.5h-720v156q110 55 183 165t76 231h-253v139h237q-14 59 -65 199h-172v139h128q-20 80 -20 149q0 125 64 227t171 158.5t233 56.5q208 0 327 -108t126 -280l-161 -28q-2 49 -16.5 91.5t-45 82.5t-88.5 63.5t-137 23.5 q-127 0 -213.5 -84t-86.5 -209q0 -62 23 -143h558v-138h-512q48 -136 62 -200h450v-139h-435q-8 -243 -203 -396h468q74 0 127 22.5t79 60.5t37 75.5t11 78.5z" />
<glyph unicode="&#x20a9;" horiz-adv-x="2420" d="M1403 752h-389l-235 -752h-185l-235 752h-246v116h209l-230 736h177l227 -736h391l229 736h191l229 -736h395l227 736h170l-231 -736h210v-116h-247l-236 -752h-187zM1367 868l-158 509l-159 -509h317zM689 243h4l158 509h-319zM1733 236h3l159 516h-323z" />
<glyph unicode="&#x20ab;" horiz-adv-x="1435" d="M1035 234q-152 -250 -427 -250q-114 0 -211.5 46t-162.5 124t-101.5 180t-36.5 214q0 107 37 208.5t102.5 181t163 127.5t209.5 48q76 0 142 -20t117.5 -57t90 -78t74.5 -94v434h-378v142h378v228h159v-228h128v-142h-128v-1298h-156v234zM642 124q168 0 280 126.5 t112 299.5q0 108 -50 204.5t-141 156t-201 59.5q-176 0 -279.5 -121.5t-103.5 -304.5q0 -114 44.5 -208.5t133 -153t205.5 -58.5zM1190 -379h-1042v141h1042v-141z" />
<glyph unicode="&#x20ac;" horiz-adv-x="1875" d="M1043 -17q-277 0 -488 158t-281 421h-178v140h152q-4 41 -4 95t6 105h-154v140h181q75 262 288.5 420.5t485.5 158.5q126 0 236.5 -34t189 -88t140.5 -124.5t97.5 -141t52.5 -140.5l-161 -57q-10 39 -29.5 85t-64.5 109t-103.5 112t-153.5 84t-208 35q-202 0 -364.5 -114 t-226.5 -305h738l-46 -141l-724 1q-6 -47 -6 -95q0 -57 7 -105h672l-44 -140h-595q63 -189 222.5 -304t367.5 -115q110 0 202.5 33t149.5 78.5t104 110.5t68 110.5t39 97.5l161 -58q-18 -65 -52 -131.5t-95.5 -140.5t-140 -130t-193.5 -93t-248 -37z" />
<glyph unicode="&#x20ae;" horiz-adv-x="1425" d="M1259 804v-151l-452 -171v-482h-167v418l-454 -172v151l454 172v210l-454 -172v151l454 172v516h-537v158h1240v-158h-536v-452l452 171v-151l-452 -171v-210z" />
<glyph unicode="&#x20b1;" horiz-adv-x="1606" d="M1365 1045q-27 -186 -178.5 -302t-405.5 -116h-321v-627h-168v1045h-182v140h182v419h516q130 0 234 -33.5t171 -92.5t105.5 -133t48.5 -160h164v-140h-166zM1194 1183q-10 54 -35.5 99t-71 83t-120.5 59.5t-172 21.5h-335v-263h734zM787 783q178 0 279 75t126 189h-732 v-264h327z" />
<glyph unicode="&#x20b4;" horiz-adv-x="1480" d="M1058 1058q34 57 34 133q0 121 -80 191q-95 83 -269 83q-116 0 -224.5 -67.5t-157.5 -172.5l-143 78q69 144 216 230.5t310 86.5q116 0 220 -32.5t175 -97.5q122 -111 122 -297q0 -72 -23 -135h109v-140h-1217v140h928zM428 577q-55 -65 -55 -158q0 -73 33.5 -128.5 t89 -86.5t119 -46.5t131.5 -15.5q118 0 233 68.5t164 173.5l144 -79q-65 -148 -220.5 -233.5t-326.5 -85.5q-83 0 -159.5 15t-146 48.5t-121 82.5t-81.5 122t-30 162t37 161h-109v140h1217v-140h-919z" />
<glyph unicode="&#x20b8;" horiz-adv-x="1438" d="M99 1446v158h1240v-158h-1240zM804 1088h535v159h-1240v-159h536v-1088h169v1088z" />
<glyph unicode="&#x20b9;" horiz-adv-x="1408" d="M906 1463q85 -47 122.5 -113.5t48.5 -154.5h239v-140h-240q-22 -151 -132.5 -264.5t-275.5 -137.5l390 -653h-200l-382 649h-343v159h427q133 0 221 64.5t119 182.5h-767v140h769q-27 119 -109.5 184t-212.5 65h-447v160h1183v-141h-410z" />
<glyph unicode="&#x20ba;" horiz-adv-x="1428" d="M1351 672q-15 -113 -54 -211t-108 -184t-164.5 -146.5t-229.5 -95.5t-296 -35h-143v587l-224 -116v159l224 116v219l-224 -116v159l224 116v480h167v-393l491 254v-158l-491 -255v-219l491 254v-159l-491 -254v-519q140 4 249 35t179 79t120 118.5t75.5 141t41.5 159.5z " />
<glyph unicode="&#x20bd;" horiz-adv-x="1479" d="M321 0v286h-196v140h196v202h-196v146h196v830h516q141 0 251.5 -39.5t177 -108t100.5 -153t34 -180.5q0 -104 -38 -193.5t-110.5 -157t-186 -106.5t-255.5 -39h-321v-201h481v-140h-481v-286h-168zM815 783q107 0 189 29t129.5 77.5t71.5 106.5t24 121q0 50 -11.5 95 t-41 88.5t-74 75t-116 51t-162.5 19.5h-335v-663h326z" />
<glyph unicode="&#x2113;" horiz-adv-x="931" d="M406 351q0 -234 242 -234q94 0 165 25v-131q-82 -30 -181 -30q-184 0 -280.5 94.5t-96.5 265.5v128q-90 -33 -175 -53v129q91 31 175 70v572q0 152 80 248.5t225 96.5q147 0 224.5 -87.5t77.5 -239.5q0 -193 -129.5 -370t-326.5 -292v-192zM563 1396q-48 0 -81.5 -21 t-48.5 -55t-21 -63.5t-6 -61.5v-502q308 203 308 520q0 183 -151 183z" />
<glyph unicode="&#x2116;" horiz-adv-x="2680" d="M1366 1604h164v-1604h-182l-962 1371v-1371h-163v1604h192l951 -1353v1353zM2558 995q0 -167 -115 -280.5t-281 -113.5q-164 0 -280.5 113.5t-116.5 280.5q0 168 115.5 281t281.5 113q163 0 279.5 -114t116.5 -280zM2410 995q0 107 -69.5 181.5t-178.5 74.5 q-110 0 -179.5 -74.5t-69.5 -181.5t70 -181t179 -74t178.5 74t69.5 181zM2548 363v-142h-773v142h773z" />
<glyph unicode="&#x2122;" horiz-adv-x="2113" d="M773 1480h-277v-801h-137v801h-278v124h692v-124zM1058 679h-126v925h202l297 -749l287 749h212v-925h-131v783h-7l-305 -783h-115l-307 768h-7v-768z" />
<glyph unicode="&#x212e;" horiz-adv-x="1774" d="M460 284q79 -83 201.5 -131.5t242.5 -48.5q208 0 357.5 88t230.5 250l103 -57q-85 -184 -267 -292.5t-424 -108.5q-182 0 -331.5 64.5t-248.5 177t-153 264t-54 325.5q0 166 57.5 314t159 256.5t249.5 171.5t321 63q172 0 319.5 -63t249 -170.5t159 -254.5t57.5 -313v-15 h-1229v-520zM1351 1329q-81 83 -204 128.5t-246 45.5q-258 0 -441 -171v-409h891v406z" />
<glyph unicode="&#x2153;" horiz-adv-x="1850" d="M473 1603v-933h-143v780l-193 -112l-62 105l269 161zM350 0l1045 1604h-162l-1046 -1604h163zM1388 -20q87 0 165 34.5t129.5 104t51.5 158.5q0 115 -77 194t-193 94l255 219v152h-646v-130h482l-317 -273l69 -108q37 20 92 20q75 0 133 -44t58 -117q0 -78 -60 -125.5 t-140 -47.5q-93 0 -147 51t-63 144l-134 -22q12 -141 106 -222.5t236 -81.5z" />
<glyph unicode="&#x2154;" horiz-adv-x="2131" d="M105 715q0 32 6.5 62.5t15.5 55t27.5 50.5t33 44.5t42 41.5t43.5 36.5t49.5 35t49 31t52 31t48.5 28.5q77 46 117.5 94t40.5 105q0 66 -51 113.5t-130 47.5q-95 0 -142 -50t-54 -133l-138 21q9 125 95 209.5t241 84.5q141 0 231.5 -85.5t90.5 -204.5q0 -83 -49 -159 t-132 -126l-159 -97q-139 -84 -148 -150h494v-130h-674v44zM1668 1604l-1045 -1604h-163l1046 1604h162zM1668 -20q-142 0 -236 81.5t-106 222.5l134 22q9 -93 63 -144t147 -51q80 0 140 47.5t60 125.5q0 73 -58 117t-133 44q-55 0 -92 -20l-69 108l317 273h-482v130h646 v-152l-254 -219q115 -15 192 -94t77 -194q0 -89 -51.5 -158.5t-129.5 -104t-165 -34.5z" />
<glyph unicode="&#x215b;" horiz-adv-x="1752" d="M473 1603v-933h-143v780l-193 -112l-62 105l269 161zM350 0l1045 1604h-162l-1046 -1604h163zM1653 252q0 80 -53.5 139.5t-133.5 84.5q70 27 116.5 83t46.5 128q0 64 -29 116t-77 83.5t-105.5 48.5t-117.5 17q-79 0 -153 -29.5t-125.5 -92t-51.5 -143.5q0 -75 45 -129.5 t119 -81.5q-81 -27 -135 -86t-54 -138q0 -67 32 -120.5t84.5 -85.5t113.5 -49t124 -17q61 0 122 17.5t113.5 50.5t85.5 86t33 118zM1488 679q0 -69 -58 -109t-130 -40t-130.5 40t-58.5 109t58 109t130 40q71 0 130 -40t59 -109zM1511 258q0 -50 -35 -86t-81.5 -51t-95.5 -15 q-48 0 -94 15t-81.5 51t-35.5 86t35 86t81 51.5t94 15.5q77 0 145 -40.5t68 -112.5z" />
<glyph unicode="&#x215c;" horiz-adv-x="2066" d="M433 649q-143 0 -236.5 81t-105.5 222l134 22q9 -93 63 -144t147 -51q80 0 140 48t60 126q0 72 -58.5 116.5t-132.5 44.5q-53 0 -93 -21l-68 108l317 273h-482v130h646v-152l-255 -219q116 -15 193 -94t77 -194q0 -89 -51.5 -158t-129.5 -103.5t-165 -34.5zM1634 1604 l-1045 -1604h-163l1046 1604h162zM1974 252q0 -65 -33 -118t-85.5 -86t-113.5 -50.5t-122 -17.5q-63 0 -124 17t-113 49t-84 85.5t-32 120.5q0 79 54 138t134 86q-74 27 -119 81.5t-45 129.5q0 81 51.5 143.5t125.5 92t153 29.5q60 0 117.5 -17t105.5 -48.5t77 -83.5 t29 -116q0 -72 -46 -128t-117 -83q80 -25 133.5 -84.5t53.5 -139.5zM1809 679q0 69 -58.5 109t-130.5 40t-130 -40t-58 -109t58.5 -109t130.5 -40t130 40t58 109zM1832 258q0 72 -68 112.5t-145 40.5q-48 0 -94 -15.5t-81 -51.5t-35 -86t35.5 -86t82 -51t94.5 -15t94.5 15 t81.5 51t35 86z" />
<glyph unicode="&#x215d;" horiz-adv-x="2032" d="M418 649q-142 0 -230.5 76.5t-105.5 194.5l132 29q12 -82 67 -126.5t136 -44.5q79 0 141 51.5t62 142.5q0 89 -60.5 138.5t-141.5 49.5q-35 0 -84.5 -17.5t-85.5 -57.5l-131 46l99 473h509v-130h-408l-53 -250h2q81 59 180 59q131 0 223 -88.5t92 -221.5 q0 -142 -101.5 -233t-241.5 -91zM1602 1604l-1045 -1604h-163l1046 1604h162zM1941 252q0 -65 -33 -118t-85.5 -86t-113.5 -50.5t-122 -17.5q-63 0 -123.5 17t-113 49t-84.5 85.5t-32 120.5q0 79 54 138t134 86q-74 27 -119 81.5t-45 129.5q0 81 51.5 143.5t125.5 92 t153 29.5q82 0 155.5 -28.5t124 -90.5t50.5 -146q0 -72 -46.5 -128t-117.5 -83q80 -25 133.5 -84.5t53.5 -139.5zM1777 679q0 69 -59 109t-131 40t-130 -40t-58 -109t58.5 -109t130.5 -40t130.5 40t58.5 109zM1799 258q0 72 -67.5 112.5t-144.5 40.5q-48 0 -94.5 -15.5 t-81.5 -51.5t-35 -86t35.5 -86t82 -51t94.5 -15t94.5 15t81.5 51t35 86z" />
<glyph unicode="&#x215e;" horiz-adv-x="1808" d="M352 671h-161l403 802h-511v131h667v-136zM1377 1604l-1045 -1604h-163l1046 1604h162zM1717 252q0 -65 -33 -118t-85.5 -86t-113.5 -50.5t-122 -17.5q-63 0 -123.5 17t-113 49t-84.5 85.5t-32 120.5q0 79 54 138t134 86q-74 27 -119 81.5t-45 129.5q0 81 51.5 143.5 t125.5 92t153 29.5q82 0 155.5 -28.5t124 -90.5t50.5 -146q0 -72 -46.5 -128t-117.5 -83q80 -25 133.5 -84.5t53.5 -139.5zM1553 679q0 69 -59 109t-131 40t-130 -40t-58 -109t58.5 -109t130.5 -40t130.5 40t58.5 109zM1576 258q0 72 -68 112.5t-145 40.5q-48 0 -94.5 -15.5 t-81.5 -51.5t-35 -86t35.5 -86t82 -51t94.5 -15t94.5 15t82 51t35.5 86z" />
<glyph unicode="&#x2190;" horiz-adv-x="1359" d="M734 200l-99 -95l-595 621v39l595 621l99 -95l-449 -467h1004v-156h-1005z" />
<glyph unicode="&#x2191;" horiz-adv-x="1359" d="M134 677l-95 99l622 595h38l622 -595l-95 -99l-468 450v-1005h-156v1005z" />
<glyph unicode="&#x2192;" horiz-adv-x="1359" d="M625 1291l99 95l595 -621v-39l-595 -621l-99 95l450 468h-1005v156h1005z" />
<glyph unicode="&#x2193;" horiz-adv-x="1359" d="M1225 817l95 -100l-621 -595h-39l-622 595l96 100l467 -450v1004h156v-1005z" />
<glyph unicode="&#x2196;" horiz-adv-x="1359" d="M373 310l-137 3l18 860l28 28l860 18l3 -137l-649 -12l711 -711l-111 -110l-710 710z" />
<glyph unicode="&#x2197;" horiz-adv-x="1359" d="M214 1082l2 137l861 -18l27 -28l19 -860l-138 -3l-12 649l-711 -710l-110 110l710 711z" />
<glyph unicode="&#x2198;" horiz-adv-x="1359" d="M987 1158l138 -3l-19 -860l-27 -28l-861 -18l-2 137l648 12l-710 711l110 110l711 -710z" />
<glyph unicode="&#x2199;" horiz-adv-x="1359" d="M1143 386l-3 -137l-860 18l-28 28l-18 860l137 3l13 -649l710 710l111 -110l-711 -711z" />
<glyph unicode="&#x21a9;" horiz-adv-x="2208" d="M1440 494q221 0 364 131t143 343q0 220 -140 347t-374 127h-379v152h395q198 0 349 -81.5t231.5 -223.5t80.5 -321q0 -134 -47 -250t-131.5 -200t-209 -132t-273.5 -48h-1139l450 -468l-99 -95l-595 622v38l595 622l99 -95l-450 -468h1130z" />
<glyph unicode="&#x21b0;" horiz-adv-x="1585" d="M1292 599q0 207 -118 298t-346 91h-515l450 -467l-100 -95l-595 621v39l595 621l100 -95l-451 -468h539q605 0 605 -538v-606h-164v599z" />
<glyph unicode="&#x21b1;" horiz-adv-x="1585" d="M129 606q0 538 605 538h539l-451 468l99 95l596 -621v-39l-596 -621l-99 95l450 467h-515q-229 0 -347 -91t-118 -298v-599h-163v606z" />
<glyph unicode="&#x21b2;" horiz-adv-x="1584" d="M1455 998q0 -270 -150.5 -404t-454.5 -134h-539l451 -468l-99 -95l-595 621v39l595 622l99 -96l-450 -467h516q228 0 346 91.5t118 298.5v598h163v-606z" />
<glyph unicode="&#x21b3;" horiz-adv-x="1584" d="M292 1006q0 -207 118 -298.5t346 -91.5h516l-450 467l99 96l595 -622v-39l-595 -621l-99 95l450 468h-538q-304 0 -454.5 134t-150.5 404v606h163v-598z" />
<glyph unicode="&#x21b4;" horiz-adv-x="1853" d="M683 1604q270 0 404 -150.5t134 -454.5v-539l468 451l95 -99l-621 -595h-39l-622 595l96 99l467 -450v516q0 228 -91.5 346t-298.5 118h-598v163h606z" />
<glyph unicode="&#x2202;" horiz-adv-x="1349" d="M622 -17q-147 0 -266 70.5t-186 192.5t-67 270q0 143 71.5 260.5t199 185.5t285.5 68q53 0 108 -9.5t138.5 -48t154.5 -102.5q-38 308 -162 452t-359 144q-149 0 -299 -66l-63 142q178 79 368 79q171 0 302 -62.5t213.5 -177.5t124 -271t41.5 -349q0 -130 -23 -245 t-72 -213t-119 -169t-170 -111t-220 -40zM668 874q-70 0 -137 -20t-126.5 -60.5t-96 -112.5t-36.5 -165q0 -165 106.5 -270t251.5 -105q89 0 162.5 35t122 91.5t81.5 130.5t48 148.5t15 148.5q-172 179 -391 179z" />
<glyph unicode="&#x2206;" horiz-adv-x="1714" d="M1644 0h-1574l691 1604h191zM310 156h1088l-545 1271z" />
<glyph unicode="&#x220f;" horiz-adv-x="1415" d="M77 1441v163h1261v-163h-261v-1441h-168v1441h-403v-1441h-168v1441h-261z" />
<glyph unicode="&#x2211;" horiz-adv-x="1271" d="M118 1604h1035v-161h-810l599 -628l-626 -654h839v-161h-1062v161l627 655l-602 632v156z" />
<glyph unicode="&#x2212;" horiz-adv-x="1293" d="M1133 697h-973v157h973v-157z" />
<glyph unicode="&#x221a;" horiz-adv-x="1525" d="M281 1117h-240v143h364l373 -1054l569 1756h151l-641 -1962h-172z" />
<glyph unicode="&#x221e;" horiz-adv-x="2054" d="M1510 359q-161 0 -354 178q-14 13 -128 125q-38 -36 -79 -77.5t-57 -56.5q-90 -84 -178 -126.5t-193 -42.5q-173 0 -286.5 117t-113.5 296q0 180 122.5 299.5t299.5 119.5q165 0 366 -189q48 -46 120 -120q27 26 72.5 72.5t65.5 64.5q92 86 177 129t190 43 q175 0 287.5 -118.5t112.5 -300.5q0 -178 -123.5 -295.5t-300.5 -117.5zM1516 1038q-82 0 -150.5 -44t-142.5 -118q-13 -13 -43 -45t-56 -59q28 -26 99 -98q72 -73 141 -117t152 -44q109 0 185.5 75.5t76.5 183.5t-74.5 187t-187.5 79zM834 870q-71 74 -142.5 121t-154.5 47 q-111 0 -185 -78t-74 -188t73.5 -184.5t185.5 -74.5q81 0 151.5 43.5t142.5 113.5q12 11 24 23t34 34.5t42 42.5z" />
<glyph unicode="&#x222b;" horiz-adv-x="792" d="M317 1140q0 222 116.5 350.5t336.5 128.5v-145q-293 -14 -293 -324v-1214q0 -222 -116.5 -350.5t-335.5 -128.5v145q292 13 292 321v1217z" />
<glyph unicode="&#x2236;" horiz-adv-x="628" d="M167 1142q0 61 43 104t104 43t104 -43t43 -104t-43 -104t-104 -43t-104 43t-43 104zM167 308q0 61 43 104t104 43t104 -43t43 -104t-43 -104t-104 -43t-104 43t-43 104z" />
<glyph unicode="&#x2248;" horiz-adv-x="1295" d="M1138 940q-43 -72 -113 -114t-152 -42q-60 0 -127 28.5t-116.5 62.5t-109.5 62.5t-107 28.5q-49 0 -85.5 -23t-76.5 -67l-93 91q46 70 115.5 111t149.5 41q67 0 136.5 -28.5t117.5 -62.5t105 -62.5t101 -28.5q48 0 85.5 24.5t78.5 69.5zM873 398q-60 0 -127 28.5 t-116.5 62.5t-109.5 62.5t-107 28.5q-49 0 -85.5 -23t-76.5 -67l-93 92q46 69 116 110t149 41q67 0 136.5 -28.5t117.5 -62t105 -62t101 -28.5q48 0 86 24t78 69l91 -91q-43 -72 -113 -114t-152 -42z" />
<glyph unicode="&#x2260;" horiz-adv-x="1267" d="M305 309l83 153h-227v157h311l166 307h-477v157h560l137 253l122 -60l-106 -193h232v-157h-313l-167 -307h480v-157h-565l-115 -217z" />
<glyph unicode="&#x2264;" horiz-adv-x="1375" d="M139 684v166l1061 430v-159l-893 -353l893 -353v-163zM1200 0h-1061v148h1061v-148z" />
<glyph unicode="&#x2265;" horiz-adv-x="1375" d="M175 252v163l892 353l-892 353v159l1061 -430v-166zM1236 0h-1061v148h1061v-148z" />
<glyph unicode="&#x25a0;" horiz-adv-x="1860" d="M207 0v1457h1451v-1457h-1451z" />
<glyph unicode="&#x25a1;" horiz-adv-x="1860" d="M1658 0h-1451v1457h1451v-1457zM1501 143v1169h-1144v-1169h1144z" />
<glyph unicode="&#x25b2;" horiz-adv-x="1716" d="M0 0l862 1495l854 -1495h-1716z" />
<glyph unicode="&#x25b3;" horiz-adv-x="1716" d="M858 1474l844 -1474h-1687zM271 143h1172l-585 1029z" />
<glyph unicode="&#x25ca;" horiz-adv-x="1466" d="M639 0l-593 804l594 800h171l591 -800l-591 -804h-172zM1194 804l-470 637l-468 -637l468 -638z" />
<glyph unicode="&#x25cb;" horiz-adv-x="1665" d="M834 -28q-155 0 -295.5 60t-242.5 161t-162 241.5t-60 295.5t60 295.5t162 242.5t242.5 162t295.5 60q154 0 294.5 -60t241.5 -162t161 -242.5t60 -295.5t-60 -295.5t-161 -241.5t-241.5 -161t-294.5 -60zM834 1343q-166 0 -306.5 -82.5t-221.5 -223.5t-81 -307t81 -307 t221.5 -223.5t306.5 -82.5q164 0 302.5 82.5t218.5 223.5t80 307t-80 307t-218.5 223.5t-302.5 82.5z" />
<glyph unicode="&#x25cf;" horiz-adv-x="1665" d="M74 730q0 155 60 295.5t161 242.5t241.5 162t294.5 60q155 0 295.5 -60t242.5 -162t162 -242.5t60 -295.5t-60 -295.5t-162 -241.5t-242.5 -161t-295.5 -60q-154 0 -294.5 60t-241.5 161t-161 241.5t-60 295.5z" />
<glyph unicode="&#x25fc;" horiz-adv-x="1095" d="M0 1095h1095v-1095h-1095v1095z" />
<glyph unicode="&#x2605;" horiz-adv-x="1716" d="M549 544l-499 363h617l191 588l191 -588h618l-500 -363l191 -587l-500 363l-501 -359z" />
<glyph unicode="&#x2611;" horiz-adv-x="1958" d="M1908 1823l-250 -432v-1391h-1451v1457h1320l255 441zM353 1315v-1175h1152v986l-519 -898l-525 635l116 99l391 -473l477 826h-1092z" />
<glyph unicode="&#x2612;" horiz-adv-x="1860" d="M1658 1457v-1457h-1451v1457h1451zM353 140h1152v1175h-1152v-1175zM931 833l339 347l102 -104l-339 -349l339 -345l-102 -105l-339 344l-343 -352l-102 105l343 353l-343 349l104 104z" />
<glyph unicode="&#x2639;" horiz-adv-x="1665" d="M834 -28q-155 0 -296 60t-242.5 161t-161.5 241.5t-60 295.5t60 295.5t162 242.5t242.5 162t295.5 60q154 0 294.5 -60t241.5 -162t161 -242.5t60 -295.5t-59.5 -295.5t-161 -241.5t-241.5 -161t-295 -60zM834 1380q-176 0 -325 -87.5t-235 -237t-86 -325.5t86 -325.5 t235 -237t325 -87.5q130 0 248.5 52t203.5 139.5t135.5 207.5t50.5 251t-50.5 251t-135.5 207.5t-203.5 139.5t-248.5 52zM783 930q0 -56 -40 -95.5t-96 -39.5t-96 39.5t-40 95.5t40 96t96 40t96 -40t40 -96zM1153 930q0 -56 -39.5 -95.5t-95.5 -39.5t-96 39.5t-40 95.5 t40 96t96 40t95.5 -40t39.5 -96zM1109 384q-22 99 -103 159t-173 60q-94 0 -175.5 -59.5t-103.5 -159.5h-108q30 141 139 229t248 88q138 0 246 -88.5t137 -228.5h-107z" />
<glyph unicode="&#x263a;" horiz-adv-x="1665" d="M1591 730q0 -155 -59.5 -295.5t-161 -241.5t-241.5 -161t-295 -60t-296 60t-242.5 161t-161.5 241.5t-60 295.5t60 295.5t162 242.5t242.5 162t295.5 60q154 0 294.5 -60t241.5 -162t161 -242.5t60 -295.5zM1472 730q0 131 -50.5 251t-135.5 207.5t-203.5 139.5 t-248.5 52q-176 0 -325 -87.5t-235 -237t-86 -325.5t86 -325.5t235 -237t325 -87.5q130 0 248.5 52t203.5 139.5t135.5 207.5t50.5 251zM783 930q0 -56 -40 -95.5t-96 -39.5t-96 39.5t-40 95.5t40 96t96 40t96 -40t40 -96zM1153 930q0 -56 -39.5 -95.5t-95.5 -39.5t-96 39.5 t-40 95.5t40 96t96 40t95.5 -40t39.5 -96zM833 318q-144 0 -257 100t-143 261h111q23 -114 107 -181.5t182 -67.5q96 0 179.5 68.5t105.5 180.5h111q-30 -159 -141.5 -260t-254.5 -101z" />
<glyph unicode="&#x263b;" horiz-adv-x="1665" d="M1591 730q0 -155 -60 -295.5t-161 -241.5t-241.5 -161t-294.5 -60q-155 0 -295.5 60t-242.5 161t-162 241.5t-60 295.5t60 295.5t162 242.5t242.5 162t295.5 60q154 0 294.5 -60t241.5 -162t161 -242.5t60 -295.5zM783 930q0 56 -40 96t-96 40t-96 -40t-40 -96t40 -95.5 t96 -39.5t96 39.5t40 95.5zM1153 930q0 56 -39.5 96t-95.5 40t-96 -40t-40 -96t40 -95.5t96 -39.5t95.5 39.5t39.5 95.5zM1118 679q-22 -112 -105.5 -180.5t-179.5 -68.5q-98 0 -182 67.5t-107 181.5h-111q30 -161 143 -261t257 -100q143 0 254.5 101t141.5 260h-111z" />
<glyph unicode="&#x2665;" horiz-adv-x="1785" d="M7 983q0 198 134.5 334t332.5 136q117 0 216.5 -58t147.5 -161q50 106 149.5 162.5t221.5 56.5q194 0 327 -138t133 -332q0 -125 -55.5 -253t-139 -232.5t-200 -208t-220 -176.5t-217.5 -141q-93 56 -179.5 116t-184.5 138.5t-178 164.5t-147 180.5t-104 200.5t-37 211z " />
<glyph unicode="&#x2713;" horiz-adv-x="1929" d="M47 620l114 109l464 -506l1112 1223l113 -112l-1232 -1346z" />
<glyph unicode="&#x2715;" horiz-adv-x="1546" d="M770 839l596 601l110 -110l-596 -603l609 -607l-110 -112l-609 607l-603 -606l-110 111l603 607l-602 603l111 110z" />
<glyph unicode="&#x2e18;" horiz-adv-x="1090" d="M698 993q0 -50 -35 -85t-85 -35t-85 35t-35 85t35 85t85 35t85 -35t35 -85zM499 320q-30 -42 -85.5 -110.5t-87 -110t-58 -100t-26.5 -111.5q0 -108 77.5 -183.5t224.5 -75.5q152 0 236 98.5t75 249.5l162 -6q2 -32 2 -48q0 -128 -66 -232t-174 -160.5t-235 -56.5 q-138 0 -247 59t-166 153.5t-57 205.5q0 47 11 90.5t27 75.5t45 72t52 65.5t63.5 69.5t64.5 72q58 67 81.5 98.5t43.5 81.5t23 113h159l12 -766h-169z" />
<glyph unicode="&#xe09d;" horiz-adv-x="1449" d="M1234 -9q-86 0 -148 22.5t-96.5 64t-50 92t-15.5 113.5v671h-504v-954h-159v954h-210v139h210v203q0 184 92 280.5t243 96.5q63 0 120 -20v-136q-42 15 -114 15q-33 0 -62.5 -10.5t-58 -34.5t-45 -72t-16.5 -114v-208h504v316h159v-316h277v-139h-277v-667 q0 -154 177 -154q59 0 99 8v-132q-52 -18 -125 -18z" />
<glyph unicode="&#xf653;" horiz-adv-x="1025" d="M911 311q0 -133 -95 -222t-238 -104v-194h-117v194q-72 8 -131 33.5t-97.5 59t-66 75.5t-41 79.5t-18.5 74.5l147 38q14 -77 66 -138.5t144 -78.5v361l-61 13q-22 5 -39 9.5t-47 15.5t-52.5 24t-49 35.5t-43.5 49.5t-28.5 66t-11.5 85q0 78 31.5 140t82 99t105 58 t110.5 27v193h117v-196q64 -9 116.5 -33t86.5 -54t59 -67.5t37.5 -70t17.5 -63.5l-145 -41q-8 36 -24.5 69t-56 68t-94.5 48v-342l51 -12q40 -9 77 -24t76 -40t67.5 -56.5t46.5 -78t18 -100.5zM464 969q-75 -10 -123.5 -58.5t-48.5 -112.5q0 -116 157 -148l15 -3v322z M575 127q75 13 124.5 59t49.5 116q0 33 -16 61t-35.5 44t-48.5 30t-43 18.5t-31 8.5v-337z" />
<glyph unicode="&#xf730;" horiz-adv-x="1328" d="M661 -19q-116 0 -219.5 46t-175.5 123t-114.5 179.5t-42.5 213.5q0 156 71 286t199 207t286 77q116 0 219.5 -46t176.5 -122.5t115.5 -179.5t42.5 -214q0 -154 -72 -284.5t-201 -208t-285 -77.5zM665 122q113 0 204 60t139 155.5t48 205.5t-48 207.5t-140 160t-207 62.5 q-114 0 -204.5 -60t-138 -156t-47.5 -206q0 -82 28.5 -159t78.5 -137t125 -96.5t162 -36.5z" />
<glyph unicode="&#xf731;" horiz-adv-x="694" d="M501 0h-158v924l-229 -134l-68 117l310 186h145v-1093z" />
<glyph unicode="&#xf732;" horiz-adv-x="1000" d="M107 44q0 226 273 392l155 94q91 56 140.5 114.5t49.5 128.5q0 83 -62.5 142t-159.5 59q-115 0 -173 -60.5t-65 -155.5l-145 22q10 139 109 236t277 97q162 0 265.5 -99t103.5 -237q0 -95 -56.5 -183t-151.5 -147l-187 -116q-33 -21 -52.5 -34.5t-54 -42t-53 -58.5 t-19.5 -59h582v-137h-776v44z" />
<glyph unicode="&#xf733;" horiz-adv-x="1017" d="M894 322q0 -139 -111 -240t-287 -101t-278.5 98.5t-114.5 244.5l141 23q9 -106 75 -168t179 -62q103 0 174 61.5t71 147.5v5q0 87 -69 143t-165 56q-23 0 -56 -6t-50 -16l-72 115l385 333h-582v137h743v-167l-312 -270q129 -10 218 -87q54 -48 82.5 -112.5t28.5 -127.5 v-7z" />
<glyph unicode="&#xf734;" horiz-adv-x="1093" d="M833 1093v-714h164v-137h-164v-242h-155v242h-600v176l557 675h198zM220 379h458v554z" />
<glyph unicode="&#xf735;" horiz-adv-x="976" d="M475 -19q-152 0 -257.5 88.5t-126.5 214.5l142 25q14 -87 83 -138t158 -51q60 0 115 25.5t94 81.5t39 129q0 108 -76 172t-171 64q-42 0 -99.5 -20t-97.5 -67l-144 52l111 536h581v-141h-474l-64 -309q91 73 220 73q150 0 255.5 -102t105.5 -256q0 -109 -55.5 -196.5 t-145.5 -134t-193 -46.5z" />
<glyph unicode="&#xf736;" horiz-adv-x="1031" d="M526 -18q-180 0 -289 122q-70 77 -97 179.5t-27 195.5q0 136 43.5 255t116.5 201t170.5 129.5t203.5 47.5q66 0 134.5 -12.5t108.5 -33.5l-47 -136q-91 41 -181 41q-101 0 -185.5 -44t-143.5 -138t-73 -225q55 75 138.5 114t160.5 39q162 0 266 -101.5t104 -252.5 q0 -102 -48 -188t-141.5 -139.5t-213.5 -53.5zM528 583q-59 0 -116.5 -26t-98 -78.5t-40.5 -118.5q0 -107 78 -174.5t177 -67.5q59 0 115.5 26.5t97 82t40.5 126.5q0 109 -74.5 169.5t-178.5 60.5z" />
<glyph unicode="&#xf737;" horiz-adv-x="910" d="M836 941l-463 -941h-171l473 954h-604v139h765v-152z" />
<glyph unicode="&#xf738;" horiz-adv-x="1056" d="M528 -19q-58 0 -115 11.5t-111 37t-95 61.5t-66 89t-25 116q0 97 67.5 165.5t159.5 96.5q-85 28 -141.5 91t-56.5 156q0 95 60.5 167.5t146.5 106.5t177 34q96 0 181.5 -33.5t144 -105.5t58.5 -169q0 -87 -58 -152.5t-141 -94.5q91 -25 158.5 -93.5t67.5 -168.5 q0 -99 -65.5 -173t-157.5 -108t-189 -34zM305 796q0 -74 64 -126t160 -52q94 0 159 51t65 127q0 74 -65 125.5t-160 51.5q-96 0 -159.5 -51.5t-63.5 -125.5zM277 303q0 -76 72 -129t180 -53q105 0 178 52t73 130q0 75 -73 128.5t-180 53.5t-178.5 -53t-71.5 -129z" />
<glyph unicode="&#xf739;" horiz-adv-x="1033" d="M506 1112q91 0 164.5 -33.5t122.5 -88.5q70 -77 98 -184.5t28 -201.5q0 -148 -41 -267.5t-112.5 -196t-165 -117.5t-201.5 -41q-67 0 -142.5 12.5t-114.5 33.5l47 137q89 -42 189 -42q171 0 276 105t123 305q-53 -73 -139 -115t-168 -42q-159 0 -263 104t-104 252 q0 158 111 269t292 111zM502 510q59 0 117 26t99.5 79t41.5 119q0 107 -78.5 174.5t-177.5 67.5q-59 0 -115.5 -26.5t-97 -82t-40.5 -126.5q0 -73 37.5 -127t93.5 -79t120 -25z" />
<glyph unicode="&#xf8ff;" horiz-adv-x="2903" d="M2696 1532q-33 0 -63 -10.5t-58 -34.5t-45 -72t-17 -114v-208h287v-139h-287v-954h-158v954h-211v139h211v203q0 184 91.5 280.5t243.5 96.5q63 0 119 -20v-136q-42 15 -113 15zM860 548q0 -151 61.5 -278.5t180 -206.5t270.5 -79q276 0 426 250v-234h156v1668h-159v-804 q-76 113 -177 181t-246 68q-149 0 -268.5 -82.5t-181.5 -210.5t-62 -272zM590 -9q-86 0 -148 22.5t-96.5 64t-50 92t-15.5 113.5v669h-202v141h202v316h159v-316h277v-141h-277v-665q0 -154 177 -154q59 0 99 8v-132q-52 -18 -125 -18zM1405 124q-116 0 -204.5 58.5 t-133 153t-44.5 208.5q0 120 44.5 215.5t132.5 153t205 57.5q110 0 201.5 -60t141.5 -156t50 -204q0 -112 -49.5 -209t-140.5 -157t-203 -60z" />
<glyph horiz-adv-x="1588" d="M793 1708q-117 0 -201 80t-84 194q0 112 84 192t201 80q120 0 203.5 -80t83.5 -192q0 -114 -83.5 -194t-203.5 -80zM793 2141q-69 0 -116.5 -46t-47.5 -113t47.5 -114t116.5 -47t117 47t48 114q0 64 -50 111.5t-115 47.5zM1581 0h-178l-175 410h-873l-176 -410h-172 l691 1604h191zM790 1430l-372 -867h745z" />
<glyph horiz-adv-x="1719" d="M866 -519q-67 0 -131.5 24t-109.5 71l73 95q78 -76 166 -76q26 0 50 6t45.5 27t21.5 54q0 44 -35 65t-75 21q-31 0 -59 -9l-64 85l90 142q-153 13 -286.5 77.5t-231 169t-153.5 250.5t-56 314q0 178 64.5 333.5t174.5 262t257.5 167.5t310.5 61q126 0 237 -34t189.5 -88 t140 -124.5t97 -141t52.5 -140.5l-161 -57q-10 39 -29.5 85t-64.5 109t-103.5 112t-153.5 84t-208 35q-127 0 -242 -48t-200 -133t-135.5 -208t-50.5 -265q0 -188 81 -340t225.5 -238t323.5 -86q110 0 202 33t149.5 78.5t104 110.5t68 111t38.5 97l162 -58 q-12 -43 -31.5 -87t-51 -94.5t-70 -96.5t-92 -90t-114.5 -77t-140 -56t-166 -29l-78 -121q103 -4 168 -52t65 -132q0 -89 -68 -144t-196 -55z" />
<glyph horiz-adv-x="2362" d="M2237 156v-156h-1280q-175 0 -330.5 58.5t-269.5 162t-180.5 255t-66.5 329.5q0 166 62.5 312.5t173.5 254t273 170t350 62.5h1260v-156h-835v-555h764v-155h-764v-582h843zM967 1446q-153 0 -281.5 -48t-216 -133t-136 -203t-48.5 -255q0 -185 86 -333t242.5 -232 t355.5 -84h257v1288h-259z" />
<glyph horiz-adv-x="1830" d="M110 805q0 168 61 318.5t166.5 259.5t255 172.5t318.5 63.5q168 0 316 -62.5t253.5 -170t166 -256.5t60.5 -316q0 -227 -100.5 -395.5t-278.5 -269.5v-2l445 2v-149h-863q-169 0 -318.5 62.5t-254.5 170t-166 256t-61 316.5zM906 1462q-178 0 -321 -88t-221.5 -235.5 t-78.5 -324.5q0 -178 78.5 -328t224 -240.5t326.5 -90.5q197 0 343 100q129 87 202.5 232.5t73.5 315.5q0 180 -79 330t-223.5 239.5t-324.5 89.5z" />
<glyph horiz-adv-x="1833" d="M919 1619q170 0 319.5 -63t255.5 -171.5t167.5 -259t61.5 -319.5q0 -227 -104.5 -415t-290.5 -297t-414 -109q-170 0 -319.5 63t-255.5 171t-167.5 258.5t-61.5 319.5q0 170 61.5 322t168.5 262t257.5 174t321.5 64zM285 806q0 -255 155 -442l882 947q-171 150 -408 150 q-180 0 -325 -88.5t-224.5 -238t-79.5 -328.5zM919 143q180 0 325 88.5t224.5 237.5t79.5 328q0 219 -118 394l-872 -936q160 -112 361 -112z" />
<glyph horiz-adv-x="1378" d="M102 548q0 107 37 208.5t102.5 181t163 127.5t209.5 48q78 0 144.5 -20t117.5 -58t89 -79t74 -95v232h158v-1093h-158v232q-149 -248 -425 -248q-114 0 -211.5 46t-162.5 124t-101.5 180t-36.5 214zM647 124q112 0 203 60t140.5 157t49.5 209q0 108 -50 204t-141.5 156 t-201.5 60q-175 0 -278.5 -121.5t-103.5 -304.5q0 -114 44.5 -208.5t133 -153t204.5 -58.5z" />
<glyph horiz-adv-x="1378" d="M987 1632l-263 -352h-153l222 352h194zM102 548q0 107 37 208.5t102.5 181t163 127.5t209.5 48q78 0 144.5 -20t117.5 -58t89 -79t74 -95v232h158v-1093h-158v232q-149 -248 -425 -248q-114 0 -211.5 46t-162.5 124t-101.5 180t-36.5 214zM647 124q112 0 203 60 t140.5 157t49.5 209q0 108 -50 204t-141.5 156t-201.5 60q-175 0 -278.5 -121.5t-103.5 -304.5q0 -114 44.5 -208.5t133 -153t204.5 -58.5z" />
<glyph horiz-adv-x="1378" d="M649 1276q-85 0 -157.5 37t-122 117.5t-53.5 190.5h126q5 -99 60.5 -158t146.5 -59q89 0 145 57.5t63 159.5h123q-4 -156 -99 -250.5t-232 -94.5zM102 548q0 107 37 208.5t102.5 181t163 127.5t209.5 48q78 0 144.5 -20t117.5 -58t89 -79t74 -95v232h158v-1093h-158v232 q-149 -248 -425 -248q-114 0 -211.5 46t-162.5 124t-101.5 180t-36.5 214zM647 124q112 0 203 60t140.5 157t49.5 209q0 108 -50 204t-141.5 156t-201.5 60q-175 0 -278.5 -121.5t-103.5 -304.5q0 -114 44.5 -208.5t133 -153t204.5 -58.5z" />
<glyph horiz-adv-x="1378" d="M835 1633h170l-282 -353h-159l-273 353h170l183 -242h5zM102 548q0 107 37 208.5t102.5 181t163 127.5t209.5 48q78 0 144.5 -20t117.5 -58t89 -79t74 -95v232h158v-1093h-158v232q-149 -248 -425 -248q-114 0 -211.5 46t-162.5 124t-101.5 180t-36.5 214zM647 124 q112 0 203 60t140.5 157t49.5 209q0 108 -50 204t-141.5 156t-201.5 60q-175 0 -278.5 -121.5t-103.5 -304.5q0 -114 44.5 -208.5t133 -153t204.5 -58.5z" />
<glyph horiz-adv-x="1378" d="M724 1633l282 -353h-170l-186 242h-5l-183 -242h-170l273 353h159zM102 548q0 107 37 208.5t102.5 181t163 127.5t209.5 48q78 0 144.5 -20t117.5 -58t89 -79t74 -95v232h158v-1093h-158v232q-149 -248 -425 -248q-114 0 -211.5 46t-162.5 124t-101.5 180t-36.5 214z M647 124q112 0 203 60t140.5 157t49.5 209q0 108 -50 204t-141.5 156t-201.5 60q-175 0 -278.5 -121.5t-103.5 -304.5q0 -114 44.5 -208.5t133 -153t204.5 -58.5z" />
<glyph horiz-adv-x="1378" d="M466 1277q-47 0 -84 36.5t-37 86.5t37 86.5t84 36.5t84 -36.5t37 -86.5t-37 -86.5t-84 -36.5zM847 1277q-47 0 -84 36.5t-37 86.5t37 86.5t84 36.5t84 -36.5t37 -86.5t-37 -86.5t-84 -36.5zM102 548q0 107 37 208.5t102.5 181t163 127.5t209.5 48q78 0 144.5 -20 t117.5 -58t89 -79t74 -95v232h158v-1093h-158v232q-149 -248 -425 -248q-114 0 -211.5 46t-162.5 124t-101.5 180t-36.5 214zM647 124q112 0 203 60t140.5 157t49.5 209q0 108 -50 204t-141.5 156t-201.5 60q-175 0 -278.5 -121.5t-103.5 -304.5q0 -114 44.5 -208.5 t133 -153t204.5 -58.5z" />
<glyph horiz-adv-x="1378" d="M583 1280l-263 352h194l222 -352h-153zM102 548q0 107 37 208.5t102.5 181t163 127.5t209.5 48q78 0 144.5 -20t117.5 -58t89 -79t74 -95v232h158v-1093h-158v232q-149 -248 -425 -248q-114 0 -211.5 46t-162.5 124t-101.5 180t-36.5 214zM647 124q112 0 203 60 t140.5 157t49.5 209q0 108 -50 204t-141.5 156t-201.5 60q-175 0 -278.5 -121.5t-103.5 -304.5q0 -114 44.5 -208.5t133 -153t204.5 -58.5z" />
<glyph horiz-adv-x="1378" d="M303 1311v144h690v-144h-690zM102 548q0 107 37 208.5t102.5 181t163 127.5t209.5 48q78 0 144.5 -20t117.5 -58t89 -79t74 -95v232h158v-1093h-158v232q-149 -248 -425 -248q-114 0 -211.5 46t-162.5 124t-101.5 180t-36.5 214zM647 124q112 0 203 60t140.5 157 t49.5 209q0 108 -50 204t-141.5 156t-201.5 60q-175 0 -278.5 -121.5t-103.5 -304.5q0 -114 44.5 -208.5t133 -153t204.5 -58.5z" />
<glyph horiz-adv-x="1378" d="M1049 -236q0 -75 50 -106t128 -29v-123q-24 -5 -59 -5q-113 0 -192.5 59.5t-79.5 167.5q0 129 177 272h-34v232q-149 -248 -425 -248q-114 0 -211.5 46t-162.5 124t-101.5 180t-36.5 214q0 107 37 208.5t102.5 181t163 127.5t209.5 48q78 0 144.5 -20t117.5 -58t89 -79 t74 -95v232h158v-1093h-7q-56 -49 -98.5 -113t-42.5 -123zM647 124q112 0 203 60t140.5 157t49.5 209q0 108 -50 204t-141.5 156t-201.5 60q-175 0 -278.5 -121.5t-103.5 -304.5q0 -114 44.5 -208.5t133 -153t204.5 -58.5z" />
<glyph horiz-adv-x="1378" d="M648 1237q-117 0 -201 80t-84 194q0 112 84 192t201 80q120 0 203.5 -80t83.5 -192q0 -114 -83.5 -194t-203.5 -80zM648 1670q-69 0 -116.5 -46t-47.5 -113t47.5 -114t116.5 -47t117 47t48 114q0 64 -50 111.5t-115 47.5zM102 548q0 107 37 208.5t102.5 181t163 127.5 t209.5 48q78 0 144.5 -20t117.5 -58t89 -79t74 -95v232h158v-1093h-158v232q-149 -248 -425 -248q-114 0 -211.5 46t-162.5 124t-101.5 180t-36.5 214zM647 124q112 0 203 60t140.5 157t49.5 209q0 108 -50 204t-141.5 156t-201.5 60q-175 0 -278.5 -121.5t-103.5 -304.5 q0 -114 44.5 -208.5t133 -153t204.5 -58.5z" />
</font>
</defs>
</svg>
